ISO-10303-21;
HEADER;
/* Generated by software containing ST-Developer
 * from STEP Tools, Inc. (www.steptools.com) 
 */
/* OPTION: using custom renumber hook */

FILE_DESCRIPTION(
/* description */ ('STEP AP242 Edition 2',
'CAx-IF Rec.Pracs.---Representation and Presentation of Product Manufa
cturing Information (PMI)---4.0---2014-10-13',
'CAx-IF Rec.Pracs.---3D Tessellated Geometry---0.4---2014-09-14','2;1',
'CAx-IF Rec.Pracs.---User Defined Attributes---1.5---2016-08-15'),
/* implementation_level */ '2;1');

FILE_NAME(
/* name */ 'Part Studio 1',
/* time_stamp */ '2026-09-30T16:20:11Z',
/* author */ (''),
/* organization */ (''),
/* preprocessor_version */ 'ST-DEVELOPER v20',
/* originating_system */ 'ONSHAPE BY PTC INC, 1.221',
/* authorisation */ '  ');

FILE_SCHEMA (('AP242_MANAGED_MODEL_BASED_3D_ENGINEERING_MIM_LF { 1 0 10303 442 3 1 4 }'));
ENDSEC;

DATA;
#10=SHAPE_REPRESENTATION_RELATIONSHIP('','',#913,#11);
#11=ADVANCED_BREP_SHAPE_REPRESENTATION('',(#911),#1523);
#12=B_SPLINE_CURVE_WITH_KNOTS('',3,(#1386,#1387,#1388,#1389,#1390,#1391,
#1392,#1393,#1394,#1395,#1396,#1397,#1398,#1399,#1400),.UNSPECIFIED.,.T.,
 .F.,(1,1,1,1,1,1,1,1,1,1,1,1,1,1,1,1,1,1,1),(-0.000969093218483013,-0.000726819913862259,
-0.000484546609241506,0.,0.000484546609241507,0.00072681991386226,0.000969093218483013,
0.00121136652310377,0.00145363982772452,0.00193818643696603,0.00242273304620753,
0.00266500635082829,0.00290727965544904,0.00314955296006979,0.00339182626469055,
0.00387637287393205,0.00436091948317356,0.00460319278779431,0.00484546609241506),
 .UNSPECIFIED.);
#13=B_SPLINE_CURVE_WITH_KNOTS('',3,(#1402,#1403,#1404,#1405,#1406,#1407,
#1408,#1409,#1410,#1411,#1412,#1413,#1414,#1415,#1416,#1417,#1418,#1419,
#1420),.UNSPECIFIED.,.T.,.F.,(1,1,1,1,1,1,1,1,1,1,1,1,1,1,1,1,1,1,1,1,1,
1,1),(-0.00089633565947076,-0.00059755710631384,-0.00029877855315692,0.,
0.00029877855315692,0.00059755710631384,0.00089633565947076,0.00119511421262768,
0.0014938927657846,0.00179267131894152,0.00209144987209844,0.00239022842525536,
0.00268900697841228,0.0029877855315692,0.00328656408472612,0.00358534263788304,
0.00388412119103996,0.00418289974419688,0.0044816782973538,0.00478045685051072,
0.00507923540366764,0.00537801395682456,0.00567679250998148),
 .UNSPECIFIED.);
#14=CYLINDRICAL_SURFACE('',#933,0.0008);
#15=CYLINDRICAL_SURFACE('',#936,0.0008);
#16=CYLINDRICAL_SURFACE('',#939,0.0008);
#17=CYLINDRICAL_SURFACE('',#942,0.0008);
#18=CYLINDRICAL_SURFACE('',#961,0.00653527239710093);
#19=CYLINDRICAL_SURFACE('',#974,0.0005);
#20=CYLINDRICAL_SURFACE('',#977,0.0005);
#21=CYLINDRICAL_SURFACE('',#980,0.0005);
#22=CYLINDRICAL_SURFACE('',#983,0.0005);
#23=CYLINDRICAL_SURFACE('',#986,0.0005);
#24=CYLINDRICAL_SURFACE('',#989,0.0005);
#25=CYLINDRICAL_SURFACE('',#992,0.0005);
#26=LINE('',#1257,#110);
#27=LINE('',#1260,#111);
#28=LINE('',#1262,#112);
#29=LINE('',#1264,#113);
#30=LINE('',#1266,#114);
#31=LINE('',#1268,#115);
#32=LINE('',#1270,#116);
#33=LINE('',#1272,#117);
#34=LINE('',#1274,#118);
#35=LINE('',#1277,#119);
#36=LINE('',#1279,#120);
#37=LINE('',#1281,#121);
#38=LINE('',#1283,#122);
#39=LINE('',#1285,#123);
#40=LINE('',#1287,#124);
#41=LINE('',#1289,#125);
#42=LINE('',#1291,#126);
#43=LINE('',#1294,#127);
#44=LINE('',#1296,#128);
#45=LINE('',#1298,#129);
#46=LINE('',#1299,#130);
#47=LINE('',#1302,#131);
#48=LINE('',#1304,#132);
#49=LINE('',#1306,#133);
#50=LINE('',#1307,#134);
#51=LINE('',#1310,#135);
#52=LINE('',#1312,#136);
#53=LINE('',#1314,#137);
#54=LINE('',#1316,#138);
#55=LINE('',#1318,#139);
#56=LINE('',#1320,#140);
#57=LINE('',#1322,#141);
#58=LINE('',#1326,#142);
#59=LINE('',#1328,#143);
#60=LINE('',#1330,#144);
#61=LINE('',#1331,#145);
#62=LINE('',#1332,#146);
#63=LINE('',#1334,#147);
#64=LINE('',#1337,#148);
#65=LINE('',#1339,#149);
#66=LINE('',#1341,#150);
#67=LINE('',#1343,#151);
#68=LINE('',#1345,#152);
#69=LINE('',#1347,#153);
#70=LINE('',#1349,#154);
#71=LINE('',#1351,#155);
#72=LINE('',#1353,#156);
#73=LINE('',#1354,#157);
#74=LINE('',#1364,#158);
#75=LINE('',#1366,#159);
#76=LINE('',#1368,#160);
#77=LINE('',#1369,#161);
#78=LINE('',#1370,#162);
#79=LINE('',#1371,#163);
#80=LINE('',#1372,#164);
#81=LINE('',#1426,#165);
#82=LINE('',#1428,#166);
#83=LINE('',#1430,#167);
#84=LINE('',#1432,#168);
#85=LINE('',#1434,#169);
#86=LINE('',#1436,#170);
#87=LINE('',#1438,#171);
#88=LINE('',#1440,#172);
#89=LINE('',#1442,#173);
#90=LINE('',#1445,#174);
#91=LINE('',#1448,#175);
#92=LINE('',#1451,#176);
#93=LINE('',#1454,#177);
#94=LINE('',#1461,#178);
#95=LINE('',#1463,#179);
#96=LINE('',#1465,#180);
#97=LINE('',#1467,#181);
#98=LINE('',#1469,#182);
#99=LINE('',#1471,#183);
#100=LINE('',#1473,#184);
#101=LINE('',#1475,#185);
#102=LINE('',#1478,#186);
#103=LINE('',#1480,#187);
#104=LINE('',#1482,#188);
#105=LINE('',#1484,#189);
#106=LINE('',#1486,#190);
#107=LINE('',#1488,#191);
#108=LINE('',#1490,#192);
#109=LINE('',#1492,#193);
#110=VECTOR('',#1013,1.);
#111=VECTOR('',#1014,1.);
#112=VECTOR('',#1015,1.);
#113=VECTOR('',#1016,1.);
#114=VECTOR('',#1017,1.);
#115=VECTOR('',#1018,1.);
#116=VECTOR('',#1019,1.);
#117=VECTOR('',#1020,1.);
#118=VECTOR('',#1023,1.);
#119=VECTOR('',#1024,1.);
#120=VECTOR('',#1025,1.);
#121=VECTOR('',#1026,1.);
#122=VECTOR('',#1027,1.);
#123=VECTOR('',#1028,1.);
#124=VECTOR('',#1029,1.);
#125=VECTOR('',#1030,1.);
#126=VECTOR('',#1033,1.);
#127=VECTOR('',#1034,1.);
#128=VECTOR('',#1035,1.);
#129=VECTOR('',#1036,1.);
#130=VECTOR('',#1037,1.);
#131=VECTOR('',#1038,1.);
#132=VECTOR('',#1039,1.);
#133=VECTOR('',#1040,1.);
#134=VECTOR('',#1041,1.);
#135=VECTOR('',#1042,1.);
#136=VECTOR('',#1043,1.);
#137=VECTOR('',#1044,1.);
#138=VECTOR('',#1045,1.);
#139=VECTOR('',#1046,1.);
#140=VECTOR('',#1047,1.);
#141=VECTOR('',#1048,1.);
#142=VECTOR('',#1053,1.);
#143=VECTOR('',#1054,1.);
#144=VECTOR('',#1055,1.);
#145=VECTOR('',#1056,1.);
#146=VECTOR('',#1057,1.);
#147=VECTOR('',#1060,1.);
#148=VECTOR('',#1061,1.);
#149=VECTOR('',#1062,1.);
#150=VECTOR('',#1063,1.);
#151=VECTOR('',#1064,1.);
#152=VECTOR('',#1065,1.);
#153=VECTOR('',#1066,1.);
#154=VECTOR('',#1067,1.);
#155=VECTOR('',#1068,1.);
#156=VECTOR('',#1069,1.);
#157=VECTOR('',#1070,1.);
#158=VECTOR('',#1081,1.);
#159=VECTOR('',#1082,1.);
#160=VECTOR('',#1083,1.);
#161=VECTOR('',#1084,1.);
#162=VECTOR('',#1085,1.);
#163=VECTOR('',#1086,1.);
#164=VECTOR('',#1087,1.);
#165=VECTOR('',#1114,1.);
#166=VECTOR('',#1117,1.);
#167=VECTOR('',#1120,1.);
#168=VECTOR('',#1123,1.);
#169=VECTOR('',#1126,1.);
#170=VECTOR('',#1127,1.);
#171=VECTOR('',#1130,1.);
#172=VECTOR('',#1131,1.);
#173=VECTOR('',#1134,1.);
#174=VECTOR('',#1139,1.);
#175=VECTOR('',#1144,1.);
#176=VECTOR('',#1149,1.);
#177=VECTOR('',#1154,1.);
#178=VECTOR('',#1165,1.);
#179=VECTOR('',#1166,1.);
#180=VECTOR('',#1167,1.);
#181=VECTOR('',#1170,1.);
#182=VECTOR('',#1171,1.);
#183=VECTOR('',#1174,1.);
#184=VECTOR('',#1175,1.);
#185=VECTOR('',#1178,1.);
#186=VECTOR('',#1183,1.);
#187=VECTOR('',#1184,1.);
#188=VECTOR('',#1185,1.);
#189=VECTOR('',#1188,1.);
#190=VECTOR('',#1189,1.);
#191=VECTOR('',#1192,1.);
#192=VECTOR('',#1193,1.);
#193=VECTOR('',#1196,1.);
#194=ORIENTED_EDGE('',*,*,#414,.F.);
#195=ORIENTED_EDGE('',*,*,#415,.F.);
#196=ORIENTED_EDGE('',*,*,#416,.F.);
#197=ORIENTED_EDGE('',*,*,#417,.F.);
#198=ORIENTED_EDGE('',*,*,#418,.F.);
#199=ORIENTED_EDGE('',*,*,#419,.F.);
#200=ORIENTED_EDGE('',*,*,#420,.F.);
#201=ORIENTED_EDGE('',*,*,#421,.F.);
#202=ORIENTED_EDGE('',*,*,#422,.T.);
#203=ORIENTED_EDGE('',*,*,#423,.F.);
#204=ORIENTED_EDGE('',*,*,#424,.F.);
#205=ORIENTED_EDGE('',*,*,#425,.F.);
#206=ORIENTED_EDGE('',*,*,#426,.T.);
#207=ORIENTED_EDGE('',*,*,#427,.T.);
#208=ORIENTED_EDGE('',*,*,#428,.T.);
#209=ORIENTED_EDGE('',*,*,#429,.F.);
#210=ORIENTED_EDGE('',*,*,#430,.T.);
#211=ORIENTED_EDGE('',*,*,#431,.T.);
#212=ORIENTED_EDGE('',*,*,#432,.F.);
#213=ORIENTED_EDGE('',*,*,#433,.T.);
#214=ORIENTED_EDGE('',*,*,#434,.T.);
#215=ORIENTED_EDGE('',*,*,#435,.T.);
#216=ORIENTED_EDGE('',*,*,#436,.T.);
#217=ORIENTED_EDGE('',*,*,#437,.F.);
#218=ORIENTED_EDGE('',*,*,#438,.F.);
#219=ORIENTED_EDGE('',*,*,#439,.T.);
#220=ORIENTED_EDGE('',*,*,#440,.T.);
#221=ORIENTED_EDGE('',*,*,#441,.F.);
#222=ORIENTED_EDGE('',*,*,#442,.F.);
#223=ORIENTED_EDGE('',*,*,#443,.T.);
#224=ORIENTED_EDGE('',*,*,#444,.T.);
#225=ORIENTED_EDGE('',*,*,#445,.T.);
#226=ORIENTED_EDGE('',*,*,#446,.T.);
#227=ORIENTED_EDGE('',*,*,#447,.T.);
#228=ORIENTED_EDGE('',*,*,#448,.F.);
#229=ORIENTED_EDGE('',*,*,#449,.T.);
#230=ORIENTED_EDGE('',*,*,#450,.T.);
#231=ORIENTED_EDGE('',*,*,#451,.F.);
#232=ORIENTED_EDGE('',*,*,#452,.T.);
#233=ORIENTED_EDGE('',*,*,#453,.F.);
#234=ORIENTED_EDGE('',*,*,#454,.F.);
#235=ORIENTED_EDGE('',*,*,#455,.T.);
#236=ORIENTED_EDGE('',*,*,#456,.T.);
#237=ORIENTED_EDGE('',*,*,#423,.T.);
#238=ORIENTED_EDGE('',*,*,#457,.F.);
#239=ORIENTED_EDGE('',*,*,#436,.F.);
#240=ORIENTED_EDGE('',*,*,#458,.T.);
#241=ORIENTED_EDGE('',*,*,#447,.F.);
#242=ORIENTED_EDGE('',*,*,#459,.F.);
#243=ORIENTED_EDGE('',*,*,#460,.T.);
#244=ORIENTED_EDGE('',*,*,#461,.T.);
#245=ORIENTED_EDGE('',*,*,#462,.T.);
#246=ORIENTED_EDGE('',*,*,#463,.T.);
#247=ORIENTED_EDGE('',*,*,#464,.F.);
#248=ORIENTED_EDGE('',*,*,#465,.T.);
#249=ORIENTED_EDGE('',*,*,#466,.T.);
#250=ORIENTED_EDGE('',*,*,#467,.F.);
#251=ORIENTED_EDGE('',*,*,#468,.T.);
#252=ORIENTED_EDGE('',*,*,#455,.F.);
#253=ORIENTED_EDGE('',*,*,#469,.F.);
#254=ORIENTED_EDGE('',*,*,#470,.F.);
#255=ORIENTED_EDGE('',*,*,#471,.F.);
#256=ORIENTED_EDGE('',*,*,#472,.F.);
#257=ORIENTED_EDGE('',*,*,#473,.F.);
#258=ORIENTED_EDGE('',*,*,#474,.F.);
#259=ORIENTED_EDGE('',*,*,#475,.F.);
#260=ORIENTED_EDGE('',*,*,#476,.T.);
#261=ORIENTED_EDGE('',*,*,#461,.F.);
#262=ORIENTED_EDGE('',*,*,#477,.T.);
#263=ORIENTED_EDGE('',*,*,#451,.T.);
#264=ORIENTED_EDGE('',*,*,#478,.T.);
#265=ORIENTED_EDGE('',*,*,#432,.T.);
#266=ORIENTED_EDGE('',*,*,#479,.T.);
#267=ORIENTED_EDGE('',*,*,#427,.F.);
#268=ORIENTED_EDGE('',*,*,#480,.T.);
#269=ORIENTED_EDGE('',*,*,#465,.F.);
#270=ORIENTED_EDGE('',*,*,#470,.T.);
#271=ORIENTED_EDGE('',*,*,#481,.F.);
#272=ORIENTED_EDGE('',*,*,#481,.T.);
#273=ORIENTED_EDGE('',*,*,#471,.T.);
#274=ORIENTED_EDGE('',*,*,#482,.F.);
#275=ORIENTED_EDGE('',*,*,#482,.T.);
#276=ORIENTED_EDGE('',*,*,#472,.T.);
#277=ORIENTED_EDGE('',*,*,#483,.F.);
#278=ORIENTED_EDGE('',*,*,#483,.T.);
#279=ORIENTED_EDGE('',*,*,#484,.T.);
#280=ORIENTED_EDGE('',*,*,#485,.T.);
#281=ORIENTED_EDGE('',*,*,#473,.T.);
#282=ORIENTED_EDGE('',*,*,#486,.F.);
#283=ORIENTED_EDGE('',*,*,#486,.T.);
#284=ORIENTED_EDGE('',*,*,#487,.F.);
#285=ORIENTED_EDGE('',*,*,#428,.F.);
#286=ORIENTED_EDGE('',*,*,#479,.F.);
#287=ORIENTED_EDGE('',*,*,#431,.F.);
#288=ORIENTED_EDGE('',*,*,#488,.F.);
#289=ORIENTED_EDGE('',*,*,#466,.F.);
#290=ORIENTED_EDGE('',*,*,#480,.F.);
#291=ORIENTED_EDGE('',*,*,#426,.F.);
#292=ORIENTED_EDGE('',*,*,#489,.F.);
#293=ORIENTED_EDGE('',*,*,#433,.F.);
#294=ORIENTED_EDGE('',*,*,#478,.F.);
#295=ORIENTED_EDGE('',*,*,#450,.F.);
#296=ORIENTED_EDGE('',*,*,#490,.F.);
#297=ORIENTED_EDGE('',*,*,#452,.F.);
#298=ORIENTED_EDGE('',*,*,#477,.F.);
#299=ORIENTED_EDGE('',*,*,#460,.F.);
#300=ORIENTED_EDGE('',*,*,#474,.T.);
#301=ORIENTED_EDGE('',*,*,#464,.T.);
#302=ORIENTED_EDGE('',*,*,#491,.F.);
#303=ORIENTED_EDGE('',*,*,#492,.F.);
#304=ORIENTED_EDGE('',*,*,#491,.T.);
#305=ORIENTED_EDGE('',*,*,#463,.F.);
#306=ORIENTED_EDGE('',*,*,#493,.F.);
#307=ORIENTED_EDGE('',*,*,#494,.T.);
#308=ORIENTED_EDGE('',*,*,#493,.T.);
#309=ORIENTED_EDGE('',*,*,#462,.F.);
#310=ORIENTED_EDGE('',*,*,#476,.F.);
#311=ORIENTED_EDGE('',*,*,#495,.T.);
#312=ORIENTED_EDGE('',*,*,#495,.F.);
#313=ORIENTED_EDGE('',*,*,#475,.T.);
#314=ORIENTED_EDGE('',*,*,#492,.T.);
#315=ORIENTED_EDGE('',*,*,#494,.F.);
#316=ORIENTED_EDGE('',*,*,#496,.F.);
#317=ORIENTED_EDGE('',*,*,#469,.T.);
#318=ORIENTED_EDGE('',*,*,#454,.T.);
#319=ORIENTED_EDGE('',*,*,#446,.F.);
#320=ORIENTED_EDGE('',*,*,#459,.T.);
#321=ORIENTED_EDGE('',*,*,#496,.T.);
#322=ORIENTED_EDGE('',*,*,#445,.F.);
#323=ORIENTED_EDGE('',*,*,#490,.T.);
#324=ORIENTED_EDGE('',*,*,#448,.T.);
#325=ORIENTED_EDGE('',*,*,#458,.F.);
#326=ORIENTED_EDGE('',*,*,#435,.F.);
#327=ORIENTED_EDGE('',*,*,#497,.T.);
#328=ORIENTED_EDGE('',*,*,#497,.F.);
#329=ORIENTED_EDGE('',*,*,#434,.F.);
#330=ORIENTED_EDGE('',*,*,#489,.T.);
#331=ORIENTED_EDGE('',*,*,#449,.F.);
#332=ORIENTED_EDGE('',*,*,#424,.T.);
#333=ORIENTED_EDGE('',*,*,#456,.F.);
#334=ORIENTED_EDGE('',*,*,#468,.F.);
#335=ORIENTED_EDGE('',*,*,#498,.T.);
#336=ORIENTED_EDGE('',*,*,#498,.F.);
#337=ORIENTED_EDGE('',*,*,#467,.T.);
#338=ORIENTED_EDGE('',*,*,#488,.T.);
#339=ORIENTED_EDGE('',*,*,#425,.T.);
#340=ORIENTED_EDGE('',*,*,#499,.F.);
#341=ORIENTED_EDGE('',*,*,#429,.T.);
#342=ORIENTED_EDGE('',*,*,#457,.T.);
#343=ORIENTED_EDGE('',*,*,#422,.F.);
#344=ORIENTED_EDGE('',*,*,#430,.F.);
#345=ORIENTED_EDGE('',*,*,#499,.T.);
#346=ORIENTED_EDGE('',*,*,#421,.T.);
#347=ORIENTED_EDGE('',*,*,#487,.T.);
#348=ORIENTED_EDGE('',*,*,#453,.T.);
#349=ORIENTED_EDGE('',*,*,#500,.F.);
#350=ORIENTED_EDGE('',*,*,#500,.T.);
#351=ORIENTED_EDGE('',*,*,#501,.T.);
#352=ORIENTED_EDGE('',*,*,#441,.T.);
#353=ORIENTED_EDGE('',*,*,#502,.F.);
#354=ORIENTED_EDGE('',*,*,#503,.F.);
#355=ORIENTED_EDGE('',*,*,#502,.T.);
#356=ORIENTED_EDGE('',*,*,#444,.F.);
#357=ORIENTED_EDGE('',*,*,#504,.F.);
#358=ORIENTED_EDGE('',*,*,#505,.T.);
#359=ORIENTED_EDGE('',*,*,#504,.T.);
#360=ORIENTED_EDGE('',*,*,#443,.F.);
#361=ORIENTED_EDGE('',*,*,#506,.F.);
#362=ORIENTED_EDGE('',*,*,#507,.T.);
#363=ORIENTED_EDGE('',*,*,#508,.F.);
#364=ORIENTED_EDGE('',*,*,#506,.T.);
#365=ORIENTED_EDGE('',*,*,#442,.T.);
#366=ORIENTED_EDGE('',*,*,#501,.F.);
#367=ORIENTED_EDGE('',*,*,#507,.F.);
#368=ORIENTED_EDGE('',*,*,#508,.T.);
#369=ORIENTED_EDGE('',*,*,#503,.T.);
#370=ORIENTED_EDGE('',*,*,#505,.F.);
#371=ORIENTED_EDGE('',*,*,#509,.T.);
#372=ORIENTED_EDGE('',*,*,#437,.T.);
#373=ORIENTED_EDGE('',*,*,#510,.F.);
#374=ORIENTED_EDGE('',*,*,#511,.F.);
#375=ORIENTED_EDGE('',*,*,#510,.T.);
#376=ORIENTED_EDGE('',*,*,#440,.F.);
#377=ORIENTED_EDGE('',*,*,#512,.F.);
#378=ORIENTED_EDGE('',*,*,#513,.T.);
#379=ORIENTED_EDGE('',*,*,#512,.T.);
#380=ORIENTED_EDGE('',*,*,#439,.F.);
#381=ORIENTED_EDGE('',*,*,#514,.F.);
#382=ORIENTED_EDGE('',*,*,#515,.T.);
#383=ORIENTED_EDGE('',*,*,#516,.F.);
#384=ORIENTED_EDGE('',*,*,#514,.T.);
#385=ORIENTED_EDGE('',*,*,#438,.T.);
#386=ORIENTED_EDGE('',*,*,#509,.F.);
#387=ORIENTED_EDGE('',*,*,#515,.F.);
#388=ORIENTED_EDGE('',*,*,#516,.T.);
#389=ORIENTED_EDGE('',*,*,#511,.T.);
#390=ORIENTED_EDGE('',*,*,#513,.F.);
#391=ORIENTED_EDGE('',*,*,#517,.F.);
#392=ORIENTED_EDGE('',*,*,#420,.T.);
#393=ORIENTED_EDGE('',*,*,#485,.F.);
#394=ORIENTED_EDGE('',*,*,#517,.T.);
#395=ORIENTED_EDGE('',*,*,#518,.F.);
#396=ORIENTED_EDGE('',*,*,#419,.T.);
#397=ORIENTED_EDGE('',*,*,#484,.F.);
#398=ORIENTED_EDGE('',*,*,#518,.T.);
#399=ORIENTED_EDGE('',*,*,#418,.T.);
#400=ORIENTED_EDGE('',*,*,#519,.F.);
#401=ORIENTED_EDGE('',*,*,#519,.T.);
#402=ORIENTED_EDGE('',*,*,#417,.T.);
#403=ORIENTED_EDGE('',*,*,#520,.F.);
#404=ORIENTED_EDGE('',*,*,#520,.T.);
#405=ORIENTED_EDGE('',*,*,#416,.T.);
#406=ORIENTED_EDGE('',*,*,#521,.F.);
#407=ORIENTED_EDGE('',*,*,#521,.T.);
#408=ORIENTED_EDGE('',*,*,#415,.T.);
#409=ORIENTED_EDGE('',*,*,#522,.F.);
#410=ORIENTED_EDGE('',*,*,#522,.T.);
#411=ORIENTED_EDGE('',*,*,#414,.T.);
#412=ORIENTED_EDGE('',*,*,#523,.F.);
#413=ORIENTED_EDGE('',*,*,#523,.T.);
#414=EDGE_CURVE('',#524,#524,#606,.T.);
#415=EDGE_CURVE('',#525,#525,#607,.T.);
#416=EDGE_CURVE('',#526,#526,#608,.T.);
#417=EDGE_CURVE('',#527,#527,#609,.T.);
#418=EDGE_CURVE('',#528,#528,#610,.T.);
#419=EDGE_CURVE('',#529,#529,#611,.T.);
#420=EDGE_CURVE('',#530,#530,#612,.T.);
#421=EDGE_CURVE('',#531,#532,#26,.T.);
#422=EDGE_CURVE('',#531,#533,#27,.T.);
#423=EDGE_CURVE('',#534,#533,#28,.T.);
#424=EDGE_CURVE('',#535,#534,#29,.T.);
#425=EDGE_CURVE('',#536,#535,#30,.T.);
#426=EDGE_CURVE('',#536,#537,#31,.T.);
#427=EDGE_CURVE('',#537,#538,#32,.T.);
#428=EDGE_CURVE('',#538,#532,#33,.T.);
#429=EDGE_CURVE('',#539,#540,#34,.T.);
#430=EDGE_CURVE('',#539,#541,#35,.F.);
#431=EDGE_CURVE('',#541,#542,#36,.F.);
#432=EDGE_CURVE('',#543,#542,#37,.T.);
#433=EDGE_CURVE('',#543,#544,#38,.F.);
#434=EDGE_CURVE('',#544,#545,#39,.F.);
#435=EDGE_CURVE('',#545,#546,#40,.T.);
#436=EDGE_CURVE('',#546,#540,#41,.F.);
#437=EDGE_CURVE('',#547,#548,#42,.T.);
#438=EDGE_CURVE('',#549,#547,#43,.T.);
#439=EDGE_CURVE('',#549,#550,#44,.T.);
#440=EDGE_CURVE('',#550,#548,#45,.T.);
#441=EDGE_CURVE('',#551,#552,#46,.T.);
#442=EDGE_CURVE('',#553,#551,#47,.T.);
#443=EDGE_CURVE('',#553,#554,#48,.T.);
#444=EDGE_CURVE('',#554,#552,#49,.T.);
#445=EDGE_CURVE('',#555,#556,#50,.T.);
#446=EDGE_CURVE('',#556,#557,#51,.T.);
#447=EDGE_CURVE('',#557,#558,#52,.T.);
#448=EDGE_CURVE('',#559,#558,#53,.T.);
#449=EDGE_CURVE('',#559,#560,#54,.T.);
#450=EDGE_CURVE('',#560,#561,#55,.F.);
#451=EDGE_CURVE('',#562,#561,#56,.T.);
#452=EDGE_CURVE('',#562,#555,#57,.F.);
#453=EDGE_CURVE('',#563,#563,#613,.T.);
#454=EDGE_CURVE('',#564,#557,#58,.T.);
#455=EDGE_CURVE('',#564,#565,#59,.F.);
#456=EDGE_CURVE('',#565,#534,#60,.T.);
#457=EDGE_CURVE('',#540,#533,#61,.T.);
#458=EDGE_CURVE('',#546,#558,#62,.T.);
#459=EDGE_CURVE('',#566,#567,#63,.F.);
#460=EDGE_CURVE('',#566,#568,#64,.T.);
#461=EDGE_CURVE('',#568,#569,#65,.T.);
#462=EDGE_CURVE('',#569,#570,#66,.T.);
#463=EDGE_CURVE('',#570,#571,#67,.T.);
#464=EDGE_CURVE('',#572,#571,#68,.T.);
#465=EDGE_CURVE('',#572,#573,#69,.T.);
#466=EDGE_CURVE('',#573,#574,#70,.T.);
#467=EDGE_CURVE('',#575,#574,#71,.F.);
#468=EDGE_CURVE('',#575,#565,#72,.T.);
#469=EDGE_CURVE('',#567,#564,#73,.T.);
#470=EDGE_CURVE('',#576,#576,#614,.T.);
#471=EDGE_CURVE('',#577,#577,#615,.T.);
#472=EDGE_CURVE('',#578,#578,#616,.T.);
#473=EDGE_CURVE('',#579,#579,#617,.T.);
#474=EDGE_CURVE('',#580,#572,#74,.T.);
#475=EDGE_CURVE('',#581,#580,#75,.T.);
#476=EDGE_CURVE('',#581,#569,#76,.T.);
#477=EDGE_CURVE('',#568,#562,#77,.T.);
#478=EDGE_CURVE('',#561,#543,#78,.F.);
#479=EDGE_CURVE('',#542,#538,#79,.T.);
#480=EDGE_CURVE('',#537,#573,#80,.F.);
#481=EDGE_CURVE('',#582,#582,#618,.T.);
#482=EDGE_CURVE('',#583,#583,#619,.T.);
#483=EDGE_CURVE('',#584,#584,#620,.T.);
#484=EDGE_CURVE('',#585,#585,#12,.T.);
#485=EDGE_CURVE('',#586,#586,#13,.T.);
#486=EDGE_CURVE('',#587,#587,#621,.T.);
#487=EDGE_CURVE('',#532,#541,#81,.T.);
#488=EDGE_CURVE('',#574,#536,#82,.F.);
#489=EDGE_CURVE('',#544,#560,#83,.F.);
#490=EDGE_CURVE('',#555,#566,#84,.T.);
#491=EDGE_CURVE('',#588,#571,#85,.T.);
#492=EDGE_CURVE('',#580,#588,#86,.T.);
#493=EDGE_CURVE('',#589,#570,#87,.T.);
#494=EDGE_CURVE('',#589,#588,#88,.T.);
#495=EDGE_CURVE('',#581,#589,#89,.T.);
#496=EDGE_CURVE('',#567,#556,#90,.T.);
#497=EDGE_CURVE('',#545,#559,#91,.T.);
#498=EDGE_CURVE('',#575,#535,#92,.T.);
#499=EDGE_CURVE('',#539,#531,#93,.T.);
#500=EDGE_CURVE('',#590,#590,#622,.T.);
#501=EDGE_CURVE('',#591,#551,#94,.T.);
#502=EDGE_CURVE('',#592,#552,#95,.T.);
#503=EDGE_CURVE('',#591,#592,#96,.T.);
#504=EDGE_CURVE('',#593,#554,#97,.T.);
#505=EDGE_CURVE('',#593,#592,#98,.F.);
#506=EDGE_CURVE('',#594,#553,#99,.T.);
#507=EDGE_CURVE('',#594,#593,#100,.T.);
#508=EDGE_CURVE('',#594,#591,#101,.F.);
#509=EDGE_CURVE('',#595,#547,#102,.T.);
#510=EDGE_CURVE('',#596,#548,#103,.T.);
#511=EDGE_CURVE('',#595,#596,#104,.T.);
#512=EDGE_CURVE('',#597,#550,#105,.T.);
#513=EDGE_CURVE('',#597,#596,#106,.F.);
#514=EDGE_CURVE('',#598,#549,#107,.T.);
#515=EDGE_CURVE('',#598,#597,#108,.T.);
#516=EDGE_CURVE('',#598,#595,#109,.F.);
#517=EDGE_CURVE('',#599,#599,#623,.T.);
#518=EDGE_CURVE('',#600,#600,#624,.T.);
#519=EDGE_CURVE('',#601,#601,#625,.T.);
#520=EDGE_CURVE('',#602,#602,#626,.T.);
#521=EDGE_CURVE('',#603,#603,#627,.T.);
#522=EDGE_CURVE('',#604,#604,#628,.T.);
#523=EDGE_CURVE('',#605,#605,#629,.T.);
#524=VERTEX_POINT('',#1244);
#525=VERTEX_POINT('',#1246);
#526=VERTEX_POINT('',#1248);
#527=VERTEX_POINT('',#1250);
#528=VERTEX_POINT('',#1252);
#529=VERTEX_POINT('',#1254);
#530=VERTEX_POINT('',#1256);
#531=VERTEX_POINT('',#1258);
#532=VERTEX_POINT('',#1259);
#533=VERTEX_POINT('',#1261);
#534=VERTEX_POINT('',#1263);
#535=VERTEX_POINT('',#1265);
#536=VERTEX_POINT('',#1267);
#537=VERTEX_POINT('',#1269);
#538=VERTEX_POINT('',#1271);
#539=VERTEX_POINT('',#1275);
#540=VERTEX_POINT('',#1276);
#541=VERTEX_POINT('',#1278);
#542=VERTEX_POINT('',#1280);
#543=VERTEX_POINT('',#1282);
#544=VERTEX_POINT('',#1284);
#545=VERTEX_POINT('',#1286);
#546=VERTEX_POINT('',#1288);
#547=VERTEX_POINT('',#1292);
#548=VERTEX_POINT('',#1293);
#549=VERTEX_POINT('',#1295);
#550=VERTEX_POINT('',#1297);
#551=VERTEX_POINT('',#1300);
#552=VERTEX_POINT('',#1301);
#553=VERTEX_POINT('',#1303);
#554=VERTEX_POINT('',#1305);
#555=VERTEX_POINT('',#1308);
#556=VERTEX_POINT('',#1309);
#557=VERTEX_POINT('',#1311);
#558=VERTEX_POINT('',#1313);
#559=VERTEX_POINT('',#1315);
#560=VERTEX_POINT('',#1317);
#561=VERTEX_POINT('',#1319);
#562=VERTEX_POINT('',#1321);
#563=VERTEX_POINT('',#1325);
#564=VERTEX_POINT('',#1327);
#565=VERTEX_POINT('',#1329);
#566=VERTEX_POINT('',#1335);
#567=VERTEX_POINT('',#1336);
#568=VERTEX_POINT('',#1338);
#569=VERTEX_POINT('',#1340);
#570=VERTEX_POINT('',#1342);
#571=VERTEX_POINT('',#1344);
#572=VERTEX_POINT('',#1346);
#573=VERTEX_POINT('',#1348);
#574=VERTEX_POINT('',#1350);
#575=VERTEX_POINT('',#1352);
#576=VERTEX_POINT('',#1357);
#577=VERTEX_POINT('',#1359);
#578=VERTEX_POINT('',#1361);
#579=VERTEX_POINT('',#1363);
#580=VERTEX_POINT('',#1365);
#581=VERTEX_POINT('',#1367);
#582=VERTEX_POINT('',#1375);
#583=VERTEX_POINT('',#1379);
#584=VERTEX_POINT('',#1383);
#585=VERTEX_POINT('',#1401);
#586=VERTEX_POINT('',#1421);
#587=VERTEX_POINT('',#1423);
#588=VERTEX_POINT('',#1435);
#589=VERTEX_POINT('',#1439);
#590=VERTEX_POINT('',#1458);
#591=VERTEX_POINT('',#1462);
#592=VERTEX_POINT('',#1464);
#593=VERTEX_POINT('',#1468);
#594=VERTEX_POINT('',#1472);
#595=VERTEX_POINT('',#1479);
#596=VERTEX_POINT('',#1481);
#597=VERTEX_POINT('',#1485);
#598=VERTEX_POINT('',#1489);
#599=VERTEX_POINT('',#1496);
#600=VERTEX_POINT('',#1500);
#601=VERTEX_POINT('',#1504);
#602=VERTEX_POINT('',#1508);
#603=VERTEX_POINT('',#1512);
#604=VERTEX_POINT('',#1516);
#605=VERTEX_POINT('',#1520);
#606=CIRCLE('',#916,0.0005);
#607=CIRCLE('',#917,0.0005);
#608=CIRCLE('',#918,0.0005);
#609=CIRCLE('',#919,0.0005);
#610=CIRCLE('',#920,0.0005);
#611=CIRCLE('',#921,0.0005);
#612=CIRCLE('',#922,0.0005);
#613=CIRCLE('',#926,0.00653527239710093);
#614=CIRCLE('',#929,0.0008);
#615=CIRCLE('',#930,0.0008);
#616=CIRCLE('',#931,0.0008);
#617=CIRCLE('',#932,0.0008);
#618=CIRCLE('',#934,0.0008);
#619=CIRCLE('',#937,0.0008);
#620=CIRCLE('',#940,0.0008);
#621=CIRCLE('',#943,0.0008);
#622=CIRCLE('',#962,0.00653527239710093);
#623=CIRCLE('',#975,0.0005);
#624=CIRCLE('',#978,0.0005);
#625=CIRCLE('',#981,0.0005);
#626=CIRCLE('',#984,0.0005);
#627=CIRCLE('',#987,0.0005);
#628=CIRCLE('',#990,0.0005);
#629=CIRCLE('',#993,0.0005);
#630=EDGE_LOOP('',(#194));
#631=EDGE_LOOP('',(#195));
#632=EDGE_LOOP('',(#196));
#633=EDGE_LOOP('',(#197));
#634=EDGE_LOOP('',(#198));
#635=EDGE_LOOP('',(#199));
#636=EDGE_LOOP('',(#200));
#637=EDGE_LOOP('',(#201,#202,#203,#204,#205,#206,#207,#208));
#638=EDGE_LOOP('',(#209,#210,#211,#212,#213,#214,#215,#216));
#639=EDGE_LOOP('',(#217,#218,#219,#220));
#640=EDGE_LOOP('',(#221,#222,#223,#224));
#641=EDGE_LOOP('',(#225,#226,#227,#228,#229,#230,#231,#232));
#642=EDGE_LOOP('',(#233));
#643=EDGE_LOOP('',(#234,#235,#236,#237,#238,#239,#240,#241));
#644=EDGE_LOOP('',(#242,#243,#244,#245,#246,#247,#248,#249,#250,#251,#252,
#253));
#645=EDGE_LOOP('',(#254));
#646=EDGE_LOOP('',(#255));
#647=EDGE_LOOP('',(#256));
#648=EDGE_LOOP('',(#257));
#649=EDGE_LOOP('',(#258,#259,#260,#261,#262,#263,#264,#265,#266,#267,#268,
#269));
#650=EDGE_LOOP('',(#270));
#651=EDGE_LOOP('',(#271));
#652=EDGE_LOOP('',(#272));
#653=EDGE_LOOP('',(#273));
#654=EDGE_LOOP('',(#274));
#655=EDGE_LOOP('',(#275));
#656=EDGE_LOOP('',(#276));
#657=EDGE_LOOP('',(#277));
#658=EDGE_LOOP('',(#278));
#659=EDGE_LOOP('',(#279));
#660=EDGE_LOOP('',(#280));
#661=EDGE_LOOP('',(#281));
#662=EDGE_LOOP('',(#282));
#663=EDGE_LOOP('',(#283));
#664=EDGE_LOOP('',(#284,#285,#286,#287));
#665=EDGE_LOOP('',(#288,#289,#290,#291));
#666=EDGE_LOOP('',(#292,#293,#294,#295));
#667=EDGE_LOOP('',(#296,#297,#298,#299));
#668=EDGE_LOOP('',(#300,#301,#302,#303));
#669=EDGE_LOOP('',(#304,#305,#306,#307));
#670=EDGE_LOOP('',(#308,#309,#310,#311));
#671=EDGE_LOOP('',(#312,#313,#314,#315));
#672=EDGE_LOOP('',(#316,#317,#318,#319));
#673=EDGE_LOOP('',(#320,#321,#322,#323));
#674=EDGE_LOOP('',(#324,#325,#326,#327));
#675=EDGE_LOOP('',(#328,#329,#330,#331));
#676=EDGE_LOOP('',(#332,#333,#334,#335));
#677=EDGE_LOOP('',(#336,#337,#338,#339));
#678=EDGE_LOOP('',(#340,#341,#342,#343));
#679=EDGE_LOOP('',(#344,#345,#346,#347));
#680=EDGE_LOOP('',(#348));
#681=EDGE_LOOP('',(#349));
#682=EDGE_LOOP('',(#350));
#683=EDGE_LOOP('',(#351,#352,#353,#354));
#684=EDGE_LOOP('',(#355,#356,#357,#358));
#685=EDGE_LOOP('',(#359,#360,#361,#362));
#686=EDGE_LOOP('',(#363,#364,#365,#366));
#687=EDGE_LOOP('',(#367,#368,#369,#370));
#688=EDGE_LOOP('',(#371,#372,#373,#374));
#689=EDGE_LOOP('',(#375,#376,#377,#378));
#690=EDGE_LOOP('',(#379,#380,#381,#382));
#691=EDGE_LOOP('',(#383,#384,#385,#386));
#692=EDGE_LOOP('',(#387,#388,#389,#390));
#693=EDGE_LOOP('',(#391));
#694=EDGE_LOOP('',(#392));
#695=EDGE_LOOP('',(#393));
#696=EDGE_LOOP('',(#394));
#697=EDGE_LOOP('',(#395));
#698=EDGE_LOOP('',(#396));
#699=EDGE_LOOP('',(#397));
#700=EDGE_LOOP('',(#398));
#701=EDGE_LOOP('',(#399));
#702=EDGE_LOOP('',(#400));
#703=EDGE_LOOP('',(#401));
#704=EDGE_LOOP('',(#402));
#705=EDGE_LOOP('',(#403));
#706=EDGE_LOOP('',(#404));
#707=EDGE_LOOP('',(#405));
#708=EDGE_LOOP('',(#406));
#709=EDGE_LOOP('',(#407));
#710=EDGE_LOOP('',(#408));
#711=EDGE_LOOP('',(#409));
#712=EDGE_LOOP('',(#410));
#713=EDGE_LOOP('',(#411));
#714=EDGE_LOOP('',(#412));
#715=EDGE_LOOP('',(#413));
#716=FACE_BOUND('',#630,.T.);
#717=FACE_BOUND('',#631,.T.);
#718=FACE_BOUND('',#632,.T.);
#719=FACE_BOUND('',#633,.T.);
#720=FACE_BOUND('',#634,.T.);
#721=FACE_BOUND('',#635,.T.);
#722=FACE_BOUND('',#636,.T.);
#723=FACE_BOUND('',#637,.T.);
#724=FACE_BOUND('',#638,.T.);
#725=FACE_BOUND('',#639,.T.);
#726=FACE_BOUND('',#640,.T.);
#727=FACE_BOUND('',#641,.T.);
#728=FACE_BOUND('',#642,.T.);
#729=FACE_BOUND('',#643,.T.);
#730=FACE_BOUND('',#644,.T.);
#731=FACE_BOUND('',#645,.T.);
#732=FACE_BOUND('',#646,.T.);
#733=FACE_BOUND('',#647,.T.);
#734=FACE_BOUND('',#648,.T.);
#735=FACE_BOUND('',#649,.T.);
#736=FACE_BOUND('',#650,.T.);
#737=FACE_BOUND('',#651,.T.);
#738=FACE_BOUND('',#652,.T.);
#739=FACE_BOUND('',#653,.T.);
#740=FACE_BOUND('',#654,.T.);
#741=FACE_BOUND('',#655,.T.);
#742=FACE_BOUND('',#656,.T.);
#743=FACE_BOUND('',#657,.T.);
#744=FACE_BOUND('',#658,.T.);
#745=FACE_BOUND('',#659,.T.);
#746=FACE_BOUND('',#660,.T.);
#747=FACE_BOUND('',#661,.T.);
#748=FACE_BOUND('',#662,.T.);
#749=FACE_BOUND('',#663,.T.);
#750=FACE_BOUND('',#664,.T.);
#751=FACE_BOUND('',#665,.T.);
#752=FACE_BOUND('',#666,.T.);
#753=FACE_BOUND('',#667,.T.);
#754=FACE_BOUND('',#668,.T.);
#755=FACE_BOUND('',#669,.T.);
#756=FACE_BOUND('',#670,.T.);
#757=FACE_BOUND('',#671,.T.);
#758=FACE_BOUND('',#672,.T.);
#759=FACE_BOUND('',#673,.T.);
#760=FACE_BOUND('',#674,.T.);
#761=FACE_BOUND('',#675,.T.);
#762=FACE_BOUND('',#676,.T.);
#763=FACE_BOUND('',#677,.T.);
#764=FACE_BOUND('',#678,.T.);
#765=FACE_BOUND('',#679,.T.);
#766=FACE_BOUND('',#680,.T.);
#767=FACE_BOUND('',#681,.T.);
#768=FACE_BOUND('',#682,.T.);
#769=FACE_BOUND('',#683,.T.);
#770=FACE_BOUND('',#684,.T.);
#771=FACE_BOUND('',#685,.T.);
#772=FACE_BOUND('',#686,.T.);
#773=FACE_BOUND('',#687,.T.);
#774=FACE_BOUND('',#688,.T.);
#775=FACE_BOUND('',#689,.T.);
#776=FACE_BOUND('',#690,.T.);
#777=FACE_BOUND('',#691,.T.);
#778=FACE_BOUND('',#692,.T.);
#779=FACE_BOUND('',#693,.T.);
#780=FACE_BOUND('',#694,.T.);
#781=FACE_BOUND('',#695,.T.);
#782=FACE_BOUND('',#696,.T.);
#783=FACE_BOUND('',#697,.T.);
#784=FACE_BOUND('',#698,.T.);
#785=FACE_BOUND('',#699,.T.);
#786=FACE_BOUND('',#700,.T.);
#787=FACE_BOUND('',#701,.T.);
#788=FACE_BOUND('',#702,.T.);
#789=FACE_BOUND('',#703,.T.);
#790=FACE_BOUND('',#704,.T.);
#791=FACE_BOUND('',#705,.T.);
#792=FACE_BOUND('',#706,.T.);
#793=FACE_BOUND('',#707,.T.);
#794=FACE_BOUND('',#708,.T.);
#795=FACE_BOUND('',#709,.T.);
#796=FACE_BOUND('',#710,.T.);
#797=FACE_BOUND('',#711,.T.);
#798=FACE_BOUND('',#712,.T.);
#799=FACE_BOUND('',#713,.T.);
#800=FACE_BOUND('',#714,.T.);
#801=FACE_BOUND('',#715,.T.);
#802=PLANE('',#915);
#803=PLANE('',#923);
#804=PLANE('',#924);
#805=PLANE('',#925);
#806=PLANE('',#927);
#807=PLANE('',#928);
#808=PLANE('',#935);
#809=PLANE('',#938);
#810=PLANE('',#941);
#811=PLANE('',#944);
#812=PLANE('',#945);
#813=PLANE('',#946);
#814=PLANE('',#947);
#815=PLANE('',#948);
#816=PLANE('',#949);
#817=PLANE('',#950);
#818=PLANE('',#951);
#819=PLANE('',#952);
#820=PLANE('',#953);
#821=PLANE('',#954);
#822=PLANE('',#955);
#823=PLANE('',#956);
#824=PLANE('',#957);
#825=PLANE('',#958);
#826=PLANE('',#959);
#827=PLANE('',#960);
#828=PLANE('',#963);
#829=PLANE('',#964);
#830=PLANE('',#965);
#831=PLANE('',#966);
#832=PLANE('',#967);
#833=PLANE('',#968);
#834=PLANE('',#969);
#835=PLANE('',#970);
#836=PLANE('',#971);
#837=PLANE('',#972);
#838=PLANE('',#973);
#839=PLANE('',#976);
#840=PLANE('',#979);
#841=PLANE('',#982);
#842=PLANE('',#985);
#843=PLANE('',#988);
#844=PLANE('',#991);
#845=PLANE('',#994);
#846=ADVANCED_FACE('',(#716,#717,#718,#719,#720,#721,#722,#723),#802,.T.);
#847=ADVANCED_FACE('',(#724),#803,.F.);
#848=ADVANCED_FACE('',(#725,#726,#727),#804,.F.);
#849=ADVANCED_FACE('',(#728,#729),#805,.T.);
#850=ADVANCED_FACE('',(#730),#806,.T.);
#851=ADVANCED_FACE('',(#731,#732,#733,#734,#735),#807,.F.);
#852=ADVANCED_FACE('',(#736,#737),#14,.F.);
#853=ADVANCED_FACE('',(#738),#808,.T.);
#854=ADVANCED_FACE('',(#739,#740),#15,.F.);
#855=ADVANCED_FACE('',(#741),#809,.T.);
#856=ADVANCED_FACE('',(#742,#743),#16,.F.);
#857=ADVANCED_FACE('',(#744),#810,.T.);
#858=ADVANCED_FACE('',(#745,#746,#747,#748),#17,.F.);
#859=ADVANCED_FACE('',(#749),#811,.T.);
#860=ADVANCED_FACE('',(#750),#812,.T.);
#861=ADVANCED_FACE('',(#751),#813,.F.);
#862=ADVANCED_FACE('',(#752),#814,.F.);
#863=ADVANCED_FACE('',(#753),#815,.T.);
#864=ADVANCED_FACE('',(#754),#816,.F.);
#865=ADVANCED_FACE('',(#755),#817,.T.);
#866=ADVANCED_FACE('',(#756),#818,.T.);
#867=ADVANCED_FACE('',(#757),#819,.T.);
#868=ADVANCED_FACE('',(#758),#820,.F.);
#869=ADVANCED_FACE('',(#759),#821,.T.);
#870=ADVANCED_FACE('',(#760),#822,.T.);
#871=ADVANCED_FACE('',(#761),#823,.T.);
#872=ADVANCED_FACE('',(#762),#824,.T.);
#873=ADVANCED_FACE('',(#763),#825,.T.);
#874=ADVANCED_FACE('',(#764),#826,.F.);
#875=ADVANCED_FACE('',(#765),#827,.T.);
#876=ADVANCED_FACE('',(#766,#767),#18,.F.);
#877=ADVANCED_FACE('',(#768),#828,.T.);
#878=ADVANCED_FACE('',(#769),#829,.F.);
#879=ADVANCED_FACE('',(#770),#830,.T.);
#880=ADVANCED_FACE('',(#771),#831,.T.);
#881=ADVANCED_FACE('',(#772),#832,.F.);
#882=ADVANCED_FACE('',(#773),#833,.T.);
#883=ADVANCED_FACE('',(#774),#834,.F.);
#884=ADVANCED_FACE('',(#775),#835,.T.);
#885=ADVANCED_FACE('',(#776),#836,.T.);
#886=ADVANCED_FACE('',(#777),#837,.F.);
#887=ADVANCED_FACE('',(#778),#838,.T.);
#888=ADVANCED_FACE('',(#779,#780,#781),#19,.F.);
#889=ADVANCED_FACE('',(#782),#839,.T.);
#890=ADVANCED_FACE('',(#783,#784,#785),#20,.F.);
#891=ADVANCED_FACE('',(#786),#840,.T.);
#892=ADVANCED_FACE('',(#787,#788),#21,.F.);
#893=ADVANCED_FACE('',(#789),#841,.T.);
#894=ADVANCED_FACE('',(#790,#791),#22,.F.);
#895=ADVANCED_FACE('',(#792),#842,.T.);
#896=ADVANCED_FACE('',(#793,#794),#23,.F.);
#897=ADVANCED_FACE('',(#795),#843,.T.);
#898=ADVANCED_FACE('',(#796,#797),#24,.F.);
#899=ADVANCED_FACE('',(#798),#844,.T.);
#900=ADVANCED_FACE('',(#799,#800),#25,.F.);
#901=ADVANCED_FACE('',(#801),#845,.T.);
#902=CLOSED_SHELL('',(#846,#847,#848,#849,#850,#851,#852,#853,#854,#855,
#856,#857,#858,#859,#860,#861,#862,#863,#864,#865,#866,#867,#868,#869,#870,
#871,#872,#873,#874,#875,#876,#877,#878,#879,#880,#881,#882,#883,#884,#885,
#886,#887,#888,#889,#890,#891,#892,#893,#894,#895,#896,#897,#898,#899,#900,
#901));
#903=STYLED_ITEM('',(#904),#911);
#904=PRESENTATION_STYLE_ASSIGNMENT((#905));
#905=SURFACE_STYLE_USAGE(.BOTH.,#906);
#906=SURFACE_SIDE_STYLE('',(#907));
#907=SURFACE_STYLE_FILL_AREA(#908);
#908=FILL_AREA_STYLE('',(#909));
#909=FILL_AREA_STYLE_COLOUR('',#910);
#910=COLOUR_RGB('',0.615686274509804,0.811764705882353,0.929411764705882);
#911=MANIFOLD_SOLID_BREP('Part 1',#902);
#912=SHAPE_DEFINITION_REPRESENTATION(#1528,#913);
#913=SHAPE_REPRESENTATION('Part 1',(#914),#1523);
#914=AXIS2_PLACEMENT_3D('',#1241,#995,#996);
#915=AXIS2_PLACEMENT_3D('',#1242,#997,#998);
#916=AXIS2_PLACEMENT_3D('',#1243,#999,#1000);
#917=AXIS2_PLACEMENT_3D('',#1245,#1001,#1002);
#918=AXIS2_PLACEMENT_3D('',#1247,#1003,#1004);
#919=AXIS2_PLACEMENT_3D('',#1249,#1005,#1006);
#920=AXIS2_PLACEMENT_3D('',#1251,#1007,#1008);
#921=AXIS2_PLACEMENT_3D('',#1253,#1009,#1010);
#922=AXIS2_PLACEMENT_3D('',#1255,#1011,#1012);
#923=AXIS2_PLACEMENT_3D('',#1273,#1021,#1022);
#924=AXIS2_PLACEMENT_3D('',#1290,#1031,#1032);
#925=AXIS2_PLACEMENT_3D('',#1323,#1049,#1050);
#926=AXIS2_PLACEMENT_3D('',#1324,#1051,#1052);
#927=AXIS2_PLACEMENT_3D('',#1333,#1058,#1059);
#928=AXIS2_PLACEMENT_3D('',#1355,#1071,#1072);
#929=AXIS2_PLACEMENT_3D('',#1356,#1073,#1074);
#930=AXIS2_PLACEMENT_3D('',#1358,#1075,#1076);
#931=AXIS2_PLACEMENT_3D('',#1360,#1077,#1078);
#932=AXIS2_PLACEMENT_3D('',#1362,#1079,#1080);
#933=AXIS2_PLACEMENT_3D('',#1373,#1088,#1089);
#934=AXIS2_PLACEMENT_3D('',#1374,#1090,#1091);
#935=AXIS2_PLACEMENT_3D('',#1376,#1092,#1093);
#936=AXIS2_PLACEMENT_3D('',#1377,#1094,#1095);
#937=AXIS2_PLACEMENT_3D('',#1378,#1096,#1097);
#938=AXIS2_PLACEMENT_3D('',#1380,#1098,#1099);
#939=AXIS2_PLACEMENT_3D('',#1381,#1100,#1101);
#940=AXIS2_PLACEMENT_3D('',#1382,#1102,#1103);
#941=AXIS2_PLACEMENT_3D('',#1384,#1104,#1105);
#942=AXIS2_PLACEMENT_3D('',#1385,#1106,#1107);
#943=AXIS2_PLACEMENT_3D('',#1422,#1108,#1109);
#944=AXIS2_PLACEMENT_3D('',#1424,#1110,#1111);
#945=AXIS2_PLACEMENT_3D('',#1425,#1112,#1113);
#946=AXIS2_PLACEMENT_3D('',#1427,#1115,#1116);
#947=AXIS2_PLACEMENT_3D('',#1429,#1118,#1119);
#948=AXIS2_PLACEMENT_3D('',#1431,#1121,#1122);
#949=AXIS2_PLACEMENT_3D('',#1433,#1124,#1125);
#950=AXIS2_PLACEMENT_3D('',#1437,#1128,#1129);
#951=AXIS2_PLACEMENT_3D('',#1441,#1132,#1133);
#952=AXIS2_PLACEMENT_3D('',#1443,#1135,#1136);
#953=AXIS2_PLACEMENT_3D('',#1444,#1137,#1138);
#954=AXIS2_PLACEMENT_3D('',#1446,#1140,#1141);
#955=AXIS2_PLACEMENT_3D('',#1447,#1142,#1143);
#956=AXIS2_PLACEMENT_3D('',#1449,#1145,#1146);
#957=AXIS2_PLACEMENT_3D('',#1450,#1147,#1148);
#958=AXIS2_PLACEMENT_3D('',#1452,#1150,#1151);
#959=AXIS2_PLACEMENT_3D('',#1453,#1152,#1153);
#960=AXIS2_PLACEMENT_3D('',#1455,#1155,#1156);
#961=AXIS2_PLACEMENT_3D('',#1456,#1157,#1158);
#962=AXIS2_PLACEMENT_3D('',#1457,#1159,#1160);
#963=AXIS2_PLACEMENT_3D('',#1459,#1161,#1162);
#964=AXIS2_PLACEMENT_3D('',#1460,#1163,#1164);
#965=AXIS2_PLACEMENT_3D('',#1466,#1168,#1169);
#966=AXIS2_PLACEMENT_3D('',#1470,#1172,#1173);
#967=AXIS2_PLACEMENT_3D('',#1474,#1176,#1177);
#968=AXIS2_PLACEMENT_3D('',#1476,#1179,#1180);
#969=AXIS2_PLACEMENT_3D('',#1477,#1181,#1182);
#970=AXIS2_PLACEMENT_3D('',#1483,#1186,#1187);
#971=AXIS2_PLACEMENT_3D('',#1487,#1190,#1191);
#972=AXIS2_PLACEMENT_3D('',#1491,#1194,#1195);
#973=AXIS2_PLACEMENT_3D('',#1493,#1197,#1198);
#974=AXIS2_PLACEMENT_3D('',#1494,#1199,#1200);
#975=AXIS2_PLACEMENT_3D('',#1495,#1201,#1202);
#976=AXIS2_PLACEMENT_3D('',#1497,#1203,#1204);
#977=AXIS2_PLACEMENT_3D('',#1498,#1205,#1206);
#978=AXIS2_PLACEMENT_3D('',#1499,#1207,#1208);
#979=AXIS2_PLACEMENT_3D('',#1501,#1209,#1210);
#980=AXIS2_PLACEMENT_3D('',#1502,#1211,#1212);
#981=AXIS2_PLACEMENT_3D('',#1503,#1213,#1214);
#982=AXIS2_PLACEMENT_3D('',#1505,#1215,#1216);
#983=AXIS2_PLACEMENT_3D('',#1506,#1217,#1218);
#984=AXIS2_PLACEMENT_3D('',#1507,#1219,#1220);
#985=AXIS2_PLACEMENT_3D('',#1509,#1221,#1222);
#986=AXIS2_PLACEMENT_3D('',#1510,#1223,#1224);
#987=AXIS2_PLACEMENT_3D('',#1511,#1225,#1226);
#988=AXIS2_PLACEMENT_3D('',#1513,#1227,#1228);
#989=AXIS2_PLACEMENT_3D('',#1514,#1229,#1230);
#990=AXIS2_PLACEMENT_3D('',#1515,#1231,#1232);
#991=AXIS2_PLACEMENT_3D('',#1517,#1233,#1234);
#992=AXIS2_PLACEMENT_3D('',#1518,#1235,#1236);
#993=AXIS2_PLACEMENT_3D('',#1519,#1237,#1238);
#994=AXIS2_PLACEMENT_3D('',#1521,#1239,#1240);
#995=DIRECTION('',(0.,0.,1.));
#996=DIRECTION('',(1.,0.,0.));
#997=DIRECTION('',(0.,-1.,0.));
#998=DIRECTION('',(1.,0.,0.));
#999=DIRECTION('',(0.,-1.,0.));
#1000=DIRECTION('',(1.,0.,0.));
#1001=DIRECTION('',(0.,-1.,0.));
#1002=DIRECTION('',(1.,0.,0.));
#1003=DIRECTION('',(0.,-1.,0.));
#1004=DIRECTION('',(1.,0.,0.));
#1005=DIRECTION('',(0.,-1.,0.));
#1006=DIRECTION('',(1.,0.,0.));
#1007=DIRECTION('',(0.,-1.,0.));
#1008=DIRECTION('',(1.,0.,0.));
#1009=DIRECTION('',(0.,-1.,0.));
#1010=DIRECTION('',(1.,0.,0.));
#1011=DIRECTION('',(0.,-1.,0.));
#1012=DIRECTION('',(1.,0.,0.));
#1013=DIRECTION('',(1.,0.,0.));
#1014=DIRECTION('',(0.,0.,1.));
#1015=DIRECTION('',(1.,0.,0.));
#1016=DIRECTION('',(0.,0.,1.));
#1017=DIRECTION('',(1.,0.,0.));
#1018=DIRECTION('',(0.,0.,-1.));
#1019=DIRECTION('',(1.,0.,0.));
#1020=DIRECTION('',(0.,0.,1.));
#1021=DIRECTION('',(-1.,2.31296463463574E-16,0.));
#1022=DIRECTION('',(-2.31296463463574E-16,-1.,0.));
#1023=DIRECTION('',(0.,0.,1.));
#1024=DIRECTION('',(0.,1.,0.));
#1025=DIRECTION('',(0.,0.,1.));
#1026=DIRECTION('',(-2.31296463463574E-16,-1.,0.));
#1027=DIRECTION('',(0.,0.,-1.));
#1028=DIRECTION('',(0.,1.,0.));
#1029=DIRECTION('',(0.,0.,1.));
#1030=DIRECTION('',(0.,1.,0.));
#1031=DIRECTION('',(0.,-1.,0.));
#1032=DIRECTION('',(1.,0.,0.));
#1033=DIRECTION('',(-1.,0.,0.));
#1034=DIRECTION('',(0.,0.,-1.));
#1035=DIRECTION('',(-1.,0.,0.));
#1036=DIRECTION('',(0.,0.,-1.));
#1037=DIRECTION('',(-1.,0.,0.));
#1038=DIRECTION('',(0.,0.,-1.));
#1039=DIRECTION('',(-1.,0.,0.));
#1040=DIRECTION('',(0.,0.,-1.));
#1041=DIRECTION('',(1.,0.,0.));
#1042=DIRECTION('',(0.,0.,1.));
#1043=DIRECTION('',(1.,0.,0.));
#1044=DIRECTION('',(0.,0.,1.));
#1045=DIRECTION('',(1.,0.,0.));
#1046=DIRECTION('',(0.,0.,1.));
#1047=DIRECTION('',(1.,0.,0.));
#1048=DIRECTION('',(0.,0.,-1.));
#1049=DIRECTION('',(0.,0.,1.));
#1050=DIRECTION('',(1.,0.,0.));
#1051=DIRECTION('',(0.,0.,1.));
#1052=DIRECTION('',(1.,-6.12323399573677E-17,0.));
#1053=DIRECTION('',(0.929713665053856,0.36828318046325,0.));
#1054=DIRECTION('',(0.,1.,0.));
#1055=DIRECTION('',(0.929713665053856,-0.36828318046325,0.));
#1056=DIRECTION('',(-0.929713665053856,-0.36828318046325,0.));
#1057=DIRECTION('',(-0.929713665053856,0.36828318046325,0.));
#1058=DIRECTION('',(-1.,2.31296463463574E-16,0.));
#1059=DIRECTION('',(-2.31296463463574E-16,-1.,0.));
#1060=DIRECTION('',(0.,1.,0.));
#1061=DIRECTION('',(0.,0.,-1.));
#1062=DIRECTION('',(-2.31296463463574E-16,-1.,0.));
#1063=DIRECTION('',(0.,0.,1.));
#1064=DIRECTION('',(-2.31296463463574E-16,-1.,0.));
#1065=DIRECTION('',(0.,0.,1.));
#1066=DIRECTION('',(-2.31296463463574E-16,-1.,0.));
#1067=DIRECTION('',(0.,0.,1.));
#1068=DIRECTION('',(0.,1.,0.));
#1069=DIRECTION('',(0.,0.,1.));
#1070=DIRECTION('',(0.,0.,1.));
#1071=DIRECTION('',(0.,0.,1.));
#1072=DIRECTION('',(1.,0.,0.));
#1073=DIRECTION('',(0.,0.,-1.));
#1074=DIRECTION('',(-1.,0.,0.));
#1075=DIRECTION('',(0.,0.,-1.));
#1076=DIRECTION('',(0.,-1.,0.));
#1077=DIRECTION('',(0.,0.,-1.));
#1078=DIRECTION('',(1.,0.,0.));
#1079=DIRECTION('',(0.,0.,-1.));
#1080=DIRECTION('',(1.,0.,0.));
#1081=DIRECTION('',(-1.,2.31296463463574E-16,0.));
#1082=DIRECTION('',(-2.31296463463574E-16,-1.,0.));
#1083=DIRECTION('',(-1.,2.31296463463574E-16,0.));
#1084=DIRECTION('',(0.707106781186547,0.707106781186548,0.));
#1085=DIRECTION('',(-0.707106781186549,0.707106781186547,0.));
#1086=DIRECTION('',(-0.707106781186547,-0.707106781186548,0.));
#1087=DIRECTION('',(0.707106781186548,-0.707106781186548,0.));
#1088=DIRECTION('',(0.,0.,-1.));
#1089=DIRECTION('',(-1.,0.,0.));
#1090=DIRECTION('',(0.,0.,-1.));
#1091=DIRECTION('',(-1.,0.,0.));
#1092=DIRECTION('',(0.,0.,-1.));
#1093=DIRECTION('',(1.,0.,0.));
#1094=DIRECTION('',(0.,0.,-1.));
#1095=DIRECTION('',(-1.,0.,0.));
#1096=DIRECTION('',(0.,0.,-1.));
#1097=DIRECTION('',(-1.,0.,0.));
#1098=DIRECTION('',(0.,0.,-1.));
#1099=DIRECTION('',(1.,0.,0.));
#1100=DIRECTION('',(0.,0.,-1.));
#1101=DIRECTION('',(-1.,0.,0.));
#1102=DIRECTION('',(0.,0.,-1.));
#1103=DIRECTION('',(-1.,0.,0.));
#1104=DIRECTION('',(0.,0.,-1.));
#1105=DIRECTION('',(1.,0.,0.));
#1106=DIRECTION('',(0.,0.,-1.));
#1107=DIRECTION('',(-1.,0.,0.));
#1108=DIRECTION('',(0.,0.,-1.));
#1109=DIRECTION('',(-1.,0.,0.));
#1110=DIRECTION('',(0.,0.,-1.));
#1111=DIRECTION('',(1.,0.,0.));
#1112=DIRECTION('',(0.707106781186548,-0.707106781186547,0.));
#1113=DIRECTION('',(0.,0.,-1.));
#1114=DIRECTION('',(0.707106781186547,0.707106781186548,0.));
#1115=DIRECTION('',(0.707106781186548,0.707106781186548,0.));
#1116=DIRECTION('',(0.,0.,1.));
#1117=DIRECTION('',(-0.707106781186548,0.707106781186548,0.));
#1118=DIRECTION('',(-0.707106781186547,-0.707106781186549,0.));
#1119=DIRECTION('',(0.,0.,1.));
#1120=DIRECTION('',(0.707106781186549,-0.707106781186547,0.));
#1121=DIRECTION('',(-0.707106781186548,0.707106781186547,0.));
#1122=DIRECTION('',(0.,0.,-1.));
#1123=DIRECTION('',(-0.707106781186547,-0.707106781186548,0.));
#1124=DIRECTION('',(-2.31296463463574E-16,-1.,0.));
#1125=DIRECTION('',(0.,0.,1.));
#1126=DIRECTION('',(-1.,2.31296463463574E-16,0.));
#1127=DIRECTION('',(0.,0.,1.));
#1128=DIRECTION('',(0.,0.,-1.));
#1129=DIRECTION('',(-2.31296463463574E-16,-1.,0.));
#1130=DIRECTION('',(-1.,2.31296463463574E-16,0.));
#1131=DIRECTION('',(-2.31296463463574E-16,-1.,0.));
#1132=DIRECTION('',(-2.31296463463574E-16,-1.,0.));
#1133=DIRECTION('',(0.,0.,1.));
#1134=DIRECTION('',(0.,0.,1.));
#1135=DIRECTION('',(-1.,2.31296463463574E-16,0.));
#1136=DIRECTION('',(-2.31296463463574E-16,-1.,0.));
#1137=DIRECTION('',(0.36828318046325,-0.929713665053856,0.));
#1138=DIRECTION('',(0.929713665053856,0.36828318046325,0.));
#1139=DIRECTION('',(0.929713665053856,0.36828318046325,0.));
#1140=DIRECTION('',(0.,0.,1.));
#1141=DIRECTION('',(1.,0.,0.));
#1142=DIRECTION('',(0.36828318046325,0.929713665053856,0.));
#1143=DIRECTION('',(-0.929713665053856,0.36828318046325,0.));
#1144=DIRECTION('',(-0.929713665053856,0.36828318046325,0.));
#1145=DIRECTION('',(0.,0.,1.));
#1146=DIRECTION('',(1.,0.,0.));
#1147=DIRECTION('',(-0.36828318046325,-0.929713665053856,0.));
#1148=DIRECTION('',(0.929713665053856,-0.36828318046325,0.));
#1149=DIRECTION('',(0.929713665053856,-0.36828318046325,0.));
#1150=DIRECTION('',(0.,0.,1.));
#1151=DIRECTION('',(1.,0.,0.));
#1152=DIRECTION('',(-0.36828318046325,0.929713665053856,0.));
#1153=DIRECTION('',(-0.929713665053856,-0.36828318046325,0.));
#1154=DIRECTION('',(-0.929713665053856,-0.36828318046325,0.));
#1155=DIRECTION('',(0.,0.,1.));
#1156=DIRECTION('',(1.,0.,0.));
#1157=DIRECTION('',(0.,0.,1.));
#1158=DIRECTION('',(1.,0.,0.));
#1159=DIRECTION('',(0.,0.,1.));
#1160=DIRECTION('',(1.,0.,0.));
#1161=DIRECTION('',(0.,0.,1.));
#1162=DIRECTION('',(1.,0.,0.));
#1163=DIRECTION('',(0.,0.,-1.));
#1164=DIRECTION('',(-1.,0.,0.));
#1165=DIRECTION('',(0.,1.,0.));
#1166=DIRECTION('',(0.,1.,0.));
#1167=DIRECTION('',(-1.,0.,0.));
#1168=DIRECTION('',(1.,0.,0.));
#1169=DIRECTION('',(0.,0.,-1.));
#1170=DIRECTION('',(0.,1.,0.));
#1171=DIRECTION('',(0.,0.,1.));
#1172=DIRECTION('',(0.,0.,-1.));
#1173=DIRECTION('',(-1.,0.,0.));
#1174=DIRECTION('',(0.,1.,0.));
#1175=DIRECTION('',(-1.,0.,0.));
#1176=DIRECTION('',(1.,0.,0.));
#1177=DIRECTION('',(0.,0.,-1.));
#1178=DIRECTION('',(0.,0.,1.));
#1179=DIRECTION('',(0.,1.,0.));
#1180=DIRECTION('',(-1.,0.,0.));
#1181=DIRECTION('',(0.,0.,-1.));
#1182=DIRECTION('',(-1.,0.,0.));
#1183=DIRECTION('',(0.,1.,0.));
#1184=DIRECTION('',(0.,1.,0.));
#1185=DIRECTION('',(-1.,0.,0.));
#1186=DIRECTION('',(1.,0.,0.));
#1187=DIRECTION('',(0.,0.,-1.));
#1188=DIRECTION('',(0.,1.,0.));
#1189=DIRECTION('',(0.,0.,1.));
#1190=DIRECTION('',(0.,0.,-1.));
#1191=DIRECTION('',(-1.,0.,0.));
#1192=DIRECTION('',(0.,1.,0.));
#1193=DIRECTION('',(-1.,0.,0.));
#1194=DIRECTION('',(1.,0.,0.));
#1195=DIRECTION('',(0.,0.,-1.));
#1196=DIRECTION('',(0.,0.,1.));
#1197=DIRECTION('',(0.,1.,0.));
#1198=DIRECTION('',(-1.,0.,0.));
#1199=DIRECTION('',(0.,-1.,0.));
#1200=DIRECTION('',(0.,0.,-1.));
#1201=DIRECTION('',(0.,-1.,0.));
#1202=DIRECTION('',(0.,0.,-1.));
#1203=DIRECTION('',(0.,-1.,0.));
#1204=DIRECTION('',(1.,0.,0.));
#1205=DIRECTION('',(0.,-1.,0.));
#1206=DIRECTION('',(0.,0.,-1.));
#1207=DIRECTION('',(0.,-1.,0.));
#1208=DIRECTION('',(0.,0.,-1.));
#1209=DIRECTION('',(0.,-1.,0.));
#1210=DIRECTION('',(1.,0.,0.));
#1211=DIRECTION('',(0.,-1.,0.));
#1212=DIRECTION('',(0.,0.,-1.));
#1213=DIRECTION('',(0.,-1.,0.));
#1214=DIRECTION('',(0.,0.,-1.));
#1215=DIRECTION('',(0.,-1.,0.));
#1216=DIRECTION('',(1.,0.,0.));
#1217=DIRECTION('',(0.,-1.,0.));
#1218=DIRECTION('',(0.,0.,-1.));
#1219=DIRECTION('',(0.,-1.,0.));
#1220=DIRECTION('',(0.,0.,-1.));
#1221=DIRECTION('',(0.,-1.,0.));
#1222=DIRECTION('',(1.,0.,0.));
#1223=DIRECTION('',(0.,-1.,0.));
#1224=DIRECTION('',(0.,0.,-1.));
#1225=DIRECTION('',(0.,-1.,0.));
#1226=DIRECTION('',(0.,0.,-1.));
#1227=DIRECTION('',(0.,-1.,0.));
#1228=DIRECTION('',(1.,0.,0.));
#1229=DIRECTION('',(0.,-1.,0.));
#1230=DIRECTION('',(0.,0.,-1.));
#1231=DIRECTION('',(0.,-1.,0.));
#1232=DIRECTION('',(0.,0.,-1.));
#1233=DIRECTION('',(0.,-1.,0.));
#1234=DIRECTION('',(1.,0.,0.));
#1235=DIRECTION('',(0.,-1.,0.));
#1236=DIRECTION('',(0.,0.,-1.));
#1237=DIRECTION('',(0.,-1.,0.));
#1238=DIRECTION('',(0.,0.,-1.));
#1239=DIRECTION('',(0.,-1.,0.));
#1240=DIRECTION('',(1.,0.,0.));
#1241=CARTESIAN_POINT('',(0.,0.,0.));
#1242=CARTESIAN_POINT('',(-3.46944695195361E-18,-0.015,0.));
#1243=CARTESIAN_POINT('',(-0.0102609832312041,-0.015,0.0025));
#1244=CARTESIAN_POINT('',(-0.00976098323120408,-0.015,0.0025));
#1245=CARTESIAN_POINT('',(-0.00846973154693842,-0.015,0.0024383959826082));
#1246=CARTESIAN_POINT('',(-0.00796973154693842,-0.015,0.0024383959826082));
#1247=CARTESIAN_POINT('',(-0.00690025743097067,-0.015,0.0024959915317595));
#1248=CARTESIAN_POINT('',(-0.00640025743097067,-0.015,0.0024959915317595));
#1249=CARTESIAN_POINT('',(-0.00535958120599389,-0.015,0.00251039024442434));
#1250=CARTESIAN_POINT('',(-0.00485958120599389,-0.015,0.00251039024442434));
#1251=CARTESIAN_POINT('',(-0.00379010778851807,-0.015,0.00251039024442434));
#1252=CARTESIAN_POINT('',(-0.00329010778851807,-0.015,0.00251039024442434));
#1253=CARTESIAN_POINT('',(-0.0137322060763836,-0.015,0.0025));
#1254=CARTESIAN_POINT('',(-0.0132322060763836,-0.015,0.0025));
#1255=CARTESIAN_POINT('',(-0.0119398524984717,-0.015,0.00246719364076853));
#1256=CARTESIAN_POINT('',(-0.0114398524984717,-0.015,0.00246719364076853));
#1257=CARTESIAN_POINT('',(3.46944695195361E-18,-0.015,0.01));
#1258=CARTESIAN_POINT('',(0.0145169906318187,-0.015,0.01));
#1259=CARTESIAN_POINT('',(0.023,-0.015,0.01));
#1260=CARTESIAN_POINT('',(0.0145169906318187,-0.015,0.016));
#1261=CARTESIAN_POINT('',(0.0145169906318187,-0.015,0.016));
#1262=CARTESIAN_POINT('',(0.,-0.015,0.016));
#1263=CARTESIAN_POINT('',(-0.0145169906318187,-0.015,0.016));
#1264=CARTESIAN_POINT('',(-0.0145169906318187,-0.015,0.016));
#1265=CARTESIAN_POINT('',(-0.0145169906318187,-0.015,0.01));
#1266=CARTESIAN_POINT('',(3.46944695195361E-18,-0.015,0.01));
#1267=CARTESIAN_POINT('',(-0.023,-0.015,0.01));
#1268=CARTESIAN_POINT('',(-0.023,-0.015,0.));
#1269=CARTESIAN_POINT('',(-0.023,-0.015,0.));
#1270=CARTESIAN_POINT('',(-3.46944695195361E-18,-0.015,0.));
#1271=CARTESIAN_POINT('',(0.023,-0.015,0.));
#1272=CARTESIAN_POINT('',(0.023,-0.015,0.));
#1273=CARTESIAN_POINT('',(0.025,8.67361737988404E-19,0.));
#1274=CARTESIAN_POINT('',(0.025,-0.0108474139124155,0.016));
#1275=CARTESIAN_POINT('',(0.025,-0.0108474139124155,0.01));
#1276=CARTESIAN_POINT('',(0.025,-0.0108474139124155,0.016));
#1277=CARTESIAN_POINT('',(0.025,0.,0.01));
#1278=CARTESIAN_POINT('',(0.025,-0.013,0.01));
#1279=CARTESIAN_POINT('',(0.025,-0.013,0.));
#1280=CARTESIAN_POINT('',(0.025,-0.013,0.));
#1281=CARTESIAN_POINT('',(0.025,8.67361737988404E-19,0.));
#1282=CARTESIAN_POINT('',(0.025,0.013,0.));
#1283=CARTESIAN_POINT('',(0.025,0.013,0.));
#1284=CARTESIAN_POINT('',(0.025,0.013,0.01));
#1285=CARTESIAN_POINT('',(0.025,0.,0.01));
#1286=CARTESIAN_POINT('',(0.025,0.0108474139124155,0.01));
#1287=CARTESIAN_POINT('',(0.025,0.0108474139124155,0.016));
#1288=CARTESIAN_POINT('',(0.025,0.0108474139124155,0.016));
#1289=CARTESIAN_POINT('',(0.025,0.,0.016));
#1290=CARTESIAN_POINT('',(3.46944695195361E-18,0.015,0.));
#1291=CARTESIAN_POINT('',(-0.00589533597253128,0.015,0.00380845580683589));
#1292=CARTESIAN_POINT('',(-0.00439533597253127,0.015,0.00380845580683589));
#1293=CARTESIAN_POINT('',(-0.00739533597253128,0.015,0.00380845580683589));
#1294=CARTESIAN_POINT('',(-0.00439533597253127,0.015,0.00530845580683588));
#1295=CARTESIAN_POINT('',(-0.00439533597253127,0.015,0.00680845580683588));
#1296=CARTESIAN_POINT('',(-0.00589533597253127,0.015,0.00680845580683588));
#1297=CARTESIAN_POINT('',(-0.00739533597253128,0.015,0.00680845580683588));
#1298=CARTESIAN_POINT('',(-0.00739533597253128,0.015,0.00530845580683588));
#1299=CARTESIAN_POINT('',(0.0095,0.015,0.00379655674441983));
#1300=CARTESIAN_POINT('',(0.011,0.015,0.00379655674441983));
#1301=CARTESIAN_POINT('',(0.008,0.015,0.00379655674441983));
#1302=CARTESIAN_POINT('',(0.011,0.015,0.00529655674441982));
#1303=CARTESIAN_POINT('',(0.011,0.015,0.00679655674441982));
#1304=CARTESIAN_POINT('',(0.0095,0.015,0.00679655674441982));
#1305=CARTESIAN_POINT('',(0.008,0.015,0.00679655674441982));
#1306=CARTESIAN_POINT('',(0.008,0.015,0.00529655674441982));
#1307=CARTESIAN_POINT('',(3.46944695195361E-18,0.015,0.01));
#1308=CARTESIAN_POINT('',(-0.023,0.015,0.01));
#1309=CARTESIAN_POINT('',(-0.0145169906318187,0.015,0.01));
#1310=CARTESIAN_POINT('',(-0.0145169906318187,0.015,0.016));
#1311=CARTESIAN_POINT('',(-0.0145169906318187,0.015,0.016));
#1312=CARTESIAN_POINT('',(0.,0.015,0.016));
#1313=CARTESIAN_POINT('',(0.0145169906318187,0.015,0.016));
#1314=CARTESIAN_POINT('',(0.0145169906318187,0.015,0.016));
#1315=CARTESIAN_POINT('',(0.0145169906318187,0.015,0.01));
#1316=CARTESIAN_POINT('',(3.46944695195361E-18,0.015,0.01));
#1317=CARTESIAN_POINT('',(0.023,0.015,0.01));
#1318=CARTESIAN_POINT('',(0.023,0.015,0.));
#1319=CARTESIAN_POINT('',(0.023,0.015,0.));
#1320=CARTESIAN_POINT('',(3.46944695195361E-18,0.015,0.));
#1321=CARTESIAN_POINT('',(-0.023,0.015,0.));
#1322=CARTESIAN_POINT('',(-0.023,0.015,0.));
#1323=CARTESIAN_POINT('',(0.,0.,0.016));
#1324=CARTESIAN_POINT('',(-0.0144647276028991,4.00170021133285E-19,0.016));
#1325=CARTESIAN_POINT('',(-0.00792945520579815,-4.81482486096809E-34,0.016));
#1326=CARTESIAN_POINT('',(-0.0197584953159094,0.0129237069562077,0.016));
#1327=CARTESIAN_POINT('',(-0.025,0.0108474139124155,0.016));
#1328=CARTESIAN_POINT('',(-0.025,0.,0.016));
#1329=CARTESIAN_POINT('',(-0.025,-0.0108474139124155,0.016));
#1330=CARTESIAN_POINT('',(-0.0197584953159094,-0.0129237069562077,0.016));
#1331=CARTESIAN_POINT('',(0.0197584953159094,-0.0129237069562077,0.016));
#1332=CARTESIAN_POINT('',(0.0197584953159094,0.0129237069562077,0.016));
#1333=CARTESIAN_POINT('',(-0.025,8.67361737988404E-19,0.));
#1334=CARTESIAN_POINT('',(-0.025,0.,0.01));
#1335=CARTESIAN_POINT('',(-0.025,0.013,0.01));
#1336=CARTESIAN_POINT('',(-0.025,0.0108474139124155,0.01));
#1337=CARTESIAN_POINT('',(-0.025,0.013,0.));
#1338=CARTESIAN_POINT('',(-0.025,0.013,0.));
#1339=CARTESIAN_POINT('',(-0.025,8.67361737988404E-19,0.));
#1340=CARTESIAN_POINT('',(-0.025,0.00689151184633374,0.));
#1341=CARTESIAN_POINT('',(-0.025,0.00689151184633374,0.00300193694420159));
#1342=CARTESIAN_POINT('',(-0.025,0.00689151184633374,0.00600387388840318));
#1343=CARTESIAN_POINT('',(-0.025,-0.000178302405402065,0.00600387388840318));
#1344=CARTESIAN_POINT('',(-0.025,-0.00724811665713787,0.00600387388840318));
#1345=CARTESIAN_POINT('',(-0.025,-0.00724811665713787,0.00300193694420159));
#1346=CARTESIAN_POINT('',(-0.025,-0.00724811665713787,0.));
#1347=CARTESIAN_POINT('',(-0.025,8.67361737988404E-19,0.));
#1348=CARTESIAN_POINT('',(-0.025,-0.013,0.));
#1349=CARTESIAN_POINT('',(-0.025,-0.013,0.));
#1350=CARTESIAN_POINT('',(-0.025,-0.013,0.01));
#1351=CARTESIAN_POINT('',(-0.025,0.,0.01));
#1352=CARTESIAN_POINT('',(-0.025,-0.0108474139124155,0.01));
#1353=CARTESIAN_POINT('',(-0.025,-0.0108474139124155,0.016));
#1354=CARTESIAN_POINT('',(-0.025,0.0108474139124155,0.016));
#1355=CARTESIAN_POINT('',(0.,0.,0.));
#1356=CARTESIAN_POINT('',(0.01275,-0.01275,0.));
#1357=CARTESIAN_POINT('',(0.01195,-0.01275,0.));
#1358=CARTESIAN_POINT('',(0.01275,0.01275,0.));
#1359=CARTESIAN_POINT('',(0.01275,0.01195,0.));
#1360=CARTESIAN_POINT('',(-0.01275,0.01275,0.));
#1361=CARTESIAN_POINT('',(-0.01195,0.01275,0.));
#1362=CARTESIAN_POINT('',(-0.01275,-0.01275,0.));
#1363=CARTESIAN_POINT('',(-0.01195,-0.01275,0.));
#1364=CARTESIAN_POINT('',(-0.025,-0.00724811665713787,0.));
#1365=CARTESIAN_POINT('',(-0.02,-0.00724811665713787,0.));
#1366=CARTESIAN_POINT('',(-0.02,-2.31296463463574E-18,0.));
#1367=CARTESIAN_POINT('',(-0.02,0.00689151184633374,0.));
#1368=CARTESIAN_POINT('',(-0.025,0.00689151184633374,0.));
#1369=CARTESIAN_POINT('',(-0.023,0.015,0.));
#1370=CARTESIAN_POINT('',(0.025,0.013,0.));
#1371=CARTESIAN_POINT('',(0.023,-0.015,0.));
#1372=CARTESIAN_POINT('',(-0.025,-0.013,0.));
#1373=CARTESIAN_POINT('',(0.01275,-0.01275,0.));
#1374=CARTESIAN_POINT('',(0.01275,-0.01275,0.005));
#1375=CARTESIAN_POINT('',(0.01195,-0.01275,0.005));
#1376=CARTESIAN_POINT('',(0.,0.,0.005));
#1377=CARTESIAN_POINT('',(0.01275,0.01275,0.));
#1378=CARTESIAN_POINT('',(0.01275,0.01275,0.005));
#1379=CARTESIAN_POINT('',(0.01195,0.01275,0.005));
#1380=CARTESIAN_POINT('',(0.,0.,0.005));
#1381=CARTESIAN_POINT('',(-0.01275,0.01275,0.));
#1382=CARTESIAN_POINT('',(-0.01275,0.01275,0.005));
#1383=CARTESIAN_POINT('',(-0.01355,0.01275,0.005));
#1384=CARTESIAN_POINT('',(0.,0.,0.005));
#1385=CARTESIAN_POINT('',(-0.01275,-0.01275,0.));
#1386=CARTESIAN_POINT('',(-0.0134642166853567,-0.0131636164501015,0.00294938530326647));
#1387=CARTESIAN_POINT('',(-0.0136068627523555,-0.0127491915727439,0.00297646532257536));
#1388=CARTESIAN_POINT('',(-0.0134651950575767,-0.0123388088316667,0.0029493131521833));
#1389=CARTESIAN_POINT('',(-0.013276682198517,-0.0121419128188917,0.00274749472250496));
#1390=CARTESIAN_POINT('',(-0.0132105747380744,-0.0120970088935853,0.00250247413456096));
#1391=CARTESIAN_POINT('',(-0.0132742872768047,-0.012140038838415,0.00225645846434505));
#1392=CARTESIAN_POINT('',(-0.0134636130905309,-0.0123356457026263,0.00205092770762099));
#1393=CARTESIAN_POINT('',(-0.0136067510203239,-0.0127484313687315,0.0020236764621416));
#1394=CARTESIAN_POINT('',(-0.0134661238844,-0.0131601319953714,0.00204995238195564));
#1395=CARTESIAN_POINT('',(-0.0132765183221683,-0.0133582789778076,0.00225256048245718));
#1396=CARTESIAN_POINT('',(-0.0132105484771533,-0.0134029941792208,0.00249789198373355));
#1397=CARTESIAN_POINT('',(-0.0132745473161875,-0.0133597637822667,0.00274410164331276));
#1398=CARTESIAN_POINT('',(-0.0134642166853567,-0.0131636164501015,0.00294938530326647));
#1399=CARTESIAN_POINT('',(-0.0136068627523555,-0.0127491915727439,0.00297646532257536));
#1400=CARTESIAN_POINT('',(-0.0134651950575767,-0.0123388088316667,0.0029493131521833));
#1401=CARTESIAN_POINT('',(-0.01355,-0.01275,0.00296561888463517));
#1402=CARTESIAN_POINT('',(-0.0119879541959405,-0.0124485579860061,0.002968123386933));
#1403=CARTESIAN_POINT('',(-0.0119310684394902,-0.0127503742607475,0.00296658940727135));
#1404=CARTESIAN_POINT('',(-0.0119877720460988,-0.0130499449710039,0.00296806293423694));
#1405=CARTESIAN_POINT('',(-0.0121517761031904,-0.0133088919358482,0.00293822704645381));
#1406=CARTESIAN_POINT('',(-0.0123730040248247,-0.0134647383101347,0.00277187142400993));
#1407=CARTESIAN_POINT('',(-0.012472510712957,-0.0134984467251832,0.00246964884982393));
#1408=CARTESIAN_POINT('',(-0.0123760356978295,-0.0134660636214878,0.00216664124083314));
#1409=CARTESIAN_POINT('',(-0.0121547573137,-0.0133121982232018,0.00199707932104057));
#1410=CARTESIAN_POINT('',(-0.0119883970576322,-0.0130522462644268,0.00196627656980403));
#1411=CARTESIAN_POINT('',(-0.0119312312666884,-0.0127521257655611,0.00196782466216887));
#1412=CARTESIAN_POINT('',(-0.0119866952124829,-0.0124521515895708,0.0019662048724619));
#1413=CARTESIAN_POINT('',(-0.0121517090019419,-0.0121909524806478,0.00199605524486015));
#1414=CARTESIAN_POINT('',(-0.0123728893512049,-0.012035374697575,0.00216233455507113));
#1415=CARTESIAN_POINT('',(-0.0124726000169196,-0.0120015065916801,0.00246492983432644));
#1416=CARTESIAN_POINT('',(-0.0123757976465774,-0.0120340082145005,0.00276816378597535));
#1417=CARTESIAN_POINT('',(-0.0121541987515027,-0.012188367889473,0.00293756517473415));
#1418=CARTESIAN_POINT('',(-0.0119879541959405,-0.0124485579860061,0.002968123386933));
#1419=CARTESIAN_POINT('',(-0.0119310684394902,-0.0127503742607475,0.00296658940727135));
#1420=CARTESIAN_POINT('',(-0.0119877720460988,-0.0130499449710039,0.00296806293423694));
#1421=CARTESIAN_POINT('',(-0.01195,-0.01275,0.00296709065837589));
#1422=CARTESIAN_POINT('',(-0.01275,-0.01275,0.005));
#1423=CARTESIAN_POINT('',(-0.01355,-0.01275,0.005));
#1424=CARTESIAN_POINT('',(0.,0.,0.005));
#1425=CARTESIAN_POINT('',(0.023,-0.015,0.));
#1426=CARTESIAN_POINT('',(0.019,-0.019,0.01));
#1427=CARTESIAN_POINT('',(-0.025,-0.013,0.));
#1428=CARTESIAN_POINT('',(-0.019,-0.019,0.01));
#1429=CARTESIAN_POINT('',(0.025,0.013,0.));
#1430=CARTESIAN_POINT('',(0.019,0.019,0.01));
#1431=CARTESIAN_POINT('',(-0.023,0.015,0.));
#1432=CARTESIAN_POINT('',(-0.019,0.019,0.01));
#1433=CARTESIAN_POINT('',(-0.025,-0.00724811665713787,0.00300193694420159));
#1434=CARTESIAN_POINT('',(-0.025,-0.00724811665713787,0.00600387388840318));
#1435=CARTESIAN_POINT('',(-0.02,-0.00724811665713787,0.00600387388840318));
#1436=CARTESIAN_POINT('',(-0.02,-0.00724811665713787,0.008));
#1437=CARTESIAN_POINT('',(-0.025,-0.000178302405402065,0.00600387388840318));
#1438=CARTESIAN_POINT('',(-0.025,0.00689151184633374,0.00600387388840318));
#1439=CARTESIAN_POINT('',(-0.02,0.00689151184633374,0.00600387388840318));
#1440=CARTESIAN_POINT('',(-0.02,-2.31296463463574E-18,0.00600387388840318));
#1441=CARTESIAN_POINT('',(-0.025,0.00689151184633374,0.00300193694420159));
#1442=CARTESIAN_POINT('',(-0.02,0.00689151184633374,0.008));
#1443=CARTESIAN_POINT('',(-0.02,-2.31296463463574E-18,0.008));
#1444=CARTESIAN_POINT('',(-0.0197584953159094,0.0129237069562077,0.016));
#1445=CARTESIAN_POINT('',(-0.0197584953159094,0.0129237069562077,0.01));
#1446=CARTESIAN_POINT('',(3.46944695195361E-18,0.,0.01));
#1447=CARTESIAN_POINT('',(0.0197584953159094,0.0129237069562077,0.016));
#1448=CARTESIAN_POINT('',(0.0197584953159094,0.0129237069562077,0.01));
#1449=CARTESIAN_POINT('',(3.46944695195361E-18,0.,0.01));
#1450=CARTESIAN_POINT('',(-0.0197584953159094,-0.0129237069562077,0.016));
#1451=CARTESIAN_POINT('',(-0.0197584953159094,-0.0129237069562077,0.01));
#1452=CARTESIAN_POINT('',(3.46944695195361E-18,0.,0.01));
#1453=CARTESIAN_POINT('',(0.0197584953159094,-0.0129237069562077,0.016));
#1454=CARTESIAN_POINT('',(0.0197584953159094,-0.0129237069562077,0.01));
#1455=CARTESIAN_POINT('',(3.46944695195361E-18,0.,0.01));
#1456=CARTESIAN_POINT('',(-0.0144647276028991,4.00170021133285E-19,0.016));
#1457=CARTESIAN_POINT('',(-0.0144647276028991,4.00170021133285E-19,0.015));
#1458=CARTESIAN_POINT('',(-0.00792945520579815,4.00170021133285E-19,0.015));
#1459=CARTESIAN_POINT('',(3.46944695195361E-18,0.,0.015));
#1460=CARTESIAN_POINT('',(0.0095,0.015,0.00379655674441983));
#1461=CARTESIAN_POINT('',(0.011,0.015,0.00379655674441983));
#1462=CARTESIAN_POINT('',(0.011,0.014,0.00379655674441983));
#1463=CARTESIAN_POINT('',(0.008,0.015,0.00379655674441983));
#1464=CARTESIAN_POINT('',(0.008,0.014,0.00379655674441983));
#1465=CARTESIAN_POINT('',(3.46944695195361E-18,0.014,0.00379655674441983));
#1466=CARTESIAN_POINT('',(0.008,0.015,0.00529655674441982));
#1467=CARTESIAN_POINT('',(0.008,0.015,0.00679655674441982));
#1468=CARTESIAN_POINT('',(0.008,0.014,0.00679655674441982));
#1469=CARTESIAN_POINT('',(0.008,0.014,0.008));
#1470=CARTESIAN_POINT('',(0.0095,0.015,0.00679655674441982));
#1471=CARTESIAN_POINT('',(0.011,0.015,0.00679655674441982));
#1472=CARTESIAN_POINT('',(0.011,0.014,0.00679655674441982));
#1473=CARTESIAN_POINT('',(3.46944695195361E-18,0.014,0.00679655674441982));
#1474=CARTESIAN_POINT('',(0.011,0.015,0.00529655674441982));
#1475=CARTESIAN_POINT('',(0.011,0.014,0.008));
#1476=CARTESIAN_POINT('',(3.46944695195361E-18,0.014,0.008));
#1477=CARTESIAN_POINT('',(-0.00589533597253128,0.015,0.00380845580683589));
#1478=CARTESIAN_POINT('',(-0.00439533597253127,0.015,0.00380845580683589));
#1479=CARTESIAN_POINT('',(-0.00439533597253127,0.014,0.00380845580683589));
#1480=CARTESIAN_POINT('',(-0.00739533597253128,0.015,0.00380845580683589));
#1481=CARTESIAN_POINT('',(-0.00739533597253128,0.014,0.00380845580683589));
#1482=CARTESIAN_POINT('',(3.46944695195361E-18,0.014,0.00380845580683589));
#1483=CARTESIAN_POINT('',(-0.00739533597253128,0.015,0.00530845580683588));
#1484=CARTESIAN_POINT('',(-0.00739533597253128,0.015,0.00680845580683588));
#1485=CARTESIAN_POINT('',(-0.00739533597253128,0.014,0.00680845580683588));
#1486=CARTESIAN_POINT('',(-0.00739533597253128,0.014,0.008));
#1487=CARTESIAN_POINT('',(-0.00589533597253127,0.015,0.00680845580683588));
#1488=CARTESIAN_POINT('',(-0.00439533597253127,0.015,0.00680845580683588));
#1489=CARTESIAN_POINT('',(-0.00439533597253127,0.014,0.00680845580683588));
#1490=CARTESIAN_POINT('',(3.46944695195361E-18,0.014,0.00680845580683588));
#1491=CARTESIAN_POINT('',(-0.00439533597253127,0.015,0.00530845580683588));
#1492=CARTESIAN_POINT('',(-0.00439533597253127,0.014,0.008));
#1493=CARTESIAN_POINT('',(3.46944695195361E-18,0.014,0.008));
#1494=CARTESIAN_POINT('',(-0.0119398524984717,-0.015,0.00246719364076853));
#1495=CARTESIAN_POINT('',(-0.0119398524984717,-0.01,0.00246719364076853));
#1496=CARTESIAN_POINT('',(-0.0119398524984717,-0.01,0.00196719364076853));
#1497=CARTESIAN_POINT('',(-3.46944695195361E-18,-0.01,0.008));
#1498=CARTESIAN_POINT('',(-0.0137322060763836,-0.015,0.0025));
#1499=CARTESIAN_POINT('',(-0.0137322060763836,-0.01,0.0025));
#1500=CARTESIAN_POINT('',(-0.0137322060763836,-0.01,0.002));
#1501=CARTESIAN_POINT('',(-3.46944695195361E-18,-0.01,0.008));
#1502=CARTESIAN_POINT('',(-0.00379010778851807,-0.015,0.00251039024442434));
#1503=CARTESIAN_POINT('',(-0.00379010778851807,-0.01,0.00251039024442434));
#1504=CARTESIAN_POINT('',(-0.00379010778851807,-0.01,0.00201039024442434));
#1505=CARTESIAN_POINT('',(-3.46944695195361E-18,-0.01,0.008));
#1506=CARTESIAN_POINT('',(-0.00535958120599389,-0.015,0.00251039024442434));
#1507=CARTESIAN_POINT('',(-0.00535958120599389,-0.01,0.00251039024442434));
#1508=CARTESIAN_POINT('',(-0.00535958120599389,-0.01,0.00201039024442434));
#1509=CARTESIAN_POINT('',(-3.46944695195361E-18,-0.01,0.008));
#1510=CARTESIAN_POINT('',(-0.00690025743097067,-0.015,0.0024959915317595));
#1511=CARTESIAN_POINT('',(-0.00690025743097067,-0.01,0.0024959915317595));
#1512=CARTESIAN_POINT('',(-0.00690025743097067,-0.01,0.0019959915317595));
#1513=CARTESIAN_POINT('',(-3.46944695195361E-18,-0.01,0.008));
#1514=CARTESIAN_POINT('',(-0.00846973154693842,-0.015,0.0024383959826082));
#1515=CARTESIAN_POINT('',(-0.00846973154693842,-0.01,0.0024383959826082));
#1516=CARTESIAN_POINT('',(-0.00846973154693842,-0.01,0.0019383959826082));
#1517=CARTESIAN_POINT('',(-3.46944695195361E-18,-0.01,0.008));
#1518=CARTESIAN_POINT('',(-0.0102609832312041,-0.015,0.0025));
#1519=CARTESIAN_POINT('',(-0.0102609832312041,-0.01,0.0025));
#1520=CARTESIAN_POINT('',(-0.0102609832312041,-0.01,0.002));
#1521=CARTESIAN_POINT('',(-3.46944695195361E-18,-0.01,0.008));
#1522=MECHANICAL_DESIGN_GEOMETRIC_PRESENTATION_REPRESENTATION('',(#903),
#1523);
#1523=(
GEOMETRIC_REPRESENTATION_CONTEXT(3)
GLOBAL_UNCERTAINTY_ASSIGNED_CONTEXT((#1524))
GLOBAL_UNIT_ASSIGNED_CONTEXT((#1527,#1526,#1525))
REPRESENTATION_CONTEXT('Part 1','TOP_LEVEL_ASSEMBLY_PART')
);
#1524=UNCERTAINTY_MEASURE_WITH_UNIT(LENGTH_MEASURE(2.E-5),#1527,
'DISTANCE_ACCURACY_VALUE','Maximum Tolerance applied to model');
#1525=(
NAMED_UNIT(*)
SI_UNIT($,.STERADIAN.)
SOLID_ANGLE_UNIT()
);
#1526=(
NAMED_UNIT(*)
PLANE_ANGLE_UNIT()
SI_UNIT($,.RADIAN.)
);
#1527=(
LENGTH_UNIT()
NAMED_UNIT(*)
SI_UNIT($,.METRE.)
);
#1528=PRODUCT_DEFINITION_SHAPE('','',#1529);
#1529=PRODUCT_DEFINITION('','',#1531,#1530);
#1530=PRODUCT_DEFINITION_CONTEXT('',#1537,'design');
#1531=PRODUCT_DEFINITION_FORMATION_WITH_SPECIFIED_SOURCE('','',#1533,
 .NOT_KNOWN.);
#1532=PRODUCT_RELATED_PRODUCT_CATEGORY('','',(#1533));
#1533=PRODUCT('Part 1','Part 1','Part 1',(#1535));
#1534=PRODUCT_CATEGORY('','');
#1535=PRODUCT_CONTEXT('',#1537,'mechanical');
#1536=APPLICATION_PROTOCOL_DEFINITION('international standard',
'ap242_managed_model_based_3d_engineering',2020,#1537);
#1537=APPLICATION_CONTEXT('managed model based 3d engineering');
ENDSEC;
END-ISO-10303-21;
