ISO-10303-21;
HEADER;
/* Generated by software containing ST-Developer
 * from STEP Tools, Inc. (www.steptools.com) 
 */
/* OPTION: using custom renumber hook */

FILE_DESCRIPTION(
/* description */ ('STEP AP242 Edition 2',
'CAx-IF Rec.Pracs.---Representation and Presentation of Product Manufa
cturing Information (PMI)---4.0---2014-10-13',
'CAx-IF Rec.Pracs.---3D Tessellated Geometry---0.4---2014-09-14','2;1',
'CAx-IF Rec.Pracs.---User Defined Attributes---1.5---2016-08-15'),
/* implementation_level */ '2;1');

FILE_NAME(
/* name */ 'Part Studio 2',
/* time_stamp */ '2026-09-30T15:30:16Z',
/* author */ (''),
/* organization */ (''),
/* preprocessor_version */ 'ST-DEVELOPER v20',
/* originating_system */ 'ONSHAPE BY PTC INC, 1.221',
/* authorisation */ '  ');

FILE_SCHEMA (('AP242_MANAGED_MODEL_BASED_3D_ENGINEERING_MIM_LF { 1 0 10303 442 3 1 4 }'));
ENDSEC;

DATA;
#10=SHAPE_REPRESENTATION_RELATIONSHIP('','',#456,#11);
#11=ADVANCED_BREP_SHAPE_REPRESENTATION('',(#454),#755);
#12=ELLIPSE('',#503,0.00494974746830583,0.0035);
#13=CYLINDRICAL_SURFACE('',#483,0.0009);
#14=CYLINDRICAL_SURFACE('',#484,0.0014);
#15=CYLINDRICAL_SURFACE('',#485,0.0014);
#16=CYLINDRICAL_SURFACE('',#486,0.00305);
#17=CYLINDRICAL_SURFACE('',#488,0.00305);
#18=CYLINDRICAL_SURFACE('',#490,0.0009);
#19=CYLINDRICAL_SURFACE('',#491,0.00405);
#20=CYLINDRICAL_SURFACE('',#494,0.00405);
#21=CYLINDRICAL_SURFACE('',#497,0.0008);
#22=CYLINDRICAL_SURFACE('',#498,0.0008);
#23=CYLINDRICAL_SURFACE('',#499,0.0008);
#24=CYLINDRICAL_SURFACE('',#500,0.0008);
#25=CYLINDRICAL_SURFACE('',#507,0.0035);
#26=CIRCLE('',#462,0.0008);
#27=CIRCLE('',#463,0.0008);
#28=CIRCLE('',#464,0.0008);
#29=CIRCLE('',#465,0.0008);
#30=CIRCLE('',#466,0.00405);
#31=CIRCLE('',#467,0.00405);
#32=CIRCLE('',#468,0.0009);
#33=CIRCLE('',#469,0.0014);
#34=CIRCLE('',#470,0.0014);
#35=CIRCLE('',#471,0.0009);
#36=CIRCLE('',#473,0.0008);
#37=CIRCLE('',#474,0.0008);
#38=CIRCLE('',#475,0.0008);
#39=CIRCLE('',#476,0.0008);
#40=CIRCLE('',#477,0.0009);
#41=CIRCLE('',#478,0.00305);
#42=CIRCLE('',#479,0.00305);
#43=CIRCLE('',#480,0.0014);
#44=CIRCLE('',#481,0.0014);
#45=CIRCLE('',#482,0.0009);
#46=CIRCLE('',#487,0.00305);
#47=CIRCLE('',#489,0.00305000000000004);
#48=CIRCLE('',#492,0.00405000000000006);
#49=CIRCLE('',#495,0.00405);
#50=CIRCLE('',#506,0.0035);
#51=CIRCLE('',#508,0.0035);
#52=ORIENTED_EDGE('',*,*,#150,.T.);
#53=ORIENTED_EDGE('',*,*,#151,.T.);
#54=ORIENTED_EDGE('',*,*,#152,.F.);
#55=ORIENTED_EDGE('',*,*,#153,.F.);
#56=ORIENTED_EDGE('',*,*,#154,.F.);
#57=ORIENTED_EDGE('',*,*,#155,.F.);
#58=ORIENTED_EDGE('',*,*,#156,.T.);
#59=ORIENTED_EDGE('',*,*,#157,.T.);
#60=ORIENTED_EDGE('',*,*,#158,.T.);
#61=ORIENTED_EDGE('',*,*,#159,.F.);
#62=ORIENTED_EDGE('',*,*,#160,.F.);
#63=ORIENTED_EDGE('',*,*,#161,.T.);
#64=ORIENTED_EDGE('',*,*,#162,.T.);
#65=ORIENTED_EDGE('',*,*,#163,.T.);
#66=ORIENTED_EDGE('',*,*,#164,.T.);
#67=ORIENTED_EDGE('',*,*,#155,.T.);
#68=ORIENTED_EDGE('',*,*,#165,.F.);
#69=ORIENTED_EDGE('',*,*,#161,.F.);
#70=ORIENTED_EDGE('',*,*,#166,.F.);
#71=ORIENTED_EDGE('',*,*,#162,.F.);
#72=ORIENTED_EDGE('',*,*,#165,.T.);
#73=ORIENTED_EDGE('',*,*,#154,.T.);
#74=ORIENTED_EDGE('',*,*,#167,.F.);
#75=ORIENTED_EDGE('',*,*,#168,.F.);
#76=ORIENTED_EDGE('',*,*,#169,.F.);
#77=ORIENTED_EDGE('',*,*,#170,.F.);
#78=ORIENTED_EDGE('',*,*,#171,.F.);
#79=ORIENTED_EDGE('',*,*,#172,.F.);
#80=ORIENTED_EDGE('',*,*,#173,.F.);
#81=ORIENTED_EDGE('',*,*,#174,.F.);
#82=ORIENTED_EDGE('',*,*,#175,.F.);
#83=ORIENTED_EDGE('',*,*,#176,.F.);
#84=ORIENTED_EDGE('',*,*,#177,.F.);
#85=ORIENTED_EDGE('',*,*,#178,.F.);
#86=ORIENTED_EDGE('',*,*,#179,.F.);
#87=ORIENTED_EDGE('',*,*,#180,.F.);
#88=ORIENTED_EDGE('',*,*,#181,.T.);
#89=ORIENTED_EDGE('',*,*,#182,.T.);
#90=ORIENTED_EDGE('',*,*,#183,.T.);
#91=ORIENTED_EDGE('',*,*,#184,.T.);
#92=ORIENTED_EDGE('',*,*,#185,.T.);
#93=ORIENTED_EDGE('',*,*,#186,.T.);
#94=ORIENTED_EDGE('',*,*,#160,.T.);
#95=ORIENTED_EDGE('',*,*,#187,.T.);
#96=ORIENTED_EDGE('',*,*,#156,.F.);
#97=ORIENTED_EDGE('',*,*,#164,.F.);
#98=ORIENTED_EDGE('',*,*,#176,.T.);
#99=ORIENTED_EDGE('',*,*,#186,.F.);
#100=ORIENTED_EDGE('',*,*,#175,.T.);
#101=ORIENTED_EDGE('',*,*,#185,.F.);
#102=ORIENTED_EDGE('',*,*,#174,.T.);
#103=ORIENTED_EDGE('',*,*,#184,.F.);
#104=ORIENTED_EDGE('',*,*,#183,.F.);
#105=ORIENTED_EDGE('',*,*,#188,.T.);
#106=ORIENTED_EDGE('',*,*,#182,.F.);
#107=ORIENTED_EDGE('',*,*,#189,.T.);
#108=ORIENTED_EDGE('',*,*,#173,.T.);
#109=ORIENTED_EDGE('',*,*,#181,.F.);
#110=ORIENTED_EDGE('',*,*,#190,.F.);
#111=ORIENTED_EDGE('',*,*,#172,.T.);
#112=ORIENTED_EDGE('',*,*,#189,.F.);
#113=ORIENTED_EDGE('',*,*,#190,.T.);
#114=ORIENTED_EDGE('',*,*,#191,.F.);
#115=ORIENTED_EDGE('',*,*,#171,.T.);
#116=ORIENTED_EDGE('',*,*,#191,.T.);
#117=ORIENTED_EDGE('',*,*,#188,.F.);
#118=ORIENTED_EDGE('',*,*,#170,.T.);
#119=ORIENTED_EDGE('',*,*,#180,.T.);
#120=ORIENTED_EDGE('',*,*,#169,.T.);
#121=ORIENTED_EDGE('',*,*,#179,.T.);
#122=ORIENTED_EDGE('',*,*,#168,.T.);
#123=ORIENTED_EDGE('',*,*,#178,.T.);
#124=ORIENTED_EDGE('',*,*,#167,.T.);
#125=ORIENTED_EDGE('',*,*,#177,.T.);
#126=ORIENTED_EDGE('',*,*,#159,.T.);
#127=ORIENTED_EDGE('',*,*,#192,.T.);
#128=ORIENTED_EDGE('',*,*,#150,.F.);
#129=ORIENTED_EDGE('',*,*,#187,.F.);
#130=ORIENTED_EDGE('',*,*,#193,.F.);
#131=ORIENTED_EDGE('',*,*,#194,.T.);
#132=ORIENTED_EDGE('',*,*,#166,.T.);
#133=ORIENTED_EDGE('',*,*,#153,.T.);
#134=ORIENTED_EDGE('',*,*,#195,.F.);
#135=ORIENTED_EDGE('',*,*,#163,.F.);
#136=ORIENTED_EDGE('',*,*,#152,.T.);
#137=ORIENTED_EDGE('',*,*,#196,.T.);
#138=ORIENTED_EDGE('',*,*,#157,.F.);
#139=ORIENTED_EDGE('',*,*,#195,.T.);
#140=ORIENTED_EDGE('',*,*,#197,.F.);
#141=ORIENTED_EDGE('',*,*,#158,.F.);
#142=ORIENTED_EDGE('',*,*,#196,.F.);
#143=ORIENTED_EDGE('',*,*,#151,.F.);
#144=ORIENTED_EDGE('',*,*,#192,.F.);
#145=ORIENTED_EDGE('',*,*,#193,.T.);
#146=ORIENTED_EDGE('',*,*,#198,.F.);
#147=ORIENTED_EDGE('',*,*,#197,.T.);
#148=ORIENTED_EDGE('',*,*,#198,.T.);
#149=ORIENTED_EDGE('',*,*,#194,.F.);
#150=EDGE_CURVE('',#199,#200,#240,.T.);
#151=EDGE_CURVE('',#200,#201,#241,.T.);
#152=EDGE_CURVE('',#202,#201,#242,.T.);
#153=EDGE_CURVE('',#203,#202,#243,.T.);
#154=EDGE_CURVE('',#204,#203,#244,.T.);
#155=EDGE_CURVE('',#205,#204,#245,.T.);
#156=EDGE_CURVE('',#205,#199,#246,.T.);
#157=EDGE_CURVE('',#206,#207,#247,.T.);
#158=EDGE_CURVE('',#207,#208,#248,.F.);
#159=EDGE_CURVE('',#209,#208,#249,.T.);
#160=EDGE_CURVE('',#210,#209,#250,.T.);
#161=EDGE_CURVE('',#210,#211,#251,.T.);
#162=EDGE_CURVE('',#211,#212,#252,.T.);
#163=EDGE_CURVE('',#212,#206,#253,.T.);
#164=EDGE_CURVE('',#210,#205,#254,.T.);
#165=EDGE_CURVE('',#211,#204,#255,.F.);
#166=EDGE_CURVE('',#212,#203,#256,.T.);
#167=EDGE_CURVE('',#213,#213,#26,.T.);
#168=EDGE_CURVE('',#214,#214,#27,.T.);
#169=EDGE_CURVE('',#215,#215,#28,.T.);
#170=EDGE_CURVE('',#216,#216,#29,.T.);
#171=EDGE_CURVE('',#217,#217,#30,.T.);
#172=EDGE_CURVE('',#218,#218,#31,.T.);
#173=EDGE_CURVE('',#219,#219,#32,.T.);
#174=EDGE_CURVE('',#220,#220,#33,.T.);
#175=EDGE_CURVE('',#221,#221,#34,.T.);
#176=EDGE_CURVE('',#222,#222,#35,.T.);
#177=EDGE_CURVE('',#223,#223,#36,.T.);
#178=EDGE_CURVE('',#224,#224,#37,.T.);
#179=EDGE_CURVE('',#225,#225,#38,.T.);
#180=EDGE_CURVE('',#226,#226,#39,.T.);
#181=EDGE_CURVE('',#227,#227,#40,.T.);
#182=EDGE_CURVE('',#228,#228,#41,.T.);
#183=EDGE_CURVE('',#229,#229,#42,.T.);
#184=EDGE_CURVE('',#230,#230,#43,.T.);
#185=EDGE_CURVE('',#231,#231,#44,.T.);
#186=EDGE_CURVE('',#232,#232,#45,.T.);
#187=EDGE_CURVE('',#209,#199,#257,.T.);
#188=EDGE_CURVE('',#233,#233,#46,.T.);
#189=EDGE_CURVE('',#234,#234,#47,.T.);
#190=EDGE_CURVE('',#235,#235,#48,.T.);
#191=EDGE_CURVE('',#236,#236,#49,.T.);
#192=EDGE_CURVE('',#208,#200,#258,.F.);
#193=EDGE_CURVE('',#237,#238,#12,.T.);
#194=EDGE_CURVE('',#237,#238,#259,.T.);
#195=EDGE_CURVE('',#206,#202,#260,.F.);
#196=EDGE_CURVE('',#201,#207,#261,.T.);
#197=EDGE_CURVE('',#239,#239,#50,.T.);
#198=EDGE_CURVE('',#237,#238,#51,.T.);
#199=VERTEX_POINT('',#641);
#200=VERTEX_POINT('',#642);
#201=VERTEX_POINT('',#644);
#202=VERTEX_POINT('',#646);
#203=VERTEX_POINT('',#648);
#204=VERTEX_POINT('',#650);
#205=VERTEX_POINT('',#652);
#206=VERTEX_POINT('',#656);
#207=VERTEX_POINT('',#657);
#208=VERTEX_POINT('',#659);
#209=VERTEX_POINT('',#661);
#210=VERTEX_POINT('',#663);
#211=VERTEX_POINT('',#665);
#212=VERTEX_POINT('',#667);
#213=VERTEX_POINT('',#675);
#214=VERTEX_POINT('',#677);
#215=VERTEX_POINT('',#679);
#216=VERTEX_POINT('',#681);
#217=VERTEX_POINT('',#683);
#218=VERTEX_POINT('',#685);
#219=VERTEX_POINT('',#687);
#220=VERTEX_POINT('',#689);
#221=VERTEX_POINT('',#691);
#222=VERTEX_POINT('',#693);
#223=VERTEX_POINT('',#696);
#224=VERTEX_POINT('',#698);
#225=VERTEX_POINT('',#700);
#226=VERTEX_POINT('',#702);
#227=VERTEX_POINT('',#704);
#228=VERTEX_POINT('',#706);
#229=VERTEX_POINT('',#708);
#230=VERTEX_POINT('',#710);
#231=VERTEX_POINT('',#712);
#232=VERTEX_POINT('',#714);
#233=VERTEX_POINT('',#721);
#234=VERTEX_POINT('',#724);
#235=VERTEX_POINT('',#728);
#236=VERTEX_POINT('',#732);
#237=VERTEX_POINT('',#742);
#238=VERTEX_POINT('',#743);
#239=VERTEX_POINT('',#750);
#240=LINE('',#640,#262);
#241=LINE('',#643,#263);
#242=LINE('',#645,#264);
#243=LINE('',#647,#265);
#244=LINE('',#649,#266);
#245=LINE('',#651,#267);
#246=LINE('',#653,#268);
#247=LINE('',#655,#269);
#248=LINE('',#658,#270);
#249=LINE('',#660,#271);
#250=LINE('',#662,#272);
#251=LINE('',#664,#273);
#252=LINE('',#666,#274);
#253=LINE('',#668,#275);
#254=LINE('',#670,#276);
#255=LINE('',#671,#277);
#256=LINE('',#673,#278);
#257=LINE('',#715,#279);
#258=LINE('',#739,#280);
#259=LINE('',#744,#281);
#260=LINE('',#745,#282);
#261=LINE('',#747,#283);
#262=VECTOR('',#514,1.);
#263=VECTOR('',#515,1.);
#264=VECTOR('',#516,1.);
#265=VECTOR('',#517,1.);
#266=VECTOR('',#518,1.);
#267=VECTOR('',#519,1.);
#268=VECTOR('',#520,1.);
#269=VECTOR('',#523,1.);
#270=VECTOR('',#524,1.);
#271=VECTOR('',#525,1.);
#272=VECTOR('',#526,1.);
#273=VECTOR('',#527,1.);
#274=VECTOR('',#528,1.);
#275=VECTOR('',#529,1.);
#276=VECTOR('',#532,1.);
#277=VECTOR('',#533,1.);
#278=VECTOR('',#536,1.);
#279=VECTOR('',#579,1.);
#280=VECTOR('',#618,1.);
#281=VECTOR('',#623,1.);
#282=VECTOR('',#624,1.);
#283=VECTOR('',#627,1.);
#284=EDGE_LOOP('',(#52,#53,#54,#55,#56,#57,#58));
#285=EDGE_LOOP('',(#59,#60,#61,#62,#63,#64,#65));
#286=EDGE_LOOP('',(#66,#67,#68,#69));
#287=EDGE_LOOP('',(#70,#71,#72,#73));
#288=EDGE_LOOP('',(#74));
#289=EDGE_LOOP('',(#75));
#290=EDGE_LOOP('',(#76));
#291=EDGE_LOOP('',(#77));
#292=EDGE_LOOP('',(#78));
#293=EDGE_LOOP('',(#79));
#294=EDGE_LOOP('',(#80));
#295=EDGE_LOOP('',(#81));
#296=EDGE_LOOP('',(#82));
#297=EDGE_LOOP('',(#83));
#298=EDGE_LOOP('',(#84));
#299=EDGE_LOOP('',(#85));
#300=EDGE_LOOP('',(#86));
#301=EDGE_LOOP('',(#87));
#302=EDGE_LOOP('',(#88));
#303=EDGE_LOOP('',(#89));
#304=EDGE_LOOP('',(#90));
#305=EDGE_LOOP('',(#91));
#306=EDGE_LOOP('',(#92));
#307=EDGE_LOOP('',(#93));
#308=EDGE_LOOP('',(#94,#95,#96,#97));
#309=EDGE_LOOP('',(#98));
#310=EDGE_LOOP('',(#99));
#311=EDGE_LOOP('',(#100));
#312=EDGE_LOOP('',(#101));
#313=EDGE_LOOP('',(#102));
#314=EDGE_LOOP('',(#103));
#315=EDGE_LOOP('',(#104));
#316=EDGE_LOOP('',(#105));
#317=EDGE_LOOP('',(#106));
#318=EDGE_LOOP('',(#107));
#319=EDGE_LOOP('',(#108));
#320=EDGE_LOOP('',(#109));
#321=EDGE_LOOP('',(#110));
#322=EDGE_LOOP('',(#111));
#323=EDGE_LOOP('',(#112));
#324=EDGE_LOOP('',(#113));
#325=EDGE_LOOP('',(#114));
#326=EDGE_LOOP('',(#115));
#327=EDGE_LOOP('',(#116));
#328=EDGE_LOOP('',(#117));
#329=EDGE_LOOP('',(#118));
#330=EDGE_LOOP('',(#119));
#331=EDGE_LOOP('',(#120));
#332=EDGE_LOOP('',(#121));
#333=EDGE_LOOP('',(#122));
#334=EDGE_LOOP('',(#123));
#335=EDGE_LOOP('',(#124));
#336=EDGE_LOOP('',(#125));
#337=EDGE_LOOP('',(#126,#127,#128,#129));
#338=EDGE_LOOP('',(#130,#131));
#339=EDGE_LOOP('',(#132,#133,#134,#135));
#340=EDGE_LOOP('',(#136,#137,#138,#139));
#341=EDGE_LOOP('',(#140));
#342=EDGE_LOOP('',(#141,#142,#143,#144));
#343=EDGE_LOOP('',(#145,#146));
#344=EDGE_LOOP('',(#147));
#345=EDGE_LOOP('',(#148,#149));
#346=FACE_BOUND('',#284,.T.);
#347=FACE_BOUND('',#285,.T.);
#348=FACE_BOUND('',#286,.T.);
#349=FACE_BOUND('',#287,.T.);
#350=FACE_BOUND('',#288,.T.);
#351=FACE_BOUND('',#289,.T.);
#352=FACE_BOUND('',#290,.T.);
#353=FACE_BOUND('',#291,.T.);
#354=FACE_BOUND('',#292,.T.);
#355=FACE_BOUND('',#293,.T.);
#356=FACE_BOUND('',#294,.T.);
#357=FACE_BOUND('',#295,.T.);
#358=FACE_BOUND('',#296,.T.);
#359=FACE_BOUND('',#297,.T.);
#360=FACE_BOUND('',#298,.T.);
#361=FACE_BOUND('',#299,.T.);
#362=FACE_BOUND('',#300,.T.);
#363=FACE_BOUND('',#301,.T.);
#364=FACE_BOUND('',#302,.T.);
#365=FACE_BOUND('',#303,.T.);
#366=FACE_BOUND('',#304,.T.);
#367=FACE_BOUND('',#305,.T.);
#368=FACE_BOUND('',#306,.T.);
#369=FACE_BOUND('',#307,.T.);
#370=FACE_BOUND('',#308,.T.);
#371=FACE_BOUND('',#309,.T.);
#372=FACE_BOUND('',#310,.T.);
#373=FACE_BOUND('',#311,.T.);
#374=FACE_BOUND('',#312,.T.);
#375=FACE_BOUND('',#313,.T.);
#376=FACE_BOUND('',#314,.T.);
#377=FACE_BOUND('',#315,.T.);
#378=FACE_BOUND('',#316,.T.);
#379=FACE_BOUND('',#317,.T.);
#380=FACE_BOUND('',#318,.T.);
#381=FACE_BOUND('',#319,.T.);
#382=FACE_BOUND('',#320,.T.);
#383=FACE_BOUND('',#321,.T.);
#384=FACE_BOUND('',#322,.T.);
#385=FACE_BOUND('',#323,.T.);
#386=FACE_BOUND('',#324,.T.);
#387=FACE_BOUND('',#325,.T.);
#388=FACE_BOUND('',#326,.T.);
#389=FACE_BOUND('',#327,.T.);
#390=FACE_BOUND('',#328,.T.);
#391=FACE_BOUND('',#329,.T.);
#392=FACE_BOUND('',#330,.T.);
#393=FACE_BOUND('',#331,.T.);
#394=FACE_BOUND('',#332,.T.);
#395=FACE_BOUND('',#333,.T.);
#396=FACE_BOUND('',#334,.T.);
#397=FACE_BOUND('',#335,.T.);
#398=FACE_BOUND('',#336,.T.);
#399=FACE_BOUND('',#337,.T.);
#400=FACE_BOUND('',#338,.T.);
#401=FACE_BOUND('',#339,.T.);
#402=FACE_BOUND('',#340,.T.);
#403=FACE_BOUND('',#341,.T.);
#404=FACE_BOUND('',#342,.T.);
#405=FACE_BOUND('',#343,.T.);
#406=FACE_BOUND('',#344,.T.);
#407=FACE_BOUND('',#345,.T.);
#408=PLANE('',#458);
#409=PLANE('',#459);
#410=PLANE('',#460);
#411=PLANE('',#461);
#412=PLANE('',#472);
#413=PLANE('',#493);
#414=PLANE('',#496);
#415=PLANE('',#501);
#416=PLANE('',#502);
#417=PLANE('',#504);
#418=PLANE('',#505);
#419=PLANE('',#509);
#420=ADVANCED_FACE('',(#346),#408,.T.);
#421=ADVANCED_FACE('',(#347),#409,.F.);
#422=ADVANCED_FACE('',(#348),#410,.T.);
#423=ADVANCED_FACE('',(#349,#350,#351,#352,#353,#354,#355,#356,#357,#358,
#359),#411,.T.);
#424=ADVANCED_FACE('',(#360,#361,#362,#363,#364,#365,#366,#367,#368,#369,
#370),#412,.F.);
#425=ADVANCED_FACE('',(#371,#372),#13,.F.);
#426=ADVANCED_FACE('',(#373,#374),#14,.F.);
#427=ADVANCED_FACE('',(#375,#376),#15,.F.);
#428=ADVANCED_FACE('',(#377,#378),#16,.F.);
#429=ADVANCED_FACE('',(#379,#380),#17,.F.);
#430=ADVANCED_FACE('',(#381,#382),#18,.F.);
#431=ADVANCED_FACE('',(#383,#384),#19,.T.);
#432=ADVANCED_FACE('',(#385,#386),#413,.T.);
#433=ADVANCED_FACE('',(#387,#388),#20,.T.);
#434=ADVANCED_FACE('',(#389,#390),#414,.T.);
#435=ADVANCED_FACE('',(#391,#392),#21,.F.);
#436=ADVANCED_FACE('',(#393,#394),#22,.F.);
#437=ADVANCED_FACE('',(#395,#396),#23,.F.);
#438=ADVANCED_FACE('',(#397,#398),#24,.F.);
#439=ADVANCED_FACE('',(#399),#415,.F.);
#440=ADVANCED_FACE('',(#400,#401),#416,.T.);
#441=ADVANCED_FACE('',(#402),#417,.T.);
#442=ADVANCED_FACE('',(#403,#404),#418,.T.);
#443=ADVANCED_FACE('',(#405,#406),#25,.F.);
#444=ADVANCED_FACE('',(#407),#419,.T.);
#445=CLOSED_SHELL('',(#420,#421,#422,#423,#424,#425,#426,#427,#428,#429,
#430,#431,#432,#433,#434,#435,#436,#437,#438,#439,#440,#441,#442,#443,#444));
#446=STYLED_ITEM('',(#447),#454);
#447=PRESENTATION_STYLE_ASSIGNMENT((#448));
#448=SURFACE_STYLE_USAGE(.BOTH.,#449);
#449=SURFACE_SIDE_STYLE('',(#450));
#450=SURFACE_STYLE_FILL_AREA(#451);
#451=FILL_AREA_STYLE('',(#452));
#452=FILL_AREA_STYLE_COLOUR('',#453);
#453=COLOUR_RGB('',0.615686274509804,0.811764705882353,0.929411764705882);
#454=MANIFOLD_SOLID_BREP('Part 1',#445);
#455=SHAPE_DEFINITION_REPRESENTATION(#760,#456);
#456=SHAPE_REPRESENTATION('Part 1',(#457),#755);
#457=AXIS2_PLACEMENT_3D('',#638,#510,#511);
#458=AXIS2_PLACEMENT_3D('',#639,#512,#513);
#459=AXIS2_PLACEMENT_3D('',#654,#521,#522);
#460=AXIS2_PLACEMENT_3D('',#669,#530,#531);
#461=AXIS2_PLACEMENT_3D('',#672,#534,#535);
#462=AXIS2_PLACEMENT_3D('',#674,#537,#538);
#463=AXIS2_PLACEMENT_3D('',#676,#539,#540);
#464=AXIS2_PLACEMENT_3D('',#678,#541,#542);
#465=AXIS2_PLACEMENT_3D('',#680,#543,#544);
#466=AXIS2_PLACEMENT_3D('',#682,#545,#546);
#467=AXIS2_PLACEMENT_3D('',#684,#547,#548);
#468=AXIS2_PLACEMENT_3D('',#686,#549,#550);
#469=AXIS2_PLACEMENT_3D('',#688,#551,#552);
#470=AXIS2_PLACEMENT_3D('',#690,#553,#554);
#471=AXIS2_PLACEMENT_3D('',#692,#555,#556);
#472=AXIS2_PLACEMENT_3D('',#694,#557,#558);
#473=AXIS2_PLACEMENT_3D('',#695,#559,#560);
#474=AXIS2_PLACEMENT_3D('',#697,#561,#562);
#475=AXIS2_PLACEMENT_3D('',#699,#563,#564);
#476=AXIS2_PLACEMENT_3D('',#701,#565,#566);
#477=AXIS2_PLACEMENT_3D('',#703,#567,#568);
#478=AXIS2_PLACEMENT_3D('',#705,#569,#570);
#479=AXIS2_PLACEMENT_3D('',#707,#571,#572);
#480=AXIS2_PLACEMENT_3D('',#709,#573,#574);
#481=AXIS2_PLACEMENT_3D('',#711,#575,#576);
#482=AXIS2_PLACEMENT_3D('',#713,#577,#578);
#483=AXIS2_PLACEMENT_3D('',#716,#580,#581);
#484=AXIS2_PLACEMENT_3D('',#717,#582,#583);
#485=AXIS2_PLACEMENT_3D('',#718,#584,#585);
#486=AXIS2_PLACEMENT_3D('',#719,#586,#587);
#487=AXIS2_PLACEMENT_3D('',#720,#588,#589);
#488=AXIS2_PLACEMENT_3D('',#722,#590,#591);
#489=AXIS2_PLACEMENT_3D('',#723,#592,#593);
#490=AXIS2_PLACEMENT_3D('',#725,#594,#595);
#491=AXIS2_PLACEMENT_3D('',#726,#596,#597);
#492=AXIS2_PLACEMENT_3D('',#727,#598,#599);
#493=AXIS2_PLACEMENT_3D('',#729,#600,#601);
#494=AXIS2_PLACEMENT_3D('',#730,#602,#603);
#495=AXIS2_PLACEMENT_3D('',#731,#604,#605);
#496=AXIS2_PLACEMENT_3D('',#733,#606,#607);
#497=AXIS2_PLACEMENT_3D('',#734,#608,#609);
#498=AXIS2_PLACEMENT_3D('',#735,#610,#611);
#499=AXIS2_PLACEMENT_3D('',#736,#612,#613);
#500=AXIS2_PLACEMENT_3D('',#737,#614,#615);
#501=AXIS2_PLACEMENT_3D('',#738,#616,#617);
#502=AXIS2_PLACEMENT_3D('',#740,#619,#620);
#503=AXIS2_PLACEMENT_3D('',#741,#621,#622);
#504=AXIS2_PLACEMENT_3D('',#746,#625,#626);
#505=AXIS2_PLACEMENT_3D('',#748,#628,#629);
#506=AXIS2_PLACEMENT_3D('',#749,#630,#631);
#507=AXIS2_PLACEMENT_3D('',#751,#632,#633);
#508=AXIS2_PLACEMENT_3D('',#752,#634,#635);
#509=AXIS2_PLACEMENT_3D('',#753,#636,#637);
#510=DIRECTION('',(0.,0.,1.));
#511=DIRECTION('',(1.,0.,0.));
#512=DIRECTION('',(0.,-1.,0.));
#513=DIRECTION('',(1.,0.,0.));
#514=DIRECTION('',(0.,0.,1.));
#515=DIRECTION('',(-0.707106781186547,0.,0.707106781186548));
#516=DIRECTION('',(1.,0.,0.));
#517=DIRECTION('',(0.,0.,1.));
#518=DIRECTION('',(1.,0.,0.));
#519=DIRECTION('',(0.,0.,1.));
#520=DIRECTION('',(1.,0.,0.));
#521=DIRECTION('',(0.,-1.,0.));
#522=DIRECTION('',(1.,0.,0.));
#523=DIRECTION('',(1.,0.,0.));
#524=DIRECTION('',(-0.707106781186547,0.,0.707106781186548));
#525=DIRECTION('',(0.,0.,1.));
#526=DIRECTION('',(1.,0.,0.));
#527=DIRECTION('',(0.,0.,1.));
#528=DIRECTION('',(1.,0.,0.));
#529=DIRECTION('',(0.,0.,1.));
#530=DIRECTION('',(-1.,1.7347234759768E-16,0.));
#531=DIRECTION('',(-1.7347234759768E-16,-1.,0.));
#532=DIRECTION('',(-1.7347234759768E-16,-1.,0.));
#533=DIRECTION('',(0.,1.,0.));
#534=DIRECTION('',(0.,0.,1.));
#535=DIRECTION('',(1.,0.,0.));
#536=DIRECTION('',(3.46944695195362E-16,-1.,0.));
#537=DIRECTION('',(0.,0.,1.));
#538=DIRECTION('',(1.,0.,0.));
#539=DIRECTION('',(0.,0.,1.));
#540=DIRECTION('',(1.,0.,0.));
#541=DIRECTION('',(0.,0.,1.));
#542=DIRECTION('',(1.,0.,0.));
#543=DIRECTION('',(0.,0.,1.));
#544=DIRECTION('',(1.,0.,0.));
#545=DIRECTION('',(0.,0.,1.));
#546=DIRECTION('',(1.,0.,0.));
#547=DIRECTION('',(0.,0.,1.));
#548=DIRECTION('',(-0.992349948844868,-0.123456790123456,0.));
#549=DIRECTION('',(0.,0.,1.));
#550=DIRECTION('',(1.,0.,0.));
#551=DIRECTION('',(0.,0.,1.));
#552=DIRECTION('',(0.,1.,0.));
#553=DIRECTION('',(0.,0.,1.));
#554=DIRECTION('',(1.,0.,0.));
#555=DIRECTION('',(0.,0.,1.));
#556=DIRECTION('',(1.,0.,0.));
#557=DIRECTION('',(0.,0.,1.));
#558=DIRECTION('',(1.,0.,0.));
#559=DIRECTION('',(0.,0.,-1.));
#560=DIRECTION('',(1.,0.,0.));
#561=DIRECTION('',(0.,0.,-1.));
#562=DIRECTION('',(0.,-1.,0.));
#563=DIRECTION('',(0.,0.,-1.));
#564=DIRECTION('',(-1.,-8.67361737988405E-15,0.));
#565=DIRECTION('',(0.,0.,-1.));
#566=DIRECTION('',(0.,1.,0.));
#567=DIRECTION('',(0.,0.,1.));
#568=DIRECTION('',(1.,0.,0.));
#569=DIRECTION('',(0.,0.,1.));
#570=DIRECTION('',(1.,0.,0.));
#571=DIRECTION('',(0.,0.,1.));
#572=DIRECTION('',(1.,0.,0.));
#573=DIRECTION('',(0.,0.,1.));
#574=DIRECTION('',(1.,0.,0.));
#575=DIRECTION('',(0.,0.,1.));
#576=DIRECTION('',(1.,0.,0.));
#577=DIRECTION('',(0.,0.,1.));
#578=DIRECTION('',(1.,0.,0.));
#579=DIRECTION('',(-1.7347234759768E-16,-1.,0.));
#580=DIRECTION('',(0.,0.,1.));
#581=DIRECTION('',(1.,0.,0.));
#582=DIRECTION('',(0.,0.,1.));
#583=DIRECTION('',(1.,0.,0.));
#584=DIRECTION('',(0.,0.,1.));
#585=DIRECTION('',(1.,0.,0.));
#586=DIRECTION('',(0.,0.,1.));
#587=DIRECTION('',(1.,0.,0.));
#588=DIRECTION('',(0.,0.,1.));
#589=DIRECTION('',(1.,0.,0.));
#590=DIRECTION('',(0.,0.,1.));
#591=DIRECTION('',(1.,0.,0.));
#592=DIRECTION('',(0.,0.,1.));
#593=DIRECTION('',(1.,0.,0.));
#594=DIRECTION('',(0.,0.,1.));
#595=DIRECTION('',(1.,0.,0.));
#596=DIRECTION('',(0.,0.,1.));
#597=DIRECTION('',(1.,0.,0.));
#598=DIRECTION('',(0.,0.,1.));
#599=DIRECTION('',(1.,0.,0.));
#600=DIRECTION('',(0.,0.,1.));
#601=DIRECTION('',(1.,0.,0.));
#602=DIRECTION('',(0.,0.,1.));
#603=DIRECTION('',(1.,0.,0.));
#604=DIRECTION('',(0.,0.,1.));
#605=DIRECTION('',(1.,0.,0.));
#606=DIRECTION('',(0.,0.,1.));
#607=DIRECTION('',(1.,0.,0.));
#608=DIRECTION('',(0.,0.,-1.));
#609=DIRECTION('',(-1.,0.,0.));
#610=DIRECTION('',(0.,0.,-1.));
#611=DIRECTION('',(-1.,0.,0.));
#612=DIRECTION('',(0.,0.,-1.));
#613=DIRECTION('',(-1.,0.,0.));
#614=DIRECTION('',(0.,0.,-1.));
#615=DIRECTION('',(-1.,0.,0.));
#616=DIRECTION('',(-1.,1.7347234759768E-16,0.));
#617=DIRECTION('',(-1.7347234759768E-16,-1.,0.));
#618=DIRECTION('',(1.7347234759768E-16,1.,0.));
#619=DIRECTION('',(-1.,-3.46944695195362E-16,0.));
#620=DIRECTION('',(3.46944695195362E-16,-1.,0.));
#621=DIRECTION('',(-1.,-3.46944695195362E-16,0.));
#622=DIRECTION('',(1.80555932286303E-31,-5.20417042793043E-16,1.));
#623=DIRECTION('',(-3.46944695195362E-16,1.,5.20417042793043E-16));
#624=DIRECTION('',(0.,1.,0.));
#625=DIRECTION('',(0.,0.,1.));
#626=DIRECTION('',(1.,0.,0.));
#627=DIRECTION('',(1.7347234759768E-16,1.,0.));
#628=DIRECTION('',(0.707106781186548,-1.2266347333467E-16,0.707106781186547));
#629=DIRECTION('',(1.7347234759768E-16,1.,0.));
#630=DIRECTION('',(0.707106781186548,-1.2266347333467E-16,0.707106781186547));
#631=DIRECTION('',(0.,1.,0.));
#632=DIRECTION('',(0.707106781186548,-1.2266347333467E-16,0.707106781186547));
#633=DIRECTION('',(0.707106781186547,0.,-0.707106781186548));
#634=DIRECTION('',(0.707106781186548,-1.2266347333467E-16,0.707106781186547));
#635=DIRECTION('',(0.707106781186547,0.,-0.707106781186548));
#636=DIRECTION('',(0.707106781186548,-1.2266347333467E-16,0.707106781186547));
#637=DIRECTION('',(8.67361737988405E-17,1.,8.67361737988404E-17));
#638=CARTESIAN_POINT('',(0.,0.,0.));
#639=CARTESIAN_POINT('',(0.,-0.02,0.));
#640=CARTESIAN_POINT('',(0.055,-0.02,0.));
#641=CARTESIAN_POINT('',(0.055,-0.02,0.));
#642=CARTESIAN_POINT('',(0.055,-0.02,0.01));
#643=CARTESIAN_POINT('',(0.0325,-0.02,0.0325));
#644=CARTESIAN_POINT('',(0.047,-0.02,0.018));
#645=CARTESIAN_POINT('',(0.0075,-0.02,0.018));
#646=CARTESIAN_POINT('',(0.045,-0.02,0.018));
#647=CARTESIAN_POINT('',(0.045,-0.02,0.003));
#648=CARTESIAN_POINT('',(0.045,-0.02,0.003));
#649=CARTESIAN_POINT('',(0.,-0.02,0.003));
#650=CARTESIAN_POINT('',(-0.04,-0.02,0.003));
#651=CARTESIAN_POINT('',(-0.04,-0.02,0.));
#652=CARTESIAN_POINT('',(-0.04,-0.02,0.));
#653=CARTESIAN_POINT('',(0.,-0.02,0.));
#654=CARTESIAN_POINT('',(6.93889390390723E-18,0.02,0.));
#655=CARTESIAN_POINT('',(0.0075,0.02,0.018));
#656=CARTESIAN_POINT('',(0.045,0.02,0.018));
#657=CARTESIAN_POINT('',(0.047,0.02,0.018));
#658=CARTESIAN_POINT('',(0.0325,0.02,0.0325));
#659=CARTESIAN_POINT('',(0.055,0.02,0.01));
#660=CARTESIAN_POINT('',(0.055,0.02,0.));
#661=CARTESIAN_POINT('',(0.055,0.02,0.));
#662=CARTESIAN_POINT('',(6.93889390390723E-18,0.02,0.));
#663=CARTESIAN_POINT('',(-0.04,0.02,0.));
#664=CARTESIAN_POINT('',(-0.04,0.02,0.));
#665=CARTESIAN_POINT('',(-0.04,0.02,0.003));
#666=CARTESIAN_POINT('',(0.,0.02,0.003));
#667=CARTESIAN_POINT('',(0.045,0.02,0.003));
#668=CARTESIAN_POINT('',(0.045,0.02,0.003));
#669=CARTESIAN_POINT('',(-0.04,-3.46944695195361E-18,0.));
#670=CARTESIAN_POINT('',(-0.04,-3.46944695195361E-18,0.));
#671=CARTESIAN_POINT('',(-0.04,0.,0.003));
#672=CARTESIAN_POINT('',(0.,0.,0.003));
#673=CARTESIAN_POINT('',(0.045,-3.46944695195361E-18,0.003));
#674=CARTESIAN_POINT('',(0.0025,-0.01275,0.003));
#675=CARTESIAN_POINT('',(0.0033,-0.01275,0.003));
#676=CARTESIAN_POINT('',(0.0025,0.01275,0.003));
#677=CARTESIAN_POINT('',(0.0033,0.01275,0.003));
#678=CARTESIAN_POINT('',(0.028,0.01275,0.003));
#679=CARTESIAN_POINT('',(0.0288,0.01275,0.003));
#680=CARTESIAN_POINT('',(0.028,-0.01275,0.003));
#681=CARTESIAN_POINT('',(0.0288,-0.01275,0.003));
#682=CARTESIAN_POINT('',(-0.02,0.0095,0.003));
#683=CARTESIAN_POINT('',(-0.01595,0.0095,0.003));
#684=CARTESIAN_POINT('',(-0.02,-0.0095,0.003));
#685=CARTESIAN_POINT('',(-0.0240190172928217,-0.01,0.003));
#686=CARTESIAN_POINT('',(-0.035,0.01,0.003));
#687=CARTESIAN_POINT('',(-0.0341,0.01,0.003));
#688=CARTESIAN_POINT('',(-0.03,-0.015,0.003));
#689=CARTESIAN_POINT('',(-0.03,-0.0136,0.003));
#690=CARTESIAN_POINT('',(-0.03,0.015,0.003));
#691=CARTESIAN_POINT('',(-0.0286,0.015,0.003));
#692=CARTESIAN_POINT('',(-0.035,-0.01,0.003));
#693=CARTESIAN_POINT('',(-0.0341,-0.01,0.003));
#694=CARTESIAN_POINT('',(0.,0.,0.));
#695=CARTESIAN_POINT('',(0.0025,-0.01275,0.));
#696=CARTESIAN_POINT('',(0.0033,-0.01275,0.));
#697=CARTESIAN_POINT('',(0.0025,0.01275,0.));
#698=CARTESIAN_POINT('',(0.0025,0.01195,0.));
#699=CARTESIAN_POINT('',(0.028,0.01275,0.));
#700=CARTESIAN_POINT('',(0.0272,0.01275,0.));
#701=CARTESIAN_POINT('',(0.028,-0.01275,0.));
#702=CARTESIAN_POINT('',(0.028,-0.01195,0.));
#703=CARTESIAN_POINT('',(-0.035,0.01,0.));
#704=CARTESIAN_POINT('',(-0.0341,0.01,0.));
#705=CARTESIAN_POINT('',(-0.02,-0.0095,0.));
#706=CARTESIAN_POINT('',(-0.01695,-0.0095,0.));
#707=CARTESIAN_POINT('',(-0.02,0.0095,0.));
#708=CARTESIAN_POINT('',(-0.01695,0.0095,0.));
#709=CARTESIAN_POINT('',(-0.03,-0.015,0.));
#710=CARTESIAN_POINT('',(-0.0286,-0.015,0.));
#711=CARTESIAN_POINT('',(-0.03,0.015,0.));
#712=CARTESIAN_POINT('',(-0.0286,0.015,0.));
#713=CARTESIAN_POINT('',(-0.035,-0.01,0.));
#714=CARTESIAN_POINT('',(-0.0341,-0.01,0.));
#715=CARTESIAN_POINT('',(0.055,-6.07153216591882E-18,0.));
#716=CARTESIAN_POINT('',(-0.035,-0.01,0.003));
#717=CARTESIAN_POINT('',(-0.03,0.015,0.003));
#718=CARTESIAN_POINT('',(-0.03,-0.015,0.003));
#719=CARTESIAN_POINT('',(-0.02,0.0095,0.003));
#720=CARTESIAN_POINT('',(-0.02,0.0095,0.025));
#721=CARTESIAN_POINT('',(-0.01695,0.0095,0.025));
#722=CARTESIAN_POINT('',(-0.02,-0.0095,0.003));
#723=CARTESIAN_POINT('',(-0.02,-0.0095,0.025));
#724=CARTESIAN_POINT('',(-0.01695,-0.0095,0.025));
#725=CARTESIAN_POINT('',(-0.035,0.01,0.003));
#726=CARTESIAN_POINT('',(-0.02,-0.0095,0.003));
#727=CARTESIAN_POINT('',(-0.02,-0.0095,0.025));
#728=CARTESIAN_POINT('',(-0.0159499999999999,-0.0095,0.025));
#729=CARTESIAN_POINT('',(0.,0.,0.025));
#730=CARTESIAN_POINT('',(-0.02,0.0095,0.003));
#731=CARTESIAN_POINT('',(-0.02,0.0095,0.025));
#732=CARTESIAN_POINT('',(-0.01595,0.0095,0.025));
#733=CARTESIAN_POINT('',(0.,0.,0.025));
#734=CARTESIAN_POINT('',(0.028,-0.01275,0.));
#735=CARTESIAN_POINT('',(0.028,0.01275,0.));
#736=CARTESIAN_POINT('',(0.0025,0.01275,0.));
#737=CARTESIAN_POINT('',(0.0025,-0.01275,0.));
#738=CARTESIAN_POINT('',(0.055,-6.07153216591882E-18,0.));
#739=CARTESIAN_POINT('',(0.055,-6.07153216591882E-18,0.01));
#740=CARTESIAN_POINT('',(0.045,-3.46944695195361E-18,0.003));
#741=CARTESIAN_POINT('',(0.045,-4.5777769242885E-18,0.00777817459305203));
#742=CARTESIAN_POINT('',(0.045,-0.000987292677266097,0.00302943725152286));
#743=CARTESIAN_POINT('',(0.045,0.000987292677266092,0.00302943725152286));
#744=CARTESIAN_POINT('',(0.045,-3.48476659933909E-18,0.00302943725152286));
#745=CARTESIAN_POINT('',(0.045,-6.93889390390723E-18,0.018));
#746=CARTESIAN_POINT('',(0.0075,-6.93889390390723E-18,0.018));
#747=CARTESIAN_POINT('',(0.047,-1.37910516340156E-17,0.018));
#748=CARTESIAN_POINT('',(0.055,-6.07153216591882E-18,0.01));
#749=CARTESIAN_POINT('',(0.051110912703474,-5.63785129692462E-18,0.013889087296526));
#750=CARTESIAN_POINT('',(0.051110912703474,0.00349999999999999,0.013889087296526));
#751=CARTESIAN_POINT('',(0.051110912703474,-5.63785129692462E-18,0.013889087296526));
#752=CARTESIAN_POINT('',(0.0426256313292354,-4.16588961690858E-18,0.00540380592228744));
#753=CARTESIAN_POINT('',(0.0425147186257614,-4.16588961690859E-18,0.00551471862576143));
#754=MECHANICAL_DESIGN_GEOMETRIC_PRESENTATION_REPRESENTATION('',(#446),
#755);
#755=(
GEOMETRIC_REPRESENTATION_CONTEXT(3)
GLOBAL_UNCERTAINTY_ASSIGNED_CONTEXT((#756))
GLOBAL_UNIT_ASSIGNED_CONTEXT((#759,#758,#757))
REPRESENTATION_CONTEXT('Part 1','TOP_LEVEL_ASSEMBLY_PART')
);
#756=UNCERTAINTY_MEASURE_WITH_UNIT(LENGTH_MEASURE(1.E-8),#759,
'DISTANCE_ACCURACY_VALUE','Maximum Tolerance applied to model');
#757=(
NAMED_UNIT(*)
SI_UNIT($,.STERADIAN.)
SOLID_ANGLE_UNIT()
);
#758=(
NAMED_UNIT(*)
PLANE_ANGLE_UNIT()
SI_UNIT($,.RADIAN.)
);
#759=(
LENGTH_UNIT()
NAMED_UNIT(*)
SI_UNIT($,.METRE.)
);
#760=PRODUCT_DEFINITION_SHAPE('','',#761);
#761=PRODUCT_DEFINITION('','',#763,#762);
#762=PRODUCT_DEFINITION_CONTEXT('',#769,'design');
#763=PRODUCT_DEFINITION_FORMATION_WITH_SPECIFIED_SOURCE('','',#765,
 .NOT_KNOWN.);
#764=PRODUCT_RELATED_PRODUCT_CATEGORY('','',(#765));
#765=PRODUCT('Part 1','Part 1','Part 1',(#767));
#766=PRODUCT_CATEGORY('','');
#767=PRODUCT_CONTEXT('',#769,'mechanical');
#768=APPLICATION_PROTOCOL_DEFINITION('international standard',
'ap242_managed_model_based_3d_engineering',2020,#769);
#769=APPLICATION_CONTEXT('managed model based 3d engineering');
ENDSEC;
END-ISO-10303-21;
