ISO-10303-21;
HEADER;
/* Generated by software containing ST-Developer
 * from STEP Tools, Inc. (www.steptools.com) 
 */
/* OPTION: using custom renumber hook */

FILE_DESCRIPTION(
/* description */ ('STEP AP242 Edition 2',
'CAx-IF Rec.Pracs.---Representation and Presentation of Product Manufa
cturing Information (PMI)---4.0---2014-10-13',
'CAx-IF Rec.Pracs.---3D Tessellated Geometry---0.4---2014-09-14','2;1',
'CAx-IF Rec.Pracs.---User Defined Attributes---1.5---2016-08-15'),
/* implementation_level */ '2;1');

FILE_NAME(
/* name */ 'Part Studio 2',
/* time_stamp */ '2026-09-30T16:01:03Z',
/* author */ (''),
/* organization */ (''),
/* preprocessor_version */ 'ST-DEVELOPER v20',
/* originating_system */ 'ONSHAPE BY PTC INC, 1.221',
/* authorisation */ '  ');

FILE_SCHEMA (('AP242_MANAGED_MODEL_BASED_3D_ENGINEERING_MIM_LF { 1 0 10303 442 3 1 4 }'));
ENDSEC;

DATA;
#10=SHAPE_REPRESENTATION_RELATIONSHIP('','',#1010,#11);
#11=ADVANCED_BREP_SHAPE_REPRESENTATION('',(#1008),#1653);
#12=ELLIPSE('',#1060,0.00494974746830583,0.0035);
#13=CYLINDRICAL_SURFACE('',#1041,0.0009);
#14=CYLINDRICAL_SURFACE('',#1042,0.0014);
#15=CYLINDRICAL_SURFACE('',#1043,0.0014);
#16=CYLINDRICAL_SURFACE('',#1044,0.00305);
#17=CYLINDRICAL_SURFACE('',#1046,0.00305);
#18=CYLINDRICAL_SURFACE('',#1048,0.0009);
#19=CYLINDRICAL_SURFACE('',#1049,0.00405);
#20=CYLINDRICAL_SURFACE('',#1052,0.00405);
#21=CYLINDRICAL_SURFACE('',#1055,0.0008);
#22=CYLINDRICAL_SURFACE('',#1056,0.0008);
#23=CYLINDRICAL_SURFACE('',#1057,0.0008);
#24=CYLINDRICAL_SURFACE('',#1058,0.0008);
#25=CYLINDRICAL_SURFACE('',#1064,0.0035);
#26=CYLINDRICAL_SURFACE('',#1068,0.00740493953003542);
#27=CYLINDRICAL_SURFACE('',#1072,0.0285791551623618);
#28=CYLINDRICAL_SURFACE('',#1092,0.114114349406159);
#29=CYLINDRICAL_SURFACE('',#1094,0.00440070895371509);
#30=CYLINDRICAL_SURFACE('',#1096,0.0177567352577326);
#31=CIRCLE('',#1013,0.0177567352577326);
#32=CIRCLE('',#1014,0.00440070895371509);
#33=CIRCLE('',#1015,0.114114349406159);
#34=CIRCLE('',#1020,0.0008);
#35=CIRCLE('',#1021,0.0008);
#36=CIRCLE('',#1022,0.0008);
#37=CIRCLE('',#1023,0.0008);
#38=CIRCLE('',#1024,0.00405);
#39=CIRCLE('',#1025,0.00405);
#40=CIRCLE('',#1026,0.0009);
#41=CIRCLE('',#1027,0.0014);
#42=CIRCLE('',#1028,0.0014);
#43=CIRCLE('',#1029,0.0009);
#44=CIRCLE('',#1031,0.0008);
#45=CIRCLE('',#1032,0.0008);
#46=CIRCLE('',#1033,0.0008);
#47=CIRCLE('',#1034,0.0008);
#48=CIRCLE('',#1035,0.0009);
#49=CIRCLE('',#1036,0.00305);
#50=CIRCLE('',#1037,0.00305);
#51=CIRCLE('',#1038,0.0014);
#52=CIRCLE('',#1039,0.0014);
#53=CIRCLE('',#1040,0.0009);
#54=CIRCLE('',#1045,0.00305);
#55=CIRCLE('',#1047,0.00305000000000004);
#56=CIRCLE('',#1050,0.00405000000000006);
#57=CIRCLE('',#1053,0.00405);
#58=CIRCLE('',#1063,0.0035);
#59=CIRCLE('',#1065,0.0035);
#60=CIRCLE('',#1069,0.00740493953003542);
#61=CIRCLE('',#1070,0.00740493953003542);
#62=CIRCLE('',#1073,0.0285791551623618);
#63=CIRCLE('',#1074,0.0285791551623618);
#64=CIRCLE('',#1093,0.114114349406159);
#65=CIRCLE('',#1095,0.00440070895371509);
#66=CIRCLE('',#1097,0.0177567352577326);
#67=ORIENTED_EDGE('',*,*,#321,.T.);
#68=ORIENTED_EDGE('',*,*,#322,.T.);
#69=ORIENTED_EDGE('',*,*,#323,.F.);
#70=ORIENTED_EDGE('',*,*,#324,.F.);
#71=ORIENTED_EDGE('',*,*,#325,.T.);
#72=ORIENTED_EDGE('',*,*,#326,.T.);
#73=ORIENTED_EDGE('',*,*,#327,.T.);
#74=ORIENTED_EDGE('',*,*,#328,.T.);
#75=ORIENTED_EDGE('',*,*,#329,.T.);
#76=ORIENTED_EDGE('',*,*,#330,.T.);
#77=ORIENTED_EDGE('',*,*,#331,.T.);
#78=ORIENTED_EDGE('',*,*,#332,.T.);
#79=ORIENTED_EDGE('',*,*,#333,.T.);
#80=ORIENTED_EDGE('',*,*,#334,.T.);
#81=ORIENTED_EDGE('',*,*,#335,.T.);
#82=ORIENTED_EDGE('',*,*,#336,.T.);
#83=ORIENTED_EDGE('',*,*,#337,.T.);
#84=ORIENTED_EDGE('',*,*,#338,.T.);
#85=ORIENTED_EDGE('',*,*,#339,.T.);
#86=ORIENTED_EDGE('',*,*,#340,.T.);
#87=ORIENTED_EDGE('',*,*,#341,.T.);
#88=ORIENTED_EDGE('',*,*,#342,.T.);
#89=ORIENTED_EDGE('',*,*,#343,.T.);
#90=ORIENTED_EDGE('',*,*,#344,.T.);
#91=ORIENTED_EDGE('',*,*,#323,.T.);
#92=ORIENTED_EDGE('',*,*,#345,.T.);
#93=ORIENTED_EDGE('',*,*,#346,.F.);
#94=ORIENTED_EDGE('',*,*,#347,.F.);
#95=ORIENTED_EDGE('',*,*,#348,.F.);
#96=ORIENTED_EDGE('',*,*,#349,.F.);
#97=ORIENTED_EDGE('',*,*,#350,.T.);
#98=ORIENTED_EDGE('',*,*,#351,.T.);
#99=ORIENTED_EDGE('',*,*,#352,.T.);
#100=ORIENTED_EDGE('',*,*,#321,.F.);
#101=ORIENTED_EDGE('',*,*,#353,.F.);
#102=ORIENTED_EDGE('',*,*,#354,.T.);
#103=ORIENTED_EDGE('',*,*,#355,.T.);
#104=ORIENTED_EDGE('',*,*,#356,.T.);
#105=ORIENTED_EDGE('',*,*,#357,.T.);
#106=ORIENTED_EDGE('',*,*,#349,.T.);
#107=ORIENTED_EDGE('',*,*,#358,.F.);
#108=ORIENTED_EDGE('',*,*,#354,.F.);
#109=ORIENTED_EDGE('',*,*,#359,.F.);
#110=ORIENTED_EDGE('',*,*,#355,.F.);
#111=ORIENTED_EDGE('',*,*,#358,.T.);
#112=ORIENTED_EDGE('',*,*,#348,.T.);
#113=ORIENTED_EDGE('',*,*,#360,.F.);
#114=ORIENTED_EDGE('',*,*,#361,.F.);
#115=ORIENTED_EDGE('',*,*,#362,.F.);
#116=ORIENTED_EDGE('',*,*,#363,.F.);
#117=ORIENTED_EDGE('',*,*,#364,.F.);
#118=ORIENTED_EDGE('',*,*,#365,.F.);
#119=ORIENTED_EDGE('',*,*,#366,.F.);
#120=ORIENTED_EDGE('',*,*,#367,.F.);
#121=ORIENTED_EDGE('',*,*,#368,.F.);
#122=ORIENTED_EDGE('',*,*,#369,.F.);
#123=ORIENTED_EDGE('',*,*,#370,.F.);
#124=ORIENTED_EDGE('',*,*,#371,.F.);
#125=ORIENTED_EDGE('',*,*,#372,.F.);
#126=ORIENTED_EDGE('',*,*,#373,.F.);
#127=ORIENTED_EDGE('',*,*,#374,.T.);
#128=ORIENTED_EDGE('',*,*,#375,.T.);
#129=ORIENTED_EDGE('',*,*,#376,.T.);
#130=ORIENTED_EDGE('',*,*,#377,.T.);
#131=ORIENTED_EDGE('',*,*,#378,.T.);
#132=ORIENTED_EDGE('',*,*,#379,.T.);
#133=ORIENTED_EDGE('',*,*,#353,.T.);
#134=ORIENTED_EDGE('',*,*,#324,.T.);
#135=ORIENTED_EDGE('',*,*,#350,.F.);
#136=ORIENTED_EDGE('',*,*,#357,.F.);
#137=ORIENTED_EDGE('',*,*,#369,.T.);
#138=ORIENTED_EDGE('',*,*,#379,.F.);
#139=ORIENTED_EDGE('',*,*,#368,.T.);
#140=ORIENTED_EDGE('',*,*,#378,.F.);
#141=ORIENTED_EDGE('',*,*,#367,.T.);
#142=ORIENTED_EDGE('',*,*,#377,.F.);
#143=ORIENTED_EDGE('',*,*,#376,.F.);
#144=ORIENTED_EDGE('',*,*,#380,.T.);
#145=ORIENTED_EDGE('',*,*,#375,.F.);
#146=ORIENTED_EDGE('',*,*,#381,.T.);
#147=ORIENTED_EDGE('',*,*,#366,.T.);
#148=ORIENTED_EDGE('',*,*,#374,.F.);
#149=ORIENTED_EDGE('',*,*,#382,.F.);
#150=ORIENTED_EDGE('',*,*,#365,.T.);
#151=ORIENTED_EDGE('',*,*,#381,.F.);
#152=ORIENTED_EDGE('',*,*,#382,.T.);
#153=ORIENTED_EDGE('',*,*,#383,.F.);
#154=ORIENTED_EDGE('',*,*,#364,.T.);
#155=ORIENTED_EDGE('',*,*,#383,.T.);
#156=ORIENTED_EDGE('',*,*,#380,.F.);
#157=ORIENTED_EDGE('',*,*,#363,.T.);
#158=ORIENTED_EDGE('',*,*,#373,.T.);
#159=ORIENTED_EDGE('',*,*,#362,.T.);
#160=ORIENTED_EDGE('',*,*,#372,.T.);
#161=ORIENTED_EDGE('',*,*,#361,.T.);
#162=ORIENTED_EDGE('',*,*,#371,.T.);
#163=ORIENTED_EDGE('',*,*,#360,.T.);
#164=ORIENTED_EDGE('',*,*,#370,.T.);
#165=ORIENTED_EDGE('',*,*,#384,.F.);
#166=ORIENTED_EDGE('',*,*,#385,.T.);
#167=ORIENTED_EDGE('',*,*,#359,.T.);
#168=ORIENTED_EDGE('',*,*,#347,.T.);
#169=ORIENTED_EDGE('',*,*,#386,.F.);
#170=ORIENTED_EDGE('',*,*,#356,.F.);
#171=ORIENTED_EDGE('',*,*,#346,.T.);
#172=ORIENTED_EDGE('',*,*,#387,.T.);
#173=ORIENTED_EDGE('',*,*,#351,.F.);
#174=ORIENTED_EDGE('',*,*,#386,.T.);
#175=ORIENTED_EDGE('',*,*,#388,.F.);
#176=ORIENTED_EDGE('',*,*,#352,.F.);
#177=ORIENTED_EDGE('',*,*,#387,.F.);
#178=ORIENTED_EDGE('',*,*,#345,.F.);
#179=ORIENTED_EDGE('',*,*,#322,.F.);
#180=ORIENTED_EDGE('',*,*,#384,.T.);
#181=ORIENTED_EDGE('',*,*,#389,.F.);
#182=ORIENTED_EDGE('',*,*,#388,.T.);
#183=ORIENTED_EDGE('',*,*,#389,.T.);
#184=ORIENTED_EDGE('',*,*,#385,.F.);
#185=ORIENTED_EDGE('',*,*,#390,.F.);
#186=ORIENTED_EDGE('',*,*,#391,.F.);
#187=ORIENTED_EDGE('',*,*,#392,.T.);
#188=ORIENTED_EDGE('',*,*,#393,.T.);
#189=ORIENTED_EDGE('',*,*,#392,.F.);
#190=ORIENTED_EDGE('',*,*,#394,.F.);
#191=ORIENTED_EDGE('',*,*,#395,.T.);
#192=ORIENTED_EDGE('',*,*,#396,.T.);
#193=ORIENTED_EDGE('',*,*,#395,.F.);
#194=ORIENTED_EDGE('',*,*,#397,.F.);
#195=ORIENTED_EDGE('',*,*,#398,.T.);
#196=ORIENTED_EDGE('',*,*,#399,.T.);
#197=ORIENTED_EDGE('',*,*,#398,.F.);
#198=ORIENTED_EDGE('',*,*,#400,.F.);
#199=ORIENTED_EDGE('',*,*,#401,.T.);
#200=ORIENTED_EDGE('',*,*,#402,.T.);
#201=ORIENTED_EDGE('',*,*,#401,.F.);
#202=ORIENTED_EDGE('',*,*,#403,.F.);
#203=ORIENTED_EDGE('',*,*,#404,.T.);
#204=ORIENTED_EDGE('',*,*,#405,.T.);
#205=ORIENTED_EDGE('',*,*,#406,.F.);
#206=ORIENTED_EDGE('',*,*,#335,.F.);
#207=ORIENTED_EDGE('',*,*,#407,.T.);
#208=ORIENTED_EDGE('',*,*,#408,.T.);
#209=ORIENTED_EDGE('',*,*,#407,.F.);
#210=ORIENTED_EDGE('',*,*,#334,.F.);
#211=ORIENTED_EDGE('',*,*,#409,.T.);
#212=ORIENTED_EDGE('',*,*,#410,.T.);
#213=ORIENTED_EDGE('',*,*,#409,.F.);
#214=ORIENTED_EDGE('',*,*,#333,.F.);
#215=ORIENTED_EDGE('',*,*,#411,.T.);
#216=ORIENTED_EDGE('',*,*,#412,.T.);
#217=ORIENTED_EDGE('',*,*,#411,.F.);
#218=ORIENTED_EDGE('',*,*,#332,.F.);
#219=ORIENTED_EDGE('',*,*,#413,.T.);
#220=ORIENTED_EDGE('',*,*,#414,.T.);
#221=ORIENTED_EDGE('',*,*,#413,.F.);
#222=ORIENTED_EDGE('',*,*,#331,.F.);
#223=ORIENTED_EDGE('',*,*,#415,.T.);
#224=ORIENTED_EDGE('',*,*,#416,.T.);
#225=ORIENTED_EDGE('',*,*,#415,.F.);
#226=ORIENTED_EDGE('',*,*,#330,.F.);
#227=ORIENTED_EDGE('',*,*,#417,.T.);
#228=ORIENTED_EDGE('',*,*,#418,.T.);
#229=ORIENTED_EDGE('',*,*,#417,.F.);
#230=ORIENTED_EDGE('',*,*,#329,.F.);
#231=ORIENTED_EDGE('',*,*,#419,.T.);
#232=ORIENTED_EDGE('',*,*,#420,.T.);
#233=ORIENTED_EDGE('',*,*,#419,.F.);
#234=ORIENTED_EDGE('',*,*,#328,.F.);
#235=ORIENTED_EDGE('',*,*,#421,.T.);
#236=ORIENTED_EDGE('',*,*,#422,.T.);
#237=ORIENTED_EDGE('',*,*,#421,.F.);
#238=ORIENTED_EDGE('',*,*,#327,.F.);
#239=ORIENTED_EDGE('',*,*,#423,.T.);
#240=ORIENTED_EDGE('',*,*,#424,.T.);
#241=ORIENTED_EDGE('',*,*,#423,.F.);
#242=ORIENTED_EDGE('',*,*,#326,.F.);
#243=ORIENTED_EDGE('',*,*,#425,.T.);
#244=ORIENTED_EDGE('',*,*,#426,.T.);
#245=ORIENTED_EDGE('',*,*,#325,.F.);
#246=ORIENTED_EDGE('',*,*,#406,.T.);
#247=ORIENTED_EDGE('',*,*,#427,.T.);
#248=ORIENTED_EDGE('',*,*,#425,.F.);
#249=ORIENTED_EDGE('',*,*,#428,.F.);
#250=ORIENTED_EDGE('',*,*,#390,.T.);
#251=ORIENTED_EDGE('',*,*,#429,.T.);
#252=ORIENTED_EDGE('',*,*,#404,.F.);
#253=ORIENTED_EDGE('',*,*,#426,.F.);
#254=ORIENTED_EDGE('',*,*,#427,.F.);
#255=ORIENTED_EDGE('',*,*,#408,.F.);
#256=ORIENTED_EDGE('',*,*,#410,.F.);
#257=ORIENTED_EDGE('',*,*,#412,.F.);
#258=ORIENTED_EDGE('',*,*,#414,.F.);
#259=ORIENTED_EDGE('',*,*,#416,.F.);
#260=ORIENTED_EDGE('',*,*,#418,.F.);
#261=ORIENTED_EDGE('',*,*,#420,.F.);
#262=ORIENTED_EDGE('',*,*,#422,.F.);
#263=ORIENTED_EDGE('',*,*,#424,.F.);
#264=ORIENTED_EDGE('',*,*,#405,.F.);
#265=ORIENTED_EDGE('',*,*,#429,.F.);
#266=ORIENTED_EDGE('',*,*,#393,.F.);
#267=ORIENTED_EDGE('',*,*,#396,.F.);
#268=ORIENTED_EDGE('',*,*,#399,.F.);
#269=ORIENTED_EDGE('',*,*,#402,.F.);
#270=ORIENTED_EDGE('',*,*,#430,.F.);
#271=ORIENTED_EDGE('',*,*,#344,.F.);
#272=ORIENTED_EDGE('',*,*,#431,.T.);
#273=ORIENTED_EDGE('',*,*,#432,.T.);
#274=ORIENTED_EDGE('',*,*,#431,.F.);
#275=ORIENTED_EDGE('',*,*,#343,.F.);
#276=ORIENTED_EDGE('',*,*,#433,.T.);
#277=ORIENTED_EDGE('',*,*,#434,.T.);
#278=ORIENTED_EDGE('',*,*,#433,.F.);
#279=ORIENTED_EDGE('',*,*,#342,.F.);
#280=ORIENTED_EDGE('',*,*,#435,.T.);
#281=ORIENTED_EDGE('',*,*,#436,.T.);
#282=ORIENTED_EDGE('',*,*,#435,.F.);
#283=ORIENTED_EDGE('',*,*,#341,.F.);
#284=ORIENTED_EDGE('',*,*,#437,.T.);
#285=ORIENTED_EDGE('',*,*,#438,.T.);
#286=ORIENTED_EDGE('',*,*,#437,.F.);
#287=ORIENTED_EDGE('',*,*,#340,.F.);
#288=ORIENTED_EDGE('',*,*,#439,.T.);
#289=ORIENTED_EDGE('',*,*,#440,.T.);
#290=ORIENTED_EDGE('',*,*,#439,.F.);
#291=ORIENTED_EDGE('',*,*,#339,.F.);
#292=ORIENTED_EDGE('',*,*,#441,.T.);
#293=ORIENTED_EDGE('',*,*,#442,.T.);
#294=ORIENTED_EDGE('',*,*,#441,.F.);
#295=ORIENTED_EDGE('',*,*,#338,.F.);
#296=ORIENTED_EDGE('',*,*,#443,.T.);
#297=ORIENTED_EDGE('',*,*,#444,.T.);
#298=ORIENTED_EDGE('',*,*,#443,.F.);
#299=ORIENTED_EDGE('',*,*,#337,.F.);
#300=ORIENTED_EDGE('',*,*,#445,.T.);
#301=ORIENTED_EDGE('',*,*,#446,.T.);
#302=ORIENTED_EDGE('',*,*,#336,.F.);
#303=ORIENTED_EDGE('',*,*,#430,.T.);
#304=ORIENTED_EDGE('',*,*,#447,.T.);
#305=ORIENTED_EDGE('',*,*,#445,.F.);
#306=ORIENTED_EDGE('',*,*,#446,.F.);
#307=ORIENTED_EDGE('',*,*,#447,.F.);
#308=ORIENTED_EDGE('',*,*,#432,.F.);
#309=ORIENTED_EDGE('',*,*,#434,.F.);
#310=ORIENTED_EDGE('',*,*,#436,.F.);
#311=ORIENTED_EDGE('',*,*,#438,.F.);
#312=ORIENTED_EDGE('',*,*,#440,.F.);
#313=ORIENTED_EDGE('',*,*,#442,.F.);
#314=ORIENTED_EDGE('',*,*,#444,.F.);
#315=ORIENTED_EDGE('',*,*,#428,.T.);
#316=ORIENTED_EDGE('',*,*,#403,.T.);
#317=ORIENTED_EDGE('',*,*,#400,.T.);
#318=ORIENTED_EDGE('',*,*,#397,.T.);
#319=ORIENTED_EDGE('',*,*,#394,.T.);
#320=ORIENTED_EDGE('',*,*,#391,.T.);
#321=EDGE_CURVE('',#448,#449,#541,.T.);
#322=EDGE_CURVE('',#449,#450,#542,.F.);
#323=EDGE_CURVE('',#451,#450,#543,.T.);
#324=EDGE_CURVE('',#448,#451,#544,.T.);
#325=EDGE_CURVE('',#452,#453,#545,.T.);
#326=EDGE_CURVE('',#453,#454,#546,.T.);
#327=EDGE_CURVE('',#454,#455,#547,.T.);
#328=EDGE_CURVE('',#455,#456,#548,.T.);
#329=EDGE_CURVE('',#456,#457,#549,.T.);
#330=EDGE_CURVE('',#457,#458,#550,.T.);
#331=EDGE_CURVE('',#458,#459,#551,.T.);
#332=EDGE_CURVE('',#459,#460,#552,.T.);
#333=EDGE_CURVE('',#460,#461,#553,.T.);
#334=EDGE_CURVE('',#461,#462,#554,.T.);
#335=EDGE_CURVE('',#462,#452,#555,.T.);
#336=EDGE_CURVE('',#463,#464,#556,.T.);
#337=EDGE_CURVE('',#464,#465,#557,.T.);
#338=EDGE_CURVE('',#465,#466,#558,.T.);
#339=EDGE_CURVE('',#466,#467,#31,.F.);
#340=EDGE_CURVE('',#467,#468,#32,.F.);
#341=EDGE_CURVE('',#468,#469,#33,.F.);
#342=EDGE_CURVE('',#469,#470,#559,.T.);
#343=EDGE_CURVE('',#470,#471,#560,.T.);
#344=EDGE_CURVE('',#471,#463,#561,.T.);
#345=EDGE_CURVE('',#450,#472,#562,.T.);
#346=EDGE_CURVE('',#473,#472,#563,.T.);
#347=EDGE_CURVE('',#474,#473,#564,.T.);
#348=EDGE_CURVE('',#475,#474,#565,.T.);
#349=EDGE_CURVE('',#476,#475,#566,.T.);
#350=EDGE_CURVE('',#476,#451,#567,.T.);
#351=EDGE_CURVE('',#477,#478,#568,.T.);
#352=EDGE_CURVE('',#478,#449,#569,.F.);
#353=EDGE_CURVE('',#479,#448,#570,.T.);
#354=EDGE_CURVE('',#479,#480,#571,.T.);
#355=EDGE_CURVE('',#480,#481,#572,.T.);
#356=EDGE_CURVE('',#481,#477,#573,.T.);
#357=EDGE_CURVE('',#479,#476,#574,.T.);
#358=EDGE_CURVE('',#480,#475,#575,.F.);
#359=EDGE_CURVE('',#481,#474,#576,.T.);
#360=EDGE_CURVE('',#482,#482,#34,.T.);
#361=EDGE_CURVE('',#483,#483,#35,.T.);
#362=EDGE_CURVE('',#484,#484,#36,.T.);
#363=EDGE_CURVE('',#485,#485,#37,.T.);
#364=EDGE_CURVE('',#486,#486,#38,.T.);
#365=EDGE_CURVE('',#487,#487,#39,.T.);
#366=EDGE_CURVE('',#488,#488,#40,.T.);
#367=EDGE_CURVE('',#489,#489,#41,.T.);
#368=EDGE_CURVE('',#490,#490,#42,.T.);
#369=EDGE_CURVE('',#491,#491,#43,.T.);
#370=EDGE_CURVE('',#492,#492,#44,.T.);
#371=EDGE_CURVE('',#493,#493,#45,.T.);
#372=EDGE_CURVE('',#494,#494,#46,.T.);
#373=EDGE_CURVE('',#495,#495,#47,.T.);
#374=EDGE_CURVE('',#496,#496,#48,.T.);
#375=EDGE_CURVE('',#497,#497,#49,.T.);
#376=EDGE_CURVE('',#498,#498,#50,.T.);
#377=EDGE_CURVE('',#499,#499,#51,.T.);
#378=EDGE_CURVE('',#500,#500,#52,.T.);
#379=EDGE_CURVE('',#501,#501,#53,.T.);
#380=EDGE_CURVE('',#502,#502,#54,.T.);
#381=EDGE_CURVE('',#503,#503,#55,.T.);
#382=EDGE_CURVE('',#504,#504,#56,.T.);
#383=EDGE_CURVE('',#505,#505,#57,.T.);
#384=EDGE_CURVE('',#506,#507,#12,.T.);
#385=EDGE_CURVE('',#506,#507,#577,.T.);
#386=EDGE_CURVE('',#477,#473,#578,.F.);
#387=EDGE_CURVE('',#472,#478,#579,.T.);
#388=EDGE_CURVE('',#508,#508,#58,.T.);
#389=EDGE_CURVE('',#506,#507,#59,.T.);
#390=EDGE_CURVE('',#509,#510,#580,.T.);
#391=EDGE_CURVE('',#511,#509,#581,.T.);
#392=EDGE_CURVE('',#511,#512,#582,.T.);
#393=EDGE_CURVE('',#512,#510,#583,.T.);
#394=EDGE_CURVE('',#513,#511,#60,.F.);
#395=EDGE_CURVE('',#513,#514,#584,.T.);
#396=EDGE_CURVE('',#514,#512,#61,.F.);
#397=EDGE_CURVE('',#515,#513,#585,.T.);
#398=EDGE_CURVE('',#515,#516,#586,.T.);
#399=EDGE_CURVE('',#516,#514,#587,.F.);
#400=EDGE_CURVE('',#517,#515,#62,.F.);
#401=EDGE_CURVE('',#517,#518,#588,.T.);
#402=EDGE_CURVE('',#518,#516,#63,.F.);
#403=EDGE_CURVE('',#519,#517,#589,.T.);
#404=EDGE_CURVE('',#519,#520,#590,.T.);
#405=EDGE_CURVE('',#520,#518,#591,.T.);
#406=EDGE_CURVE('',#452,#521,#592,.T.);
#407=EDGE_CURVE('',#462,#522,#593,.T.);
#408=EDGE_CURVE('',#522,#521,#594,.T.);
#409=EDGE_CURVE('',#461,#523,#595,.T.);
#410=EDGE_CURVE('',#523,#522,#596,.F.);
#411=EDGE_CURVE('',#460,#524,#597,.T.);
#412=EDGE_CURVE('',#524,#523,#598,.T.);
#413=EDGE_CURVE('',#459,#525,#599,.T.);
#414=EDGE_CURVE('',#525,#524,#600,.T.);
#415=EDGE_CURVE('',#458,#526,#601,.T.);
#416=EDGE_CURVE('',#526,#525,#602,.T.);
#417=EDGE_CURVE('',#457,#527,#603,.T.);
#418=EDGE_CURVE('',#527,#526,#604,.F.);
#419=EDGE_CURVE('',#456,#528,#605,.T.);
#420=EDGE_CURVE('',#528,#527,#606,.T.);
#421=EDGE_CURVE('',#455,#529,#607,.T.);
#422=EDGE_CURVE('',#529,#528,#608,.F.);
#423=EDGE_CURVE('',#454,#530,#609,.T.);
#424=EDGE_CURVE('',#530,#529,#610,.F.);
#425=EDGE_CURVE('',#453,#531,#611,.T.);
#426=EDGE_CURVE('',#531,#530,#612,.F.);
#427=EDGE_CURVE('',#521,#531,#613,.F.);
#428=EDGE_CURVE('',#509,#519,#614,.T.);
#429=EDGE_CURVE('',#510,#520,#615,.T.);
#430=EDGE_CURVE('',#463,#532,#616,.T.);
#431=EDGE_CURVE('',#471,#533,#617,.T.);
#432=EDGE_CURVE('',#533,#532,#618,.T.);
#433=EDGE_CURVE('',#470,#534,#619,.T.);
#434=EDGE_CURVE('',#534,#533,#620,.T.);
#435=EDGE_CURVE('',#469,#535,#621,.T.);
#436=EDGE_CURVE('',#535,#534,#622,.T.);
#437=EDGE_CURVE('',#468,#536,#623,.T.);
#438=EDGE_CURVE('',#536,#535,#64,.F.);
#439=EDGE_CURVE('',#467,#537,#624,.T.);
#440=EDGE_CURVE('',#537,#536,#65,.F.);
#441=EDGE_CURVE('',#466,#538,#625,.T.);
#442=EDGE_CURVE('',#538,#537,#66,.F.);
#443=EDGE_CURVE('',#465,#539,#626,.T.);
#444=EDGE_CURVE('',#539,#538,#627,.T.);
#445=EDGE_CURVE('',#464,#540,#628,.T.);
#446=EDGE_CURVE('',#540,#539,#629,.F.);
#447=EDGE_CURVE('',#532,#540,#630,.F.);
#448=VERTEX_POINT('',#1380);
#449=VERTEX_POINT('',#1381);
#450=VERTEX_POINT('',#1383);
#451=VERTEX_POINT('',#1385);
#452=VERTEX_POINT('',#1388);
#453=VERTEX_POINT('',#1389);
#454=VERTEX_POINT('',#1391);
#455=VERTEX_POINT('',#1393);
#456=VERTEX_POINT('',#1395);
#457=VERTEX_POINT('',#1397);
#458=VERTEX_POINT('',#1399);
#459=VERTEX_POINT('',#1401);
#460=VERTEX_POINT('',#1403);
#461=VERTEX_POINT('',#1405);
#462=VERTEX_POINT('',#1407);
#463=VERTEX_POINT('',#1410);
#464=VERTEX_POINT('',#1411);
#465=VERTEX_POINT('',#1413);
#466=VERTEX_POINT('',#1415);
#467=VERTEX_POINT('',#1417);
#468=VERTEX_POINT('',#1419);
#469=VERTEX_POINT('',#1421);
#470=VERTEX_POINT('',#1423);
#471=VERTEX_POINT('',#1425);
#472=VERTEX_POINT('',#1429);
#473=VERTEX_POINT('',#1431);
#474=VERTEX_POINT('',#1433);
#475=VERTEX_POINT('',#1435);
#476=VERTEX_POINT('',#1437);
#477=VERTEX_POINT('',#1441);
#478=VERTEX_POINT('',#1442);
#479=VERTEX_POINT('',#1445);
#480=VERTEX_POINT('',#1447);
#481=VERTEX_POINT('',#1449);
#482=VERTEX_POINT('',#1457);
#483=VERTEX_POINT('',#1459);
#484=VERTEX_POINT('',#1461);
#485=VERTEX_POINT('',#1463);
#486=VERTEX_POINT('',#1465);
#487=VERTEX_POINT('',#1467);
#488=VERTEX_POINT('',#1469);
#489=VERTEX_POINT('',#1471);
#490=VERTEX_POINT('',#1473);
#491=VERTEX_POINT('',#1475);
#492=VERTEX_POINT('',#1478);
#493=VERTEX_POINT('',#1480);
#494=VERTEX_POINT('',#1482);
#495=VERTEX_POINT('',#1484);
#496=VERTEX_POINT('',#1486);
#497=VERTEX_POINT('',#1488);
#498=VERTEX_POINT('',#1490);
#499=VERTEX_POINT('',#1492);
#500=VERTEX_POINT('',#1494);
#501=VERTEX_POINT('',#1496);
#502=VERTEX_POINT('',#1502);
#503=VERTEX_POINT('',#1505);
#504=VERTEX_POINT('',#1509);
#505=VERTEX_POINT('',#1513);
#506=VERTEX_POINT('',#1521);
#507=VERTEX_POINT('',#1522);
#508=VERTEX_POINT('',#1529);
#509=VERTEX_POINT('',#1535);
#510=VERTEX_POINT('',#1536);
#511=VERTEX_POINT('',#1538);
#512=VERTEX_POINT('',#1540);
#513=VERTEX_POINT('',#1544);
#514=VERTEX_POINT('',#1546);
#515=VERTEX_POINT('',#1550);
#516=VERTEX_POINT('',#1552);
#517=VERTEX_POINT('',#1556);
#518=VERTEX_POINT('',#1558);
#519=VERTEX_POINT('',#1562);
#520=VERTEX_POINT('',#1564);
#521=VERTEX_POINT('',#1568);
#522=VERTEX_POINT('',#1570);
#523=VERTEX_POINT('',#1574);
#524=VERTEX_POINT('',#1578);
#525=VERTEX_POINT('',#1582);
#526=VERTEX_POINT('',#1586);
#527=VERTEX_POINT('',#1590);
#528=VERTEX_POINT('',#1594);
#529=VERTEX_POINT('',#1598);
#530=VERTEX_POINT('',#1602);
#531=VERTEX_POINT('',#1606);
#532=VERTEX_POINT('',#1616);
#533=VERTEX_POINT('',#1618);
#534=VERTEX_POINT('',#1622);
#535=VERTEX_POINT('',#1626);
#536=VERTEX_POINT('',#1630);
#537=VERTEX_POINT('',#1634);
#538=VERTEX_POINT('',#1638);
#539=VERTEX_POINT('',#1642);
#540=VERTEX_POINT('',#1646);
#541=LINE('',#1379,#631);
#542=LINE('',#1382,#632);
#543=LINE('',#1384,#633);
#544=LINE('',#1386,#634);
#545=LINE('',#1387,#635);
#546=LINE('',#1390,#636);
#547=LINE('',#1392,#637);
#548=LINE('',#1394,#638);
#549=LINE('',#1396,#639);
#550=LINE('',#1398,#640);
#551=LINE('',#1400,#641);
#552=LINE('',#1402,#642);
#553=LINE('',#1404,#643);
#554=LINE('',#1406,#644);
#555=LINE('',#1408,#645);
#556=LINE('',#1409,#646);
#557=LINE('',#1412,#647);
#558=LINE('',#1414,#648);
#559=LINE('',#1422,#649);
#560=LINE('',#1424,#650);
#561=LINE('',#1426,#651);
#562=LINE('',#1428,#652);
#563=LINE('',#1430,#653);
#564=LINE('',#1432,#654);
#565=LINE('',#1434,#655);
#566=LINE('',#1436,#656);
#567=LINE('',#1438,#657);
#568=LINE('',#1440,#658);
#569=LINE('',#1443,#659);
#570=LINE('',#1444,#660);
#571=LINE('',#1446,#661);
#572=LINE('',#1448,#662);
#573=LINE('',#1450,#663);
#574=LINE('',#1452,#664);
#575=LINE('',#1453,#665);
#576=LINE('',#1455,#666);
#577=LINE('',#1523,#667);
#578=LINE('',#1524,#668);
#579=LINE('',#1526,#669);
#580=LINE('',#1534,#670);
#581=LINE('',#1537,#671);
#582=LINE('',#1539,#672);
#583=LINE('',#1541,#673);
#584=LINE('',#1545,#674);
#585=LINE('',#1549,#675);
#586=LINE('',#1551,#676);
#587=LINE('',#1553,#677);
#588=LINE('',#1557,#678);
#589=LINE('',#1561,#679);
#590=LINE('',#1563,#680);
#591=LINE('',#1565,#681);
#592=LINE('',#1567,#682);
#593=LINE('',#1569,#683);
#594=LINE('',#1571,#684);
#595=LINE('',#1573,#685);
#596=LINE('',#1575,#686);
#597=LINE('',#1577,#687);
#598=LINE('',#1579,#688);
#599=LINE('',#1581,#689);
#600=LINE('',#1583,#690);
#601=LINE('',#1585,#691);
#602=LINE('',#1587,#692);
#603=LINE('',#1589,#693);
#604=LINE('',#1591,#694);
#605=LINE('',#1593,#695);
#606=LINE('',#1595,#696);
#607=LINE('',#1597,#697);
#608=LINE('',#1599,#698);
#609=LINE('',#1601,#699);
#610=LINE('',#1603,#700);
#611=LINE('',#1605,#701);
#612=LINE('',#1607,#702);
#613=LINE('',#1609,#703);
#614=LINE('',#1611,#704);
#615=LINE('',#1612,#705);
#616=LINE('',#1615,#706);
#617=LINE('',#1617,#707);
#618=LINE('',#1619,#708);
#619=LINE('',#1621,#709);
#620=LINE('',#1623,#710);
#621=LINE('',#1625,#711);
#622=LINE('',#1627,#712);
#623=LINE('',#1629,#713);
#624=LINE('',#1633,#714);
#625=LINE('',#1637,#715);
#626=LINE('',#1641,#716);
#627=LINE('',#1643,#717);
#628=LINE('',#1645,#718);
#629=LINE('',#1647,#719);
#630=LINE('',#1649,#720);
#631=VECTOR('',#1107,1.);
#632=VECTOR('',#1108,1.);
#633=VECTOR('',#1109,1.);
#634=VECTOR('',#1110,1.);
#635=VECTOR('',#1111,1.);
#636=VECTOR('',#1112,1.);
#637=VECTOR('',#1113,1.);
#638=VECTOR('',#1114,1.);
#639=VECTOR('',#1115,1.);
#640=VECTOR('',#1116,1.);
#641=VECTOR('',#1117,1.);
#642=VECTOR('',#1118,1.);
#643=VECTOR('',#1119,1.);
#644=VECTOR('',#1120,1.);
#645=VECTOR('',#1121,1.);
#646=VECTOR('',#1122,1.);
#647=VECTOR('',#1123,1.);
#648=VECTOR('',#1124,1.);
#649=VECTOR('',#1131,1.);
#650=VECTOR('',#1132,1.);
#651=VECTOR('',#1133,1.);
#652=VECTOR('',#1136,1.);
#653=VECTOR('',#1137,1.);
#654=VECTOR('',#1138,1.);
#655=VECTOR('',#1139,1.);
#656=VECTOR('',#1140,1.);
#657=VECTOR('',#1141,1.);
#658=VECTOR('',#1144,1.);
#659=VECTOR('',#1145,1.);
#660=VECTOR('',#1146,1.);
#661=VECTOR('',#1147,1.);
#662=VECTOR('',#1148,1.);
#663=VECTOR('',#1149,1.);
#664=VECTOR('',#1152,1.);
#665=VECTOR('',#1153,1.);
#666=VECTOR('',#1156,1.);
#667=VECTOR('',#1239,1.);
#668=VECTOR('',#1240,1.);
#669=VECTOR('',#1243,1.);
#670=VECTOR('',#1256,1.);
#671=VECTOR('',#1257,1.);
#672=VECTOR('',#1258,1.);
#673=VECTOR('',#1259,1.);
#674=VECTOR('',#1264,1.);
#675=VECTOR('',#1269,1.);
#676=VECTOR('',#1270,1.);
#677=VECTOR('',#1271,1.);
#678=VECTOR('',#1276,1.);
#679=VECTOR('',#1281,1.);
#680=VECTOR('',#1282,1.);
#681=VECTOR('',#1283,1.);
#682=VECTOR('',#1286,1.);
#683=VECTOR('',#1287,1.);
#684=VECTOR('',#1288,1.);
#685=VECTOR('',#1291,1.);
#686=VECTOR('',#1292,1.);
#687=VECTOR('',#1295,1.);
#688=VECTOR('',#1296,1.);
#689=VECTOR('',#1299,1.);
#690=VECTOR('',#1300,1.);
#691=VECTOR('',#1303,1.);
#692=VECTOR('',#1304,1.);
#693=VECTOR('',#1307,1.);
#694=VECTOR('',#1308,1.);
#695=VECTOR('',#1311,1.);
#696=VECTOR('',#1312,1.);
#697=VECTOR('',#1315,1.);
#698=VECTOR('',#1316,1.);
#699=VECTOR('',#1319,1.);
#700=VECTOR('',#1320,1.);
#701=VECTOR('',#1323,1.);
#702=VECTOR('',#1324,1.);
#703=VECTOR('',#1327,1.);
#704=VECTOR('',#1330,1.);
#705=VECTOR('',#1331,1.);
#706=VECTOR('',#1336,1.);
#707=VECTOR('',#1337,1.);
#708=VECTOR('',#1338,1.);
#709=VECTOR('',#1341,1.);
#710=VECTOR('',#1342,1.);
#711=VECTOR('',#1345,1.);
#712=VECTOR('',#1346,1.);
#713=VECTOR('',#1349,1.);
#714=VECTOR('',#1354,1.);
#715=VECTOR('',#1359,1.);
#716=VECTOR('',#1364,1.);
#717=VECTOR('',#1365,1.);
#718=VECTOR('',#1368,1.);
#719=VECTOR('',#1369,1.);
#720=VECTOR('',#1372,1.);
#721=EDGE_LOOP('',(#67,#68,#69,#70));
#722=EDGE_LOOP('',(#71,#72,#73,#74,#75,#76,#77,#78,#79,#80,#81));
#723=EDGE_LOOP('',(#82,#83,#84,#85,#86,#87,#88,#89,#90));
#724=EDGE_LOOP('',(#91,#92,#93,#94,#95,#96,#97));
#725=EDGE_LOOP('',(#98,#99,#100,#101,#102,#103,#104));
#726=EDGE_LOOP('',(#105,#106,#107,#108));
#727=EDGE_LOOP('',(#109,#110,#111,#112));
#728=EDGE_LOOP('',(#113));
#729=EDGE_LOOP('',(#114));
#730=EDGE_LOOP('',(#115));
#731=EDGE_LOOP('',(#116));
#732=EDGE_LOOP('',(#117));
#733=EDGE_LOOP('',(#118));
#734=EDGE_LOOP('',(#119));
#735=EDGE_LOOP('',(#120));
#736=EDGE_LOOP('',(#121));
#737=EDGE_LOOP('',(#122));
#738=EDGE_LOOP('',(#123));
#739=EDGE_LOOP('',(#124));
#740=EDGE_LOOP('',(#125));
#741=EDGE_LOOP('',(#126));
#742=EDGE_LOOP('',(#127));
#743=EDGE_LOOP('',(#128));
#744=EDGE_LOOP('',(#129));
#745=EDGE_LOOP('',(#130));
#746=EDGE_LOOP('',(#131));
#747=EDGE_LOOP('',(#132));
#748=EDGE_LOOP('',(#133,#134,#135,#136));
#749=EDGE_LOOP('',(#137));
#750=EDGE_LOOP('',(#138));
#751=EDGE_LOOP('',(#139));
#752=EDGE_LOOP('',(#140));
#753=EDGE_LOOP('',(#141));
#754=EDGE_LOOP('',(#142));
#755=EDGE_LOOP('',(#143));
#756=EDGE_LOOP('',(#144));
#757=EDGE_LOOP('',(#145));
#758=EDGE_LOOP('',(#146));
#759=EDGE_LOOP('',(#147));
#760=EDGE_LOOP('',(#148));
#761=EDGE_LOOP('',(#149));
#762=EDGE_LOOP('',(#150));
#763=EDGE_LOOP('',(#151));
#764=EDGE_LOOP('',(#152));
#765=EDGE_LOOP('',(#153));
#766=EDGE_LOOP('',(#154));
#767=EDGE_LOOP('',(#155));
#768=EDGE_LOOP('',(#156));
#769=EDGE_LOOP('',(#157));
#770=EDGE_LOOP('',(#158));
#771=EDGE_LOOP('',(#159));
#772=EDGE_LOOP('',(#160));
#773=EDGE_LOOP('',(#161));
#774=EDGE_LOOP('',(#162));
#775=EDGE_LOOP('',(#163));
#776=EDGE_LOOP('',(#164));
#777=EDGE_LOOP('',(#165,#166));
#778=EDGE_LOOP('',(#167,#168,#169,#170));
#779=EDGE_LOOP('',(#171,#172,#173,#174));
#780=EDGE_LOOP('',(#175));
#781=EDGE_LOOP('',(#176,#177,#178,#179));
#782=EDGE_LOOP('',(#180,#181));
#783=EDGE_LOOP('',(#182));
#784=EDGE_LOOP('',(#183,#184));
#785=EDGE_LOOP('',(#185,#186,#187,#188));
#786=EDGE_LOOP('',(#189,#190,#191,#192));
#787=EDGE_LOOP('',(#193,#194,#195,#196));
#788=EDGE_LOOP('',(#197,#198,#199,#200));
#789=EDGE_LOOP('',(#201,#202,#203,#204));
#790=EDGE_LOOP('',(#205,#206,#207,#208));
#791=EDGE_LOOP('',(#209,#210,#211,#212));
#792=EDGE_LOOP('',(#213,#214,#215,#216));
#793=EDGE_LOOP('',(#217,#218,#219,#220));
#794=EDGE_LOOP('',(#221,#222,#223,#224));
#795=EDGE_LOOP('',(#225,#226,#227,#228));
#796=EDGE_LOOP('',(#229,#230,#231,#232));
#797=EDGE_LOOP('',(#233,#234,#235,#236));
#798=EDGE_LOOP('',(#237,#238,#239,#240));
#799=EDGE_LOOP('',(#241,#242,#243,#244));
#800=EDGE_LOOP('',(#245,#246,#247,#248));
#801=EDGE_LOOP('',(#249,#250,#251,#252));
#802=EDGE_LOOP('',(#253,#254,#255,#256,#257,#258,#259,#260,#261,#262,#263));
#803=EDGE_LOOP('',(#264,#265,#266,#267,#268,#269));
#804=EDGE_LOOP('',(#270,#271,#272,#273));
#805=EDGE_LOOP('',(#274,#275,#276,#277));
#806=EDGE_LOOP('',(#278,#279,#280,#281));
#807=EDGE_LOOP('',(#282,#283,#284,#285));
#808=EDGE_LOOP('',(#286,#287,#288,#289));
#809=EDGE_LOOP('',(#290,#291,#292,#293));
#810=EDGE_LOOP('',(#294,#295,#296,#297));
#811=EDGE_LOOP('',(#298,#299,#300,#301));
#812=EDGE_LOOP('',(#302,#303,#304,#305));
#813=EDGE_LOOP('',(#306,#307,#308,#309,#310,#311,#312,#313,#314));
#814=EDGE_LOOP('',(#315,#316,#317,#318,#319,#320));
#815=FACE_BOUND('',#721,.T.);
#816=FACE_BOUND('',#722,.T.);
#817=FACE_BOUND('',#723,.T.);
#818=FACE_BOUND('',#724,.T.);
#819=FACE_BOUND('',#725,.T.);
#820=FACE_BOUND('',#726,.T.);
#821=FACE_BOUND('',#727,.T.);
#822=FACE_BOUND('',#728,.T.);
#823=FACE_BOUND('',#729,.T.);
#824=FACE_BOUND('',#730,.T.);
#825=FACE_BOUND('',#731,.T.);
#826=FACE_BOUND('',#732,.T.);
#827=FACE_BOUND('',#733,.T.);
#828=FACE_BOUND('',#734,.T.);
#829=FACE_BOUND('',#735,.T.);
#830=FACE_BOUND('',#736,.T.);
#831=FACE_BOUND('',#737,.T.);
#832=FACE_BOUND('',#738,.T.);
#833=FACE_BOUND('',#739,.T.);
#834=FACE_BOUND('',#740,.T.);
#835=FACE_BOUND('',#741,.T.);
#836=FACE_BOUND('',#742,.T.);
#837=FACE_BOUND('',#743,.T.);
#838=FACE_BOUND('',#744,.T.);
#839=FACE_BOUND('',#745,.T.);
#840=FACE_BOUND('',#746,.T.);
#841=FACE_BOUND('',#747,.T.);
#842=FACE_BOUND('',#748,.T.);
#843=FACE_BOUND('',#749,.T.);
#844=FACE_BOUND('',#750,.T.);
#845=FACE_BOUND('',#751,.T.);
#846=FACE_BOUND('',#752,.T.);
#847=FACE_BOUND('',#753,.T.);
#848=FACE_BOUND('',#754,.T.);
#849=FACE_BOUND('',#755,.T.);
#850=FACE_BOUND('',#756,.T.);
#851=FACE_BOUND('',#757,.T.);
#852=FACE_BOUND('',#758,.T.);
#853=FACE_BOUND('',#759,.T.);
#854=FACE_BOUND('',#760,.T.);
#855=FACE_BOUND('',#761,.T.);
#856=FACE_BOUND('',#762,.T.);
#857=FACE_BOUND('',#763,.T.);
#858=FACE_BOUND('',#764,.T.);
#859=FACE_BOUND('',#765,.T.);
#860=FACE_BOUND('',#766,.T.);
#861=FACE_BOUND('',#767,.T.);
#862=FACE_BOUND('',#768,.T.);
#863=FACE_BOUND('',#769,.T.);
#864=FACE_BOUND('',#770,.T.);
#865=FACE_BOUND('',#771,.T.);
#866=FACE_BOUND('',#772,.T.);
#867=FACE_BOUND('',#773,.T.);
#868=FACE_BOUND('',#774,.T.);
#869=FACE_BOUND('',#775,.T.);
#870=FACE_BOUND('',#776,.T.);
#871=FACE_BOUND('',#777,.T.);
#872=FACE_BOUND('',#778,.T.);
#873=FACE_BOUND('',#779,.T.);
#874=FACE_BOUND('',#780,.T.);
#875=FACE_BOUND('',#781,.T.);
#876=FACE_BOUND('',#782,.T.);
#877=FACE_BOUND('',#783,.T.);
#878=FACE_BOUND('',#784,.T.);
#879=FACE_BOUND('',#785,.T.);
#880=FACE_BOUND('',#786,.T.);
#881=FACE_BOUND('',#787,.T.);
#882=FACE_BOUND('',#788,.T.);
#883=FACE_BOUND('',#789,.T.);
#884=FACE_BOUND('',#790,.T.);
#885=FACE_BOUND('',#791,.T.);
#886=FACE_BOUND('',#792,.T.);
#887=FACE_BOUND('',#793,.T.);
#888=FACE_BOUND('',#794,.T.);
#889=FACE_BOUND('',#795,.T.);
#890=FACE_BOUND('',#796,.T.);
#891=FACE_BOUND('',#797,.T.);
#892=FACE_BOUND('',#798,.T.);
#893=FACE_BOUND('',#799,.T.);
#894=FACE_BOUND('',#800,.T.);
#895=FACE_BOUND('',#801,.T.);
#896=FACE_BOUND('',#802,.T.);
#897=FACE_BOUND('',#803,.T.);
#898=FACE_BOUND('',#804,.T.);
#899=FACE_BOUND('',#805,.T.);
#900=FACE_BOUND('',#806,.T.);
#901=FACE_BOUND('',#807,.T.);
#902=FACE_BOUND('',#808,.T.);
#903=FACE_BOUND('',#809,.T.);
#904=FACE_BOUND('',#810,.T.);
#905=FACE_BOUND('',#811,.T.);
#906=FACE_BOUND('',#812,.T.);
#907=FACE_BOUND('',#813,.T.);
#908=FACE_BOUND('',#814,.T.);
#909=PLANE('',#1012);
#910=PLANE('',#1016);
#911=PLANE('',#1017);
#912=PLANE('',#1018);
#913=PLANE('',#1019);
#914=PLANE('',#1030);
#915=PLANE('',#1051);
#916=PLANE('',#1054);
#917=PLANE('',#1059);
#918=PLANE('',#1061);
#919=PLANE('',#1062);
#920=PLANE('',#1066);
#921=PLANE('',#1067);
#922=PLANE('',#1071);
#923=PLANE('',#1075);
#924=PLANE('',#1076);
#925=PLANE('',#1077);
#926=PLANE('',#1078);
#927=PLANE('',#1079);
#928=PLANE('',#1080);
#929=PLANE('',#1081);
#930=PLANE('',#1082);
#931=PLANE('',#1083);
#932=PLANE('',#1084);
#933=PLANE('',#1085);
#934=PLANE('',#1086);
#935=PLANE('',#1087);
#936=PLANE('',#1088);
#937=PLANE('',#1089);
#938=PLANE('',#1090);
#939=PLANE('',#1091);
#940=PLANE('',#1098);
#941=PLANE('',#1099);
#942=PLANE('',#1100);
#943=PLANE('',#1101);
#944=PLANE('',#1102);
#945=ADVANCED_FACE('',(#815,#816,#817),#909,.F.);
#946=ADVANCED_FACE('',(#818),#910,.T.);
#947=ADVANCED_FACE('',(#819),#911,.F.);
#948=ADVANCED_FACE('',(#820),#912,.T.);
#949=ADVANCED_FACE('',(#821,#822,#823,#824,#825,#826,#827,#828,#829,#830,
#831),#913,.T.);
#950=ADVANCED_FACE('',(#832,#833,#834,#835,#836,#837,#838,#839,#840,#841,
#842),#914,.F.);
#951=ADVANCED_FACE('',(#843,#844),#13,.F.);
#952=ADVANCED_FACE('',(#845,#846),#14,.F.);
#953=ADVANCED_FACE('',(#847,#848),#15,.F.);
#954=ADVANCED_FACE('',(#849,#850),#16,.F.);
#955=ADVANCED_FACE('',(#851,#852),#17,.F.);
#956=ADVANCED_FACE('',(#853,#854),#18,.F.);
#957=ADVANCED_FACE('',(#855,#856),#19,.T.);
#958=ADVANCED_FACE('',(#857,#858),#915,.T.);
#959=ADVANCED_FACE('',(#859,#860),#20,.T.);
#960=ADVANCED_FACE('',(#861,#862),#916,.T.);
#961=ADVANCED_FACE('',(#863,#864),#21,.F.);
#962=ADVANCED_FACE('',(#865,#866),#22,.F.);
#963=ADVANCED_FACE('',(#867,#868),#23,.F.);
#964=ADVANCED_FACE('',(#869,#870),#24,.F.);
#965=ADVANCED_FACE('',(#871,#872),#917,.T.);
#966=ADVANCED_FACE('',(#873),#918,.T.);
#967=ADVANCED_FACE('',(#874,#875),#919,.T.);
#968=ADVANCED_FACE('',(#876,#877),#25,.F.);
#969=ADVANCED_FACE('',(#878),#920,.T.);
#970=ADVANCED_FACE('',(#879),#921,.F.);
#971=ADVANCED_FACE('',(#880),#26,.T.);
#972=ADVANCED_FACE('',(#881),#922,.F.);
#973=ADVANCED_FACE('',(#882),#27,.T.);
#974=ADVANCED_FACE('',(#883),#923,.F.);
#975=ADVANCED_FACE('',(#884),#924,.F.);
#976=ADVANCED_FACE('',(#885),#925,.F.);
#977=ADVANCED_FACE('',(#886),#926,.F.);
#978=ADVANCED_FACE('',(#887),#927,.F.);
#979=ADVANCED_FACE('',(#888),#928,.F.);
#980=ADVANCED_FACE('',(#889),#929,.F.);
#981=ADVANCED_FACE('',(#890),#930,.F.);
#982=ADVANCED_FACE('',(#891),#931,.F.);
#983=ADVANCED_FACE('',(#892),#932,.F.);
#984=ADVANCED_FACE('',(#893),#933,.F.);
#985=ADVANCED_FACE('',(#894),#934,.F.);
#986=ADVANCED_FACE('',(#895),#935,.F.);
#987=ADVANCED_FACE('',(#896,#897),#936,.T.);
#988=ADVANCED_FACE('',(#898),#937,.F.);
#989=ADVANCED_FACE('',(#899),#938,.F.);
#990=ADVANCED_FACE('',(#900),#939,.F.);
#991=ADVANCED_FACE('',(#901),#28,.T.);
#992=ADVANCED_FACE('',(#902),#29,.T.);
#993=ADVANCED_FACE('',(#903),#30,.T.);
#994=ADVANCED_FACE('',(#904),#940,.F.);
#995=ADVANCED_FACE('',(#905),#941,.F.);
#996=ADVANCED_FACE('',(#906),#942,.F.);
#997=ADVANCED_FACE('',(#907),#943,.T.);
#998=ADVANCED_FACE('',(#908),#944,.F.);
#999=CLOSED_SHELL('',(#945,#946,#947,#948,#949,#950,#951,#952,#953,#954,
#955,#956,#957,#958,#959,#960,#961,#962,#963,#964,#965,#966,#967,#968,#969,
#970,#971,#972,#973,#974,#975,#976,#977,#978,#979,#980,#981,#982,#983,#984,
#985,#986,#987,#988,#989,#990,#991,#992,#993,#994,#995,#996,#997,#998));
#1000=STYLED_ITEM('',(#1001),#1008);
#1001=PRESENTATION_STYLE_ASSIGNMENT((#1002));
#1002=SURFACE_STYLE_USAGE(.BOTH.,#1003);
#1003=SURFACE_SIDE_STYLE('',(#1004));
#1004=SURFACE_STYLE_FILL_AREA(#1005);
#1005=FILL_AREA_STYLE('',(#1006));
#1006=FILL_AREA_STYLE_COLOUR('',#1007);
#1007=COLOUR_RGB('',0.615686274509804,0.811764705882353,0.929411764705882);
#1008=MANIFOLD_SOLID_BREP('Part 1',#999);
#1009=SHAPE_DEFINITION_REPRESENTATION(#1658,#1010);
#1010=SHAPE_REPRESENTATION('Part 1',(#1011),#1653);
#1011=AXIS2_PLACEMENT_3D('',#1377,#1103,#1104);
#1012=AXIS2_PLACEMENT_3D('',#1378,#1105,#1106);
#1013=AXIS2_PLACEMENT_3D('',#1416,#1125,#1126);
#1014=AXIS2_PLACEMENT_3D('',#1418,#1127,#1128);
#1015=AXIS2_PLACEMENT_3D('',#1420,#1129,#1130);
#1016=AXIS2_PLACEMENT_3D('',#1427,#1134,#1135);
#1017=AXIS2_PLACEMENT_3D('',#1439,#1142,#1143);
#1018=AXIS2_PLACEMENT_3D('',#1451,#1150,#1151);
#1019=AXIS2_PLACEMENT_3D('',#1454,#1154,#1155);
#1020=AXIS2_PLACEMENT_3D('',#1456,#1157,#1158);
#1021=AXIS2_PLACEMENT_3D('',#1458,#1159,#1160);
#1022=AXIS2_PLACEMENT_3D('',#1460,#1161,#1162);
#1023=AXIS2_PLACEMENT_3D('',#1462,#1163,#1164);
#1024=AXIS2_PLACEMENT_3D('',#1464,#1165,#1166);
#1025=AXIS2_PLACEMENT_3D('',#1466,#1167,#1168);
#1026=AXIS2_PLACEMENT_3D('',#1468,#1169,#1170);
#1027=AXIS2_PLACEMENT_3D('',#1470,#1171,#1172);
#1028=AXIS2_PLACEMENT_3D('',#1472,#1173,#1174);
#1029=AXIS2_PLACEMENT_3D('',#1474,#1175,#1176);
#1030=AXIS2_PLACEMENT_3D('',#1476,#1177,#1178);
#1031=AXIS2_PLACEMENT_3D('',#1477,#1179,#1180);
#1032=AXIS2_PLACEMENT_3D('',#1479,#1181,#1182);
#1033=AXIS2_PLACEMENT_3D('',#1481,#1183,#1184);
#1034=AXIS2_PLACEMENT_3D('',#1483,#1185,#1186);
#1035=AXIS2_PLACEMENT_3D('',#1485,#1187,#1188);
#1036=AXIS2_PLACEMENT_3D('',#1487,#1189,#1190);
#1037=AXIS2_PLACEMENT_3D('',#1489,#1191,#1192);
#1038=AXIS2_PLACEMENT_3D('',#1491,#1193,#1194);
#1039=AXIS2_PLACEMENT_3D('',#1493,#1195,#1196);
#1040=AXIS2_PLACEMENT_3D('',#1495,#1197,#1198);
#1041=AXIS2_PLACEMENT_3D('',#1497,#1199,#1200);
#1042=AXIS2_PLACEMENT_3D('',#1498,#1201,#1202);
#1043=AXIS2_PLACEMENT_3D('',#1499,#1203,#1204);
#1044=AXIS2_PLACEMENT_3D('',#1500,#1205,#1206);
#1045=AXIS2_PLACEMENT_3D('',#1501,#1207,#1208);
#1046=AXIS2_PLACEMENT_3D('',#1503,#1209,#1210);
#1047=AXIS2_PLACEMENT_3D('',#1504,#1211,#1212);
#1048=AXIS2_PLACEMENT_3D('',#1506,#1213,#1214);
#1049=AXIS2_PLACEMENT_3D('',#1507,#1215,#1216);
#1050=AXIS2_PLACEMENT_3D('',#1508,#1217,#1218);
#1051=AXIS2_PLACEMENT_3D('',#1510,#1219,#1220);
#1052=AXIS2_PLACEMENT_3D('',#1511,#1221,#1222);
#1053=AXIS2_PLACEMENT_3D('',#1512,#1223,#1224);
#1054=AXIS2_PLACEMENT_3D('',#1514,#1225,#1226);
#1055=AXIS2_PLACEMENT_3D('',#1515,#1227,#1228);
#1056=AXIS2_PLACEMENT_3D('',#1516,#1229,#1230);
#1057=AXIS2_PLACEMENT_3D('',#1517,#1231,#1232);
#1058=AXIS2_PLACEMENT_3D('',#1518,#1233,#1234);
#1059=AXIS2_PLACEMENT_3D('',#1519,#1235,#1236);
#1060=AXIS2_PLACEMENT_3D('',#1520,#1237,#1238);
#1061=AXIS2_PLACEMENT_3D('',#1525,#1241,#1242);
#1062=AXIS2_PLACEMENT_3D('',#1527,#1244,#1245);
#1063=AXIS2_PLACEMENT_3D('',#1528,#1246,#1247);
#1064=AXIS2_PLACEMENT_3D('',#1530,#1248,#1249);
#1065=AXIS2_PLACEMENT_3D('',#1531,#1250,#1251);
#1066=AXIS2_PLACEMENT_3D('',#1532,#1252,#1253);
#1067=AXIS2_PLACEMENT_3D('',#1533,#1254,#1255);
#1068=AXIS2_PLACEMENT_3D('',#1542,#1260,#1261);
#1069=AXIS2_PLACEMENT_3D('',#1543,#1262,#1263);
#1070=AXIS2_PLACEMENT_3D('',#1547,#1265,#1266);
#1071=AXIS2_PLACEMENT_3D('',#1548,#1267,#1268);
#1072=AXIS2_PLACEMENT_3D('',#1554,#1272,#1273);
#1073=AXIS2_PLACEMENT_3D('',#1555,#1274,#1275);
#1074=AXIS2_PLACEMENT_3D('',#1559,#1277,#1278);
#1075=AXIS2_PLACEMENT_3D('',#1560,#1279,#1280);
#1076=AXIS2_PLACEMENT_3D('',#1566,#1284,#1285);
#1077=AXIS2_PLACEMENT_3D('',#1572,#1289,#1290);
#1078=AXIS2_PLACEMENT_3D('',#1576,#1293,#1294);
#1079=AXIS2_PLACEMENT_3D('',#1580,#1297,#1298);
#1080=AXIS2_PLACEMENT_3D('',#1584,#1301,#1302);
#1081=AXIS2_PLACEMENT_3D('',#1588,#1305,#1306);
#1082=AXIS2_PLACEMENT_3D('',#1592,#1309,#1310);
#1083=AXIS2_PLACEMENT_3D('',#1596,#1313,#1314);
#1084=AXIS2_PLACEMENT_3D('',#1600,#1317,#1318);
#1085=AXIS2_PLACEMENT_3D('',#1604,#1321,#1322);
#1086=AXIS2_PLACEMENT_3D('',#1608,#1325,#1326);
#1087=AXIS2_PLACEMENT_3D('',#1610,#1328,#1329);
#1088=AXIS2_PLACEMENT_3D('',#1613,#1332,#1333);
#1089=AXIS2_PLACEMENT_3D('',#1614,#1334,#1335);
#1090=AXIS2_PLACEMENT_3D('',#1620,#1339,#1340);
#1091=AXIS2_PLACEMENT_3D('',#1624,#1343,#1344);
#1092=AXIS2_PLACEMENT_3D('',#1628,#1347,#1348);
#1093=AXIS2_PLACEMENT_3D('',#1631,#1350,#1351);
#1094=AXIS2_PLACEMENT_3D('',#1632,#1352,#1353);
#1095=AXIS2_PLACEMENT_3D('',#1635,#1355,#1356);
#1096=AXIS2_PLACEMENT_3D('',#1636,#1357,#1358);
#1097=AXIS2_PLACEMENT_3D('',#1639,#1360,#1361);
#1098=AXIS2_PLACEMENT_3D('',#1640,#1362,#1363);
#1099=AXIS2_PLACEMENT_3D('',#1644,#1366,#1367);
#1100=AXIS2_PLACEMENT_3D('',#1648,#1370,#1371);
#1101=AXIS2_PLACEMENT_3D('',#1650,#1373,#1374);
#1102=AXIS2_PLACEMENT_3D('',#1651,#1375,#1376);
#1103=DIRECTION('',(0.,0.,1.));
#1104=DIRECTION('',(1.,0.,0.));
#1105=DIRECTION('',(-1.,1.7347234759768E-16,0.));
#1106=DIRECTION('',(-1.7347234759768E-16,-1.,0.));
#1107=DIRECTION('',(0.,0.,1.));
#1108=DIRECTION('',(1.7347234759768E-16,1.,0.));
#1109=DIRECTION('',(0.,0.,1.));
#1110=DIRECTION('',(-1.7347234759768E-16,-1.,0.));
#1111=DIRECTION('',(5.02713109490643E-32,2.8979437728977E-16,-1.));
#1112=DIRECTION('',(-1.7347234759768E-16,-1.,0.));
#1113=DIRECTION('',(3.38972268113691E-32,1.95404208686816E-16,-1.));
#1114=DIRECTION('',(-1.7347234759768E-16,-1.,0.));
#1115=DIRECTION('',(-4.51963024151588E-32,-2.60538944915755E-16,1.));
#1116=DIRECTION('',(-1.7347234759768E-16,-1.,-2.46233926338022E-16));
#1117=DIRECTION('',(0.,0.,1.));
#1118=DIRECTION('',(9.9643203032696E-17,0.574403957821507,0.818571984152273));
#1119=DIRECTION('',(1.7347234759768E-16,1.,0.));
#1120=DIRECTION('',(3.08959098541124E-32,1.78102794376004E-16,-1.));
#1121=DIRECTION('',(1.7347234759768E-16,1.,0.));
#1122=DIRECTION('',(4.15461742489969E-32,2.39497388629059E-16,-1.));
#1123=DIRECTION('',(-1.7347234759768E-16,-1.,0.));
#1124=DIRECTION('',(-2.91499493463862E-32,-1.68038017298244E-16,1.));
#1125=DIRECTION('',(1.,-1.7347234759768E-16,0.));
#1126=DIRECTION('',(1.7347234759768E-16,1.,0.));
#1127=DIRECTION('',(1.,-1.7347234759768E-16,0.));
#1128=DIRECTION('',(1.7347234759768E-16,1.,0.));
#1129=DIRECTION('',(1.,-1.7347234759768E-16,0.));
#1130=DIRECTION('',(1.7347234759768E-16,1.,0.));
#1131=DIRECTION('',(-1.06047281809929E-16,-0.611320958518846,0.791382768118942));
#1132=DIRECTION('',(1.37223621146207E-16,0.791040318797426,0.611764018259383));
#1133=DIRECTION('',(1.7347234759768E-16,1.,0.));
#1134=DIRECTION('',(0.,-1.,0.));
#1135=DIRECTION('',(1.,0.,0.));
#1136=DIRECTION('',(-0.707106781186547,0.,0.707106781186548));
#1137=DIRECTION('',(1.,0.,0.));
#1138=DIRECTION('',(0.,0.,1.));
#1139=DIRECTION('',(1.,0.,0.));
#1140=DIRECTION('',(0.,0.,1.));
#1141=DIRECTION('',(1.,0.,0.));
#1142=DIRECTION('',(0.,-1.,0.));
#1143=DIRECTION('',(1.,0.,0.));
#1144=DIRECTION('',(1.,0.,0.));
#1145=DIRECTION('',(-0.707106781186547,0.,0.707106781186548));
#1146=DIRECTION('',(1.,0.,0.));
#1147=DIRECTION('',(0.,0.,1.));
#1148=DIRECTION('',(1.,0.,0.));
#1149=DIRECTION('',(0.,0.,1.));
#1150=DIRECTION('',(-1.,1.7347234759768E-16,0.));
#1151=DIRECTION('',(-1.7347234759768E-16,-1.,0.));
#1152=DIRECTION('',(-1.7347234759768E-16,-1.,0.));
#1153=DIRECTION('',(0.,1.,0.));
#1154=DIRECTION('',(0.,0.,1.));
#1155=DIRECTION('',(1.,0.,0.));
#1156=DIRECTION('',(3.46944695195362E-16,-1.,0.));
#1157=DIRECTION('',(0.,0.,1.));
#1158=DIRECTION('',(1.,0.,0.));
#1159=DIRECTION('',(0.,0.,1.));
#1160=DIRECTION('',(1.,0.,0.));
#1161=DIRECTION('',(0.,0.,1.));
#1162=DIRECTION('',(1.,0.,0.));
#1163=DIRECTION('',(0.,0.,1.));
#1164=DIRECTION('',(1.,0.,0.));
#1165=DIRECTION('',(0.,0.,1.));
#1166=DIRECTION('',(1.,0.,0.));
#1167=DIRECTION('',(0.,0.,1.));
#1168=DIRECTION('',(-0.992349948844868,-0.123456790123456,0.));
#1169=DIRECTION('',(0.,0.,1.));
#1170=DIRECTION('',(1.,0.,0.));
#1171=DIRECTION('',(0.,0.,1.));
#1172=DIRECTION('',(0.,1.,0.));
#1173=DIRECTION('',(0.,0.,1.));
#1174=DIRECTION('',(1.,0.,0.));
#1175=DIRECTION('',(0.,0.,1.));
#1176=DIRECTION('',(1.,0.,0.));
#1177=DIRECTION('',(0.,0.,1.));
#1178=DIRECTION('',(1.,0.,0.));
#1179=DIRECTION('',(0.,0.,-1.));
#1180=DIRECTION('',(1.,0.,0.));
#1181=DIRECTION('',(0.,0.,-1.));
#1182=DIRECTION('',(0.,-1.,0.));
#1183=DIRECTION('',(0.,0.,-1.));
#1184=DIRECTION('',(-1.,-8.67361737988405E-15,0.));
#1185=DIRECTION('',(0.,0.,-1.));
#1186=DIRECTION('',(0.,1.,0.));
#1187=DIRECTION('',(0.,0.,1.));
#1188=DIRECTION('',(1.,0.,0.));
#1189=DIRECTION('',(0.,0.,1.));
#1190=DIRECTION('',(1.,0.,0.));
#1191=DIRECTION('',(0.,0.,1.));
#1192=DIRECTION('',(1.,0.,0.));
#1193=DIRECTION('',(0.,0.,1.));
#1194=DIRECTION('',(1.,0.,0.));
#1195=DIRECTION('',(0.,0.,1.));
#1196=DIRECTION('',(1.,0.,0.));
#1197=DIRECTION('',(0.,0.,1.));
#1198=DIRECTION('',(1.,0.,0.));
#1199=DIRECTION('',(0.,0.,1.));
#1200=DIRECTION('',(1.,0.,0.));
#1201=DIRECTION('',(0.,0.,1.));
#1202=DIRECTION('',(1.,0.,0.));
#1203=DIRECTION('',(0.,0.,1.));
#1204=DIRECTION('',(1.,0.,0.));
#1205=DIRECTION('',(0.,0.,1.));
#1206=DIRECTION('',(1.,0.,0.));
#1207=DIRECTION('',(0.,0.,1.));
#1208=DIRECTION('',(1.,0.,0.));
#1209=DIRECTION('',(0.,0.,1.));
#1210=DIRECTION('',(1.,0.,0.));
#1211=DIRECTION('',(0.,0.,1.));
#1212=DIRECTION('',(1.,0.,0.));
#1213=DIRECTION('',(0.,0.,1.));
#1214=DIRECTION('',(1.,0.,0.));
#1215=DIRECTION('',(0.,0.,1.));
#1216=DIRECTION('',(1.,0.,0.));
#1217=DIRECTION('',(0.,0.,1.));
#1218=DIRECTION('',(1.,0.,0.));
#1219=DIRECTION('',(0.,0.,1.));
#1220=DIRECTION('',(1.,0.,0.));
#1221=DIRECTION('',(0.,0.,1.));
#1222=DIRECTION('',(1.,0.,0.));
#1223=DIRECTION('',(0.,0.,1.));
#1224=DIRECTION('',(1.,0.,0.));
#1225=DIRECTION('',(0.,0.,1.));
#1226=DIRECTION('',(1.,0.,0.));
#1227=DIRECTION('',(0.,0.,-1.));
#1228=DIRECTION('',(-1.,0.,0.));
#1229=DIRECTION('',(0.,0.,-1.));
#1230=DIRECTION('',(-1.,0.,0.));
#1231=DIRECTION('',(0.,0.,-1.));
#1232=DIRECTION('',(-1.,0.,0.));
#1233=DIRECTION('',(0.,0.,-1.));
#1234=DIRECTION('',(-1.,0.,0.));
#1235=DIRECTION('',(-1.,-3.46944695195362E-16,0.));
#1236=DIRECTION('',(3.46944695195362E-16,-1.,0.));
#1237=DIRECTION('',(-1.,-3.46944695195362E-16,0.));
#1238=DIRECTION('',(1.80555932286303E-31,-5.20417042793043E-16,1.));
#1239=DIRECTION('',(-3.46944695195362E-16,1.,5.20417042793043E-16));
#1240=DIRECTION('',(0.,1.,0.));
#1241=DIRECTION('',(0.,0.,1.));
#1242=DIRECTION('',(1.,0.,0.));
#1243=DIRECTION('',(1.7347234759768E-16,1.,0.));
#1244=DIRECTION('',(0.707106781186548,-1.2266347333467E-16,0.707106781186547));
#1245=DIRECTION('',(1.7347234759768E-16,1.,0.));
#1246=DIRECTION('',(0.707106781186548,-1.2266347333467E-16,0.707106781186547));
#1247=DIRECTION('',(0.,1.,0.));
#1248=DIRECTION('',(0.707106781186548,-1.2266347333467E-16,0.707106781186547));
#1249=DIRECTION('',(0.707106781186547,0.,-0.707106781186548));
#1250=DIRECTION('',(0.707106781186548,-1.2266347333467E-16,0.707106781186547));
#1251=DIRECTION('',(0.707106781186547,0.,-0.707106781186548));
#1252=DIRECTION('',(0.707106781186548,-1.2266347333467E-16,0.707106781186547));
#1253=DIRECTION('',(8.67361737988405E-17,1.,8.67361737988404E-17));
#1254=DIRECTION('',(-1.4190697950084E-16,-0.818038041601607,0.575164117876462));
#1255=DIRECTION('',(-9.97750697819789E-17,-0.575164117876462,-0.818038041601607));
#1256=DIRECTION('',(1.,-1.7347234759768E-16,0.));
#1257=DIRECTION('',(-9.97750697819789E-17,-0.575164117876462,-0.818038041601607));
#1258=DIRECTION('',(1.,-1.7347234759768E-16,0.));
#1259=DIRECTION('',(-9.97750697819789E-17,-0.575164117876462,-0.818038041601607));
#1260=DIRECTION('',(1.,-1.7347234759768E-16,0.));
#1261=DIRECTION('',(0.,0.868025758215813,-0.496519166874616));
#1262=DIRECTION('',(1.,-1.7347234759768E-16,0.));
#1263=DIRECTION('',(1.7347234759768E-16,1.,0.));
#1264=DIRECTION('',(1.,-1.7347234759768E-16,0.));
#1265=DIRECTION('',(1.,-1.7347234759768E-16,0.));
#1266=DIRECTION('',(1.7347234759768E-16,1.,0.));
#1267=DIRECTION('',(0.,0.,1.));
#1268=DIRECTION('',(-1.7347234759768E-16,-1.,0.));
#1269=DIRECTION('',(-1.7347234759768E-16,-1.,0.));
#1270=DIRECTION('',(1.,-1.7347234759768E-16,0.));
#1271=DIRECTION('',(1.7347234759768E-16,1.,0.));
#1272=DIRECTION('',(1.,-1.7347234759768E-16,0.));
#1273=DIRECTION('',(-2.42795464130833E-16,-0.99953057086589,0.0306371980524935));
#1274=DIRECTION('',(1.,-1.7347234759768E-16,0.));
#1275=DIRECTION('',(1.7347234759768E-16,1.,0.));
#1276=DIRECTION('',(1.,-1.7347234759768E-16,0.));
#1277=DIRECTION('',(1.,-1.7347234759768E-16,0.));
#1278=DIRECTION('',(1.7347234759768E-16,1.,0.));
#1279=DIRECTION('',(1.7347234759768E-16,1.,1.80096044872641E-16));
#1280=DIRECTION('',(-3.12416836971144E-32,-1.80096044872641E-16,1.));
#1281=DIRECTION('',(-3.12416836971144E-32,-1.80096044872641E-16,1.));
#1282=DIRECTION('',(1.,-1.7347234759768E-16,0.));
#1283=DIRECTION('',(0.,0.,1.));
#1284=DIRECTION('',(0.,0.,-1.));
#1285=DIRECTION('',(1.7347234759768E-16,1.,0.));
#1286=DIRECTION('',(1.,-1.7347234759768E-16,0.));
#1287=DIRECTION('',(1.,-1.7347234759768E-16,0.));
#1288=DIRECTION('',(1.7347234759768E-16,1.,0.));
#1289=DIRECTION('',(-1.7347234759768E-16,-1.,-1.78102794376004E-16));
#1290=DIRECTION('',(3.08959098541124E-32,1.78102794376004E-16,-1.));
#1291=DIRECTION('',(1.,-1.7347234759768E-16,0.));
#1292=DIRECTION('',(0.,0.,1.));
#1293=DIRECTION('',(0.,0.,-1.));
#1294=DIRECTION('',(1.7347234759768E-16,1.,0.));
#1295=DIRECTION('',(1.,-1.7347234759768E-16,0.));
#1296=DIRECTION('',(1.7347234759768E-16,1.,0.));
#1297=DIRECTION('',(1.41999603768586E-16,0.818571984152273,-0.574403957821507));
#1298=DIRECTION('',(9.9643203032696E-17,0.574403957821507,0.818571984152273));
#1299=DIRECTION('',(1.,-1.7347234759768E-16,0.));
#1300=DIRECTION('',(9.9643203032696E-17,0.574403957821507,0.818571984152273));
#1301=DIRECTION('',(1.7347234759768E-16,1.,0.));
#1302=DIRECTION('',(0.,0.,1.));
#1303=DIRECTION('',(1.,-1.7347234759768E-16,0.));
#1304=DIRECTION('',(0.,0.,1.));
#1305=DIRECTION('',(-4.2714777260051E-32,-2.46233926338022E-16,1.));
#1306=DIRECTION('',(-1.7347234759768E-16,-1.,-2.46233926338022E-16));
#1307=DIRECTION('',(1.,-1.7347234759768E-16,0.));
#1308=DIRECTION('',(1.7347234759768E-16,1.,0.));
#1309=DIRECTION('',(1.7347234759768E-16,1.,2.60538944915755E-16));
#1310=DIRECTION('',(-4.51963024151588E-32,-2.60538944915755E-16,1.));
#1311=DIRECTION('',(1.,-1.7347234759768E-16,0.));
#1312=DIRECTION('',(0.,0.,1.));
#1313=DIRECTION('',(0.,0.,1.));
#1314=DIRECTION('',(-1.7347234759768E-16,-1.,0.));
#1315=DIRECTION('',(1.,-1.7347234759768E-16,0.));
#1316=DIRECTION('',(1.7347234759768E-16,1.,0.));
#1317=DIRECTION('',(-1.7347234759768E-16,-1.,-1.95404208686816E-16));
#1318=DIRECTION('',(3.38972268113691E-32,1.95404208686816E-16,-1.));
#1319=DIRECTION('',(1.,-1.7347234759768E-16,0.));
#1320=DIRECTION('',(0.,0.,1.));
#1321=DIRECTION('',(0.,0.,1.));
#1322=DIRECTION('',(-1.7347234759768E-16,-1.,0.));
#1323=DIRECTION('',(1.,-1.7347234759768E-16,0.));
#1324=DIRECTION('',(1.7347234759768E-16,1.,0.));
#1325=DIRECTION('',(-1.7347234759768E-16,-1.,-2.8979437728977E-16));
#1326=DIRECTION('',(5.02713109490643E-32,2.8979437728977E-16,-1.));
#1327=DIRECTION('',(0.,0.,1.));
#1328=DIRECTION('',(0.,0.,-1.));
#1329=DIRECTION('',(1.7347234759768E-16,1.,0.));
#1330=DIRECTION('',(1.7347234759768E-16,1.,0.));
#1331=DIRECTION('',(1.7347234759768E-16,1.,0.));
#1332=DIRECTION('',(1.,-1.7347234759768E-16,0.));
#1333=DIRECTION('',(1.7347234759768E-16,1.,0.));
#1334=DIRECTION('',(0.,0.,-1.));
#1335=DIRECTION('',(1.7347234759768E-16,1.,0.));
#1336=DIRECTION('',(1.,-1.7347234759768E-16,0.));
#1337=DIRECTION('',(1.,-1.7347234759768E-16,0.));
#1338=DIRECTION('',(1.7347234759768E-16,1.,0.));
#1339=DIRECTION('',(1.06124140423245E-16,0.611764018259383,-0.791040318797426));
#1340=DIRECTION('',(1.37223621146207E-16,0.791040318797426,0.611764018259383));
#1341=DIRECTION('',(1.,-1.7347234759768E-16,0.));
#1342=DIRECTION('',(1.37223621146207E-16,0.791040318797426,0.611764018259383));
#1343=DIRECTION('',(1.37283026633944E-16,0.791382768118942,0.611320958518846));
#1344=DIRECTION('',(-1.06047281809929E-16,-0.611320958518846,0.791382768118942));
#1345=DIRECTION('',(1.,-1.7347234759768E-16,0.));
#1346=DIRECTION('',(-1.06047281809929E-16,-0.611320958518846,0.791382768118942));
#1347=DIRECTION('',(1.,-1.7347234759768E-16,0.));
#1348=DIRECTION('',(1.21612774411188E-16,0.635242578883313,-0.772312673710381));
#1349=DIRECTION('',(1.,-1.7347234759768E-16,0.));
#1350=DIRECTION('',(1.,-1.7347234759768E-16,0.));
#1351=DIRECTION('',(1.7347234759768E-16,1.,0.));
#1352=DIRECTION('',(1.,-1.7347234759768E-16,0.));
#1353=DIRECTION('',(0.,0.685039877201019,-0.728505570771022));
#1354=DIRECTION('',(1.,-1.7347234759768E-16,0.));
#1355=DIRECTION('',(1.,-1.7347234759768E-16,0.));
#1356=DIRECTION('',(1.7347234759768E-16,1.,0.));
#1357=DIRECTION('',(1.,-1.7347234759768E-16,0.));
#1358=DIRECTION('',(0.,-0.999450599758801,0.0331436063483167));
#1359=DIRECTION('',(1.,-1.7347234759768E-16,0.));
#1360=DIRECTION('',(1.,-1.7347234759768E-16,0.));
#1361=DIRECTION('',(1.7347234759768E-16,1.,0.));
#1362=DIRECTION('',(1.7347234759768E-16,1.,1.68038017298244E-16));
#1363=DIRECTION('',(-2.91499493463862E-32,-1.68038017298244E-16,1.));
#1364=DIRECTION('',(1.,-1.7347234759768E-16,0.));
#1365=DIRECTION('',(0.,0.,1.));
#1366=DIRECTION('',(0.,0.,1.));
#1367=DIRECTION('',(-1.7347234759768E-16,-1.,0.));
#1368=DIRECTION('',(1.,-1.7347234759768E-16,0.));
#1369=DIRECTION('',(1.7347234759768E-16,1.,0.));
#1370=DIRECTION('',(-1.7347234759768E-16,-1.,-2.39497388629059E-16));
#1371=DIRECTION('',(4.15461742489969E-32,2.39497388629059E-16,-1.));
#1372=DIRECTION('',(0.,0.,1.));
#1373=DIRECTION('',(1.,-1.7347234759768E-16,0.));
#1374=DIRECTION('',(1.7347234759768E-16,1.,0.));
#1375=DIRECTION('',(-1.,1.7347234759768E-16,0.));
#1376=DIRECTION('',(-1.7347234759768E-16,-1.,0.));
#1377=CARTESIAN_POINT('',(0.,0.,0.));
#1378=CARTESIAN_POINT('',(0.055,-6.07153216591882E-18,0.));
#1379=CARTESIAN_POINT('',(0.055,0.02,0.));
#1380=CARTESIAN_POINT('',(0.055,0.02,0.));
#1381=CARTESIAN_POINT('',(0.055,0.02,0.01));
#1382=CARTESIAN_POINT('',(0.055,-6.07153216591882E-18,0.01));
#1383=CARTESIAN_POINT('',(0.055,-0.02,0.01));
#1384=CARTESIAN_POINT('',(0.055,-0.02,0.));
#1385=CARTESIAN_POINT('',(0.055,-0.02,0.));
#1386=CARTESIAN_POINT('',(0.055,-6.07153216591882E-18,0.));
#1387=CARTESIAN_POINT('',(0.055,0.000809149697116052,0.00403868103994927));
#1388=CARTESIAN_POINT('',(0.055,0.000809149697116052,0.00441280913126189));
#1389=CARTESIAN_POINT('',(0.055,0.000809149697116052,0.00366455294863666));
#1390=CARTESIAN_POINT('',(0.055,0.00027173688798479,0.00366455294863666));
#1391=CARTESIAN_POINT('',(0.055,-0.000265675921146471,0.00366455294863665));
#1392=CARTESIAN_POINT('',(0.055,-0.000265675921146471,0.00283227647431833));
#1393=CARTESIAN_POINT('',(0.055,-0.000265675921146471,0.002));
#1394=CARTESIAN_POINT('',(0.055,-0.000659620118990479,0.002));
#1395=CARTESIAN_POINT('',(0.055,-0.00105356431683449,0.002));
#1396=CARTESIAN_POINT('',(0.055,-0.00105356431683449,0.00283227647431833));
#1397=CARTESIAN_POINT('',(0.055,-0.00105356431683449,0.00366455294863665));
#1398=CARTESIAN_POINT('',(0.055,-0.00281481986534431,0.00366455294863665));
#1399=CARTESIAN_POINT('',(0.055,-0.00457607541385415,0.00366455294863665));
#1400=CARTESIAN_POINT('',(0.055,-0.00457607541385415,0.00402362079898541));
#1401=CARTESIAN_POINT('',(0.055,-0.00457607541385415,0.00438268864933418));
#1402=CARTESIAN_POINT('',(0.055,-0.00285683001119086,0.00683275206087508));
#1403=CARTESIAN_POINT('',(0.055,-0.00113758460852758,0.00928281547241598));
#1404=CARTESIAN_POINT('',(0.055,-0.000701630264837025,0.00928281547241598));
#1405=CARTESIAN_POINT('',(0.055,-0.000265675921146473,0.00928281547241598));
#1406=CARTESIAN_POINT('',(0.055,-0.000265675921146473,0.00684781230183894));
#1407=CARTESIAN_POINT('',(0.055,-0.000265675921146471,0.00441280913126189));
#1408=CARTESIAN_POINT('',(0.055,0.00027173688798479,0.00441280913126189));
#1409=CARTESIAN_POINT('',(0.055,0.00455360118728726,0.0056215916296766));
#1410=CARTESIAN_POINT('',(0.055,0.00455360118728726,0.0092431832593532));
#1411=CARTESIAN_POINT('',(0.055,0.00455360118728727,0.002));
#1412=CARTESIAN_POINT('',(0.055,0.00415252319109195,0.002));
#1413=CARTESIAN_POINT('',(0.055,0.00375144519489665,0.002));
#1414=CARTESIAN_POINT('',(0.055,0.00375144519489665,0.00458084971464807));
#1415=CARTESIAN_POINT('',(0.055,0.00375154506990526,0.00716169964784206));
#1416=CARTESIAN_POINT('',(0.055,0.0215083376914472,0.00720055496147312));
#1417=CARTESIAN_POINT('',(0.055,0.00379084585435438,0.00838044055429888));
#1418=CARTESIAN_POINT('',(0.055,0.000666831586160408,0.0114799202119704));
#1419=CARTESIAN_POINT('',(0.05500000025,0.0035591098731414,0.00816247343539338));
#1420=CARTESIAN_POINT('',(0.055,-0.0692908584849456,0.0959966949115334));
#1421=CARTESIAN_POINT('',(0.055,0.0023798683309514,0.00719696710749117));
#1422=CARTESIAN_POINT('',(0.055,0.00216219345107928,0.00747875713379835));
#1423=CARTESIAN_POINT('',(0.055,0.00194421627923399,0.00776093849080533));
#1424=CARTESIAN_POINT('',(0.055,0.00290252319109195,0.00850206087507927));
#1425=CARTESIAN_POINT('',(0.055,0.00386083010294992,0.0092431832593532));
#1426=CARTESIAN_POINT('',(0.055,0.00420721564511859,0.0092431832593532));
#1427=CARTESIAN_POINT('',(0.,-0.02,0.));
#1428=CARTESIAN_POINT('',(0.0325,-0.02,0.0325));
#1429=CARTESIAN_POINT('',(0.047,-0.02,0.018));
#1430=CARTESIAN_POINT('',(0.0075,-0.02,0.018));
#1431=CARTESIAN_POINT('',(0.045,-0.02,0.018));
#1432=CARTESIAN_POINT('',(0.045,-0.02,0.003));
#1433=CARTESIAN_POINT('',(0.045,-0.02,0.003));
#1434=CARTESIAN_POINT('',(0.,-0.02,0.003));
#1435=CARTESIAN_POINT('',(-0.04,-0.02,0.003));
#1436=CARTESIAN_POINT('',(-0.04,-0.02,0.));
#1437=CARTESIAN_POINT('',(-0.04,-0.02,0.));
#1438=CARTESIAN_POINT('',(0.,-0.02,0.));
#1439=CARTESIAN_POINT('',(6.93889390390723E-18,0.02,0.));
#1440=CARTESIAN_POINT('',(0.0075,0.02,0.018));
#1441=CARTESIAN_POINT('',(0.045,0.02,0.018));
#1442=CARTESIAN_POINT('',(0.047,0.02,0.018));
#1443=CARTESIAN_POINT('',(0.0325,0.02,0.0325));
#1444=CARTESIAN_POINT('',(6.93889390390723E-18,0.02,0.));
#1445=CARTESIAN_POINT('',(-0.04,0.02,0.));
#1446=CARTESIAN_POINT('',(-0.04,0.02,0.));
#1447=CARTESIAN_POINT('',(-0.04,0.02,0.003));
#1448=CARTESIAN_POINT('',(0.,0.02,0.003));
#1449=CARTESIAN_POINT('',(0.045,0.02,0.003));
#1450=CARTESIAN_POINT('',(0.045,0.02,0.003));
#1451=CARTESIAN_POINT('',(-0.04,-3.46944695195361E-18,0.));
#1452=CARTESIAN_POINT('',(-0.04,-3.46944695195361E-18,0.));
#1453=CARTESIAN_POINT('',(-0.04,0.,0.003));
#1454=CARTESIAN_POINT('',(0.,0.,0.003));
#1455=CARTESIAN_POINT('',(0.045,-3.46944695195361E-18,0.003));
#1456=CARTESIAN_POINT('',(0.0025,-0.01275,0.003));
#1457=CARTESIAN_POINT('',(0.0033,-0.01275,0.003));
#1458=CARTESIAN_POINT('',(0.0025,0.01275,0.003));
#1459=CARTESIAN_POINT('',(0.0033,0.01275,0.003));
#1460=CARTESIAN_POINT('',(0.028,0.01275,0.003));
#1461=CARTESIAN_POINT('',(0.0288,0.01275,0.003));
#1462=CARTESIAN_POINT('',(0.028,-0.01275,0.003));
#1463=CARTESIAN_POINT('',(0.0288,-0.01275,0.003));
#1464=CARTESIAN_POINT('',(-0.02,0.0095,0.003));
#1465=CARTESIAN_POINT('',(-0.01595,0.0095,0.003));
#1466=CARTESIAN_POINT('',(-0.02,-0.0095,0.003));
#1467=CARTESIAN_POINT('',(-0.0240190172928217,-0.01,0.003));
#1468=CARTESIAN_POINT('',(-0.035,0.01,0.003));
#1469=CARTESIAN_POINT('',(-0.0341,0.01,0.003));
#1470=CARTESIAN_POINT('',(-0.03,-0.015,0.003));
#1471=CARTESIAN_POINT('',(-0.03,-0.0136,0.003));
#1472=CARTESIAN_POINT('',(-0.03,0.015,0.003));
#1473=CARTESIAN_POINT('',(-0.0286,0.015,0.003));
#1474=CARTESIAN_POINT('',(-0.035,-0.01,0.003));
#1475=CARTESIAN_POINT('',(-0.0341,-0.01,0.003));
#1476=CARTESIAN_POINT('',(0.,0.,0.));
#1477=CARTESIAN_POINT('',(0.0025,-0.01275,0.));
#1478=CARTESIAN_POINT('',(0.0033,-0.01275,0.));
#1479=CARTESIAN_POINT('',(0.0025,0.01275,0.));
#1480=CARTESIAN_POINT('',(0.0025,0.01195,0.));
#1481=CARTESIAN_POINT('',(0.028,0.01275,0.));
#1482=CARTESIAN_POINT('',(0.0272,0.01275,0.));
#1483=CARTESIAN_POINT('',(0.028,-0.01275,0.));
#1484=CARTESIAN_POINT('',(0.028,-0.01195,0.));
#1485=CARTESIAN_POINT('',(-0.035,0.01,0.));
#1486=CARTESIAN_POINT('',(-0.0341,0.01,0.));
#1487=CARTESIAN_POINT('',(-0.02,-0.0095,0.));
#1488=CARTESIAN_POINT('',(-0.01695,-0.0095,0.));
#1489=CARTESIAN_POINT('',(-0.02,0.0095,0.));
#1490=CARTESIAN_POINT('',(-0.01695,0.0095,0.));
#1491=CARTESIAN_POINT('',(-0.03,-0.015,0.));
#1492=CARTESIAN_POINT('',(-0.0286,-0.015,0.));
#1493=CARTESIAN_POINT('',(-0.03,0.015,0.));
#1494=CARTESIAN_POINT('',(-0.0286,0.015,0.));
#1495=CARTESIAN_POINT('',(-0.035,-0.01,0.));
#1496=CARTESIAN_POINT('',(-0.0341,-0.01,0.));
#1497=CARTESIAN_POINT('',(-0.035,-0.01,0.003));
#1498=CARTESIAN_POINT('',(-0.03,0.015,0.003));
#1499=CARTESIAN_POINT('',(-0.03,-0.015,0.003));
#1500=CARTESIAN_POINT('',(-0.02,0.0095,0.003));
#1501=CARTESIAN_POINT('',(-0.02,0.0095,0.025));
#1502=CARTESIAN_POINT('',(-0.01695,0.0095,0.025));
#1503=CARTESIAN_POINT('',(-0.02,-0.0095,0.003));
#1504=CARTESIAN_POINT('',(-0.02,-0.0095,0.025));
#1505=CARTESIAN_POINT('',(-0.01695,-0.0095,0.025));
#1506=CARTESIAN_POINT('',(-0.035,0.01,0.003));
#1507=CARTESIAN_POINT('',(-0.02,-0.0095,0.003));
#1508=CARTESIAN_POINT('',(-0.02,-0.0095,0.025));
#1509=CARTESIAN_POINT('',(-0.0159499999999999,-0.0095,0.025));
#1510=CARTESIAN_POINT('',(0.,0.,0.025));
#1511=CARTESIAN_POINT('',(-0.02,0.0095,0.003));
#1512=CARTESIAN_POINT('',(-0.02,0.0095,0.025));
#1513=CARTESIAN_POINT('',(-0.01595,0.0095,0.025));
#1514=CARTESIAN_POINT('',(0.,0.,0.025));
#1515=CARTESIAN_POINT('',(0.028,-0.01275,0.));
#1516=CARTESIAN_POINT('',(0.028,0.01275,0.));
#1517=CARTESIAN_POINT('',(0.0025,0.01275,0.));
#1518=CARTESIAN_POINT('',(0.0025,-0.01275,0.));
#1519=CARTESIAN_POINT('',(0.045,-3.46944695195361E-18,0.003));
#1520=CARTESIAN_POINT('',(0.045,-4.5777769242885E-18,0.00777817459305203));
#1521=CARTESIAN_POINT('',(0.045,-0.000987292677266097,0.00302943725152286));
#1522=CARTESIAN_POINT('',(0.045,0.000987292677266092,0.00302943725152286));
#1523=CARTESIAN_POINT('',(0.045,-3.48476659933909E-18,0.00302943725152286));
#1524=CARTESIAN_POINT('',(0.045,-6.93889390390723E-18,0.018));
#1525=CARTESIAN_POINT('',(0.0075,-6.93889390390723E-18,0.018));
#1526=CARTESIAN_POINT('',(0.047,-1.37910516340156E-17,0.018));
#1527=CARTESIAN_POINT('',(0.055,-6.07153216591882E-18,0.01));
#1528=CARTESIAN_POINT('',(0.051110912703474,-5.63785129692462E-18,0.013889087296526));
#1529=CARTESIAN_POINT('',(0.051110912703474,0.00349999999999999,0.013889087296526));
#1530=CARTESIAN_POINT('',(0.051110912703474,-5.63785129692462E-18,0.013889087296526));
#1531=CARTESIAN_POINT('',(0.0426256313292354,-4.16588961690858E-18,0.00540380592228744));
#1532=CARTESIAN_POINT('',(0.0425147186257614,-4.16588961690859E-18,0.00551471862576143));
#1533=CARTESIAN_POINT('',(0.055,-0.00262141466559796,0.00602266962587191));
#1534=CARTESIAN_POINT('',(0.055,-0.00375331067067088,0.00441280913126189));
#1535=CARTESIAN_POINT('',(0.055,-0.00375331067067088,0.00441280913126189));
#1536=CARTESIAN_POINT('',(0.056,-0.00375331067067088,0.00441280913126189));
#1537=CARTESIAN_POINT('',(0.055,-0.00262141466559796,0.00602266962587191));
#1538=CARTESIAN_POINT('',(0.05500000025,-0.00148915549643571,0.00763229450364227));
#1539=CARTESIAN_POINT('',(0.055,-0.00148951866052504,0.00763253012048193));
#1540=CARTESIAN_POINT('',(0.05599999975,-0.00148915549643571,0.00763229450364227));
#1541=CARTESIAN_POINT('',(0.056,-0.00262141466559796,0.00602266962587191));
#1542=CARTESIAN_POINT('',(0.0549999999999982,-0.00770085205170967,0.0116623744434986));
#1543=CARTESIAN_POINT('',(0.055,-0.00770085205170967,0.0116623744434986));
#1544=CARTESIAN_POINT('',(0.055,-0.00104331112365372,0.00842041851616994));
#1545=CARTESIAN_POINT('',(0.055,-0.00104331112365372,0.00842041851616994));
#1546=CARTESIAN_POINT('',(0.056,-0.00104331112365372,0.00842041851616994));
#1547=CARTESIAN_POINT('',(0.056,-0.00770085205170967,0.0116623744434986));
#1548=CARTESIAN_POINT('',(0.055,-0.00102265119064552,0.00842041851616994));
#1549=CARTESIAN_POINT('',(0.055,-0.00102265119064552,0.00842041851616994));
#1550=CARTESIAN_POINT('',(0.055,-0.00100283508411413,0.00842041851616994));
#1551=CARTESIAN_POINT('',(0.055,-0.00100241700212446,0.00842041851616994));
#1552=CARTESIAN_POINT('',(0.056,-0.00100283508411413,0.00842041851616994));
#1553=CARTESIAN_POINT('',(0.056,-6.24500451351651E-18,0.00842041851616994));
#1554=CARTESIAN_POINT('',(0.0549999999999918,0.0275248764571335,0.00669947758640913));
#1555=CARTESIAN_POINT('',(0.055,0.0275248764571335,0.00669947758640913));
#1556=CARTESIAN_POINT('',(0.055,-0.00105379261630524,0.00682086336664134));
#1557=CARTESIAN_POINT('',(0.055,-0.00105356431683449,0.00682086239695625));
#1558=CARTESIAN_POINT('',(0.05599999975,-0.00105379261630546,0.00682086336664134));
#1559=CARTESIAN_POINT('',(0.056,0.0275248764571335,0.00669947758640913));
#1560=CARTESIAN_POINT('',(0.055,-0.00105356431683449,0.00561683576410907));
#1561=CARTESIAN_POINT('',(0.055,-0.00105356431683449,0.00561683576410907));
#1562=CARTESIAN_POINT('',(0.055,-0.00105356431683449,0.00441280913126189));
#1563=CARTESIAN_POINT('',(0.055,-0.00105356431683449,0.00441280913126189));
#1564=CARTESIAN_POINT('',(0.056,-0.00105356431683449,0.00441280913126189));
#1565=CARTESIAN_POINT('',(0.056,-0.00105356431683449,0.005));
#1566=CARTESIAN_POINT('',(0.055,0.00027173688798479,0.00441280913126189));
#1567=CARTESIAN_POINT('',(0.055,0.000809149697116052,0.00441280913126189));
#1568=CARTESIAN_POINT('',(0.056,0.000809149697116052,0.00441280913126189));
#1569=CARTESIAN_POINT('',(0.055,-0.000265675921146471,0.00441280913126189));
#1570=CARTESIAN_POINT('',(0.056,-0.000265675921146471,0.00441280913126189));
#1571=CARTESIAN_POINT('',(0.056,-6.24500451351651E-18,0.00441280913126189));
#1572=CARTESIAN_POINT('',(0.055,-0.000265675921146473,0.00684781230183894));
#1573=CARTESIAN_POINT('',(0.055,-0.000265675921146473,0.00928281547241598));
#1574=CARTESIAN_POINT('',(0.056,-0.000265675921146473,0.00928281547241598));
#1575=CARTESIAN_POINT('',(0.056,-0.000265675921146473,0.005));
#1576=CARTESIAN_POINT('',(0.055,-0.000701630264837025,0.00928281547241598));
#1577=CARTESIAN_POINT('',(0.055,-0.00113758460852758,0.00928281547241598));
#1578=CARTESIAN_POINT('',(0.056,-0.00113758460852758,0.00928281547241598));
#1579=CARTESIAN_POINT('',(0.056,-6.24500451351651E-18,0.00928281547241598));
#1580=CARTESIAN_POINT('',(0.055,-0.00285683001119086,0.00683275206087508));
#1581=CARTESIAN_POINT('',(0.055,-0.00457607541385415,0.00438268864933418));
#1582=CARTESIAN_POINT('',(0.056,-0.00457607541385415,0.00438268864933418));
#1583=CARTESIAN_POINT('',(0.056,-0.00285683001119086,0.00683275206087508));
#1584=CARTESIAN_POINT('',(0.055,-0.00457607541385415,0.00402362079898541));
#1585=CARTESIAN_POINT('',(0.055,-0.00457607541385415,0.00366455294863665));
#1586=CARTESIAN_POINT('',(0.056,-0.00457607541385415,0.00366455294863665));
#1587=CARTESIAN_POINT('',(0.056,-0.00457607541385415,0.005));
#1588=CARTESIAN_POINT('',(0.055,-0.00281481986534431,0.00366455294863665));
#1589=CARTESIAN_POINT('',(0.055,-0.00105356431683449,0.00366455294863665));
#1590=CARTESIAN_POINT('',(0.056,-0.00105356431683449,0.00366455294863665));
#1591=CARTESIAN_POINT('',(0.056,-6.24500451351651E-18,0.00366455294863665));
#1592=CARTESIAN_POINT('',(0.055,-0.00105356431683449,0.00283227647431833));
#1593=CARTESIAN_POINT('',(0.055,-0.00105356431683449,0.002));
#1594=CARTESIAN_POINT('',(0.056,-0.00105356431683449,0.002));
#1595=CARTESIAN_POINT('',(0.056,-0.00105356431683449,0.005));
#1596=CARTESIAN_POINT('',(0.055,-0.000659620118990479,0.002));
#1597=CARTESIAN_POINT('',(0.055,-0.000265675921146471,0.002));
#1598=CARTESIAN_POINT('',(0.056,-0.000265675921146471,0.002));
#1599=CARTESIAN_POINT('',(0.056,-6.24500451351651E-18,0.002));
#1600=CARTESIAN_POINT('',(0.055,-0.000265675921146471,0.00283227647431833));
#1601=CARTESIAN_POINT('',(0.055,-0.000265675921146471,0.00366455294863665));
#1602=CARTESIAN_POINT('',(0.056,-0.000265675921146472,0.00366455294863665));
#1603=CARTESIAN_POINT('',(0.056,-0.000265675921146472,0.005));
#1604=CARTESIAN_POINT('',(0.055,0.00027173688798479,0.00366455294863666));
#1605=CARTESIAN_POINT('',(0.055,0.000809149697116052,0.00366455294863666));
#1606=CARTESIAN_POINT('',(0.056,0.000809149697116052,0.00366455294863666));
#1607=CARTESIAN_POINT('',(0.056,-6.24500451351651E-18,0.00366455294863666));
#1608=CARTESIAN_POINT('',(0.055,0.000809149697116052,0.00403868103994927));
#1609=CARTESIAN_POINT('',(0.056,0.000809149697116052,0.005));
#1610=CARTESIAN_POINT('',(0.055,-0.00240343749375268,0.00441280913126189));
#1611=CARTESIAN_POINT('',(0.055,-0.00240343749375268,0.00441280913126189));
#1612=CARTESIAN_POINT('',(0.056,-6.24500451351651E-18,0.00441280913126189));
#1613=CARTESIAN_POINT('',(0.056,-6.24500451351651E-18,0.005));
#1614=CARTESIAN_POINT('',(0.055,0.00420721564511859,0.0092431832593532));
#1615=CARTESIAN_POINT('',(0.055,0.00455360118728726,0.0092431832593532));
#1616=CARTESIAN_POINT('',(0.056,0.00455360118728726,0.0092431832593532));
#1617=CARTESIAN_POINT('',(0.055,0.00386083010294992,0.0092431832593532));
#1618=CARTESIAN_POINT('',(0.056,0.00386083010294992,0.0092431832593532));
#1619=CARTESIAN_POINT('',(0.056,-6.24500451351651E-18,0.0092431832593532));
#1620=CARTESIAN_POINT('',(0.055,0.00290252319109195,0.00850206087507927));
#1621=CARTESIAN_POINT('',(0.055,0.00194421627923399,0.00776093849080533));
#1622=CARTESIAN_POINT('',(0.056,0.00194421627923399,0.00776093849080533));
#1623=CARTESIAN_POINT('',(0.056,0.00290252319109195,0.00850206087507927));
#1624=CARTESIAN_POINT('',(0.055,0.00216219345107928,0.00747875713379835));
#1625=CARTESIAN_POINT('',(0.055,0.00237986833095141,0.00719696710749115));
#1626=CARTESIAN_POINT('',(0.056,0.0023798683309514,0.00719696710749117));
#1627=CARTESIAN_POINT('',(0.056,0.00216219345107928,0.00747875713379835));
#1628=CARTESIAN_POINT('',(0.0549999999998809,-0.0692908584849456,0.0959966949115334));
#1629=CARTESIAN_POINT('',(0.055,0.00355883263941155,0.00816280913126189));
#1630=CARTESIAN_POINT('',(0.05599999975,0.0035591098731414,0.00816247343539338));
#1631=CARTESIAN_POINT('',(0.056,-0.0692908584849456,0.0959966949115334));
#1632=CARTESIAN_POINT('',(0.0549999999999951,0.000666831586160408,0.0114799202119704));
#1633=CARTESIAN_POINT('',(0.055,0.00379084585445286,0.00838044055425443));
#1634=CARTESIAN_POINT('',(0.056,0.00379084585435438,0.00838044055429888));
#1635=CARTESIAN_POINT('',(0.056,0.000666831586160408,0.0114799202119704));
#1636=CARTESIAN_POINT('',(0.0549999999999944,0.0215083376914472,0.00720055496147312));
#1637=CARTESIAN_POINT('',(0.055,0.00375144519489665,0.00716169942929613));
#1638=CARTESIAN_POINT('',(0.05599999975,0.00375154506990546,0.00716169964784206));
#1639=CARTESIAN_POINT('',(0.056,0.0215083376914472,0.00720055496147312));
#1640=CARTESIAN_POINT('',(0.055,0.00375144519489665,0.00458084971464807));
#1641=CARTESIAN_POINT('',(0.055,0.00375144519489665,0.002));
#1642=CARTESIAN_POINT('',(0.056,0.00375144519489665,0.002));
#1643=CARTESIAN_POINT('',(0.056,0.00375144519489665,0.005));
#1644=CARTESIAN_POINT('',(0.055,0.00415252319109195,0.002));
#1645=CARTESIAN_POINT('',(0.055,0.00455360118728727,0.002));
#1646=CARTESIAN_POINT('',(0.056,0.00455360118728727,0.002));
#1647=CARTESIAN_POINT('',(0.056,-6.24500451351651E-18,0.002));
#1648=CARTESIAN_POINT('',(0.055,0.00455360118728726,0.0056215916296766));
#1649=CARTESIAN_POINT('',(0.056,0.00455360118728726,0.005));
#1650=CARTESIAN_POINT('',(0.056,-6.24500451351651E-18,0.005));
#1651=CARTESIAN_POINT('',(0.055,-6.07153216591882E-18,0.));
#1652=MECHANICAL_DESIGN_GEOMETRIC_PRESENTATION_REPRESENTATION('',(#1000),
#1653);
#1653=(
GEOMETRIC_REPRESENTATION_CONTEXT(3)
GLOBAL_UNCERTAINTY_ASSIGNED_CONTEXT((#1654))
GLOBAL_UNIT_ASSIGNED_CONTEXT((#1657,#1656,#1655))
REPRESENTATION_CONTEXT('Part 1','TOP_LEVEL_ASSEMBLY_PART')
);
#1654=UNCERTAINTY_MEASURE_WITH_UNIT(LENGTH_MEASURE(2.2E-6),#1657,
'DISTANCE_ACCURACY_VALUE','Maximum Tolerance applied to model');
#1655=(
NAMED_UNIT(*)
SI_UNIT($,.STERADIAN.)
SOLID_ANGLE_UNIT()
);
#1656=(
NAMED_UNIT(*)
PLANE_ANGLE_UNIT()
SI_UNIT($,.RADIAN.)
);
#1657=(
LENGTH_UNIT()
NAMED_UNIT(*)
SI_UNIT($,.METRE.)
);
#1658=PRODUCT_DEFINITION_SHAPE('','',#1659);
#1659=PRODUCT_DEFINITION('','',#1661,#1660);
#1660=PRODUCT_DEFINITION_CONTEXT('',#1667,'design');
#1661=PRODUCT_DEFINITION_FORMATION_WITH_SPECIFIED_SOURCE('','',#1663,
 .NOT_KNOWN.);
#1662=PRODUCT_RELATED_PRODUCT_CATEGORY('','',(#1663));
#1663=PRODUCT('Part 1','Part 1','Part 1',(#1665));
#1664=PRODUCT_CATEGORY('','');
#1665=PRODUCT_CONTEXT('',#1667,'mechanical');
#1666=APPLICATION_PROTOCOL_DEFINITION('international standard',
'ap242_managed_model_based_3d_engineering',2020,#1667);
#1667=APPLICATION_CONTEXT('managed model based 3d engineering');
ENDSEC;
END-ISO-10303-21;
